<svg xmlns="http://www.w3.org/2000/svg" xmlns:xlink="http://www.w3.org/1999/xlink" width="420.022" height="428.668" viewBox="0 0 420.022 428.668"><defs><clipPath id="a"><path d="M0,57.876,288.1,183.145l131.923-303.4-288.1-125.269Z" transform="translate(0 245.523)" fill="none"/></clipPath><clipPath id="b"><rect width="326.758" height="324.527" fill="none"/></clipPath><clipPath id="c"><path d="M127.269-230.62,29.442-5.635,258.373,93.908,356.2-131.079Z" transform="translate(-29.442 230.62)" fill="none"/></clipPath><clipPath id="d"><rect width="410.384" height="417.537" fill="none"/></clipPath><clipPath id="e"><path d="M131.437-244.113,3.236,50.727l282.184,122.7,128.2-294.84Z" transform="translate(-3.236 244.113)" fill="none"/></clipPath><clipPath id="f"><rect width="307.545" height="301.894" fill="none"/></clipPath><clipPath id="g"><path d="M125.036-225.165,34.865-17.788,252.239,76.729,342.41-130.649Z" transform="translate(-34.865 225.165)" fill="none"/></clipPath><clipPath id="h"><rect width="354.974" height="354.869" fill="none"/></clipPath><clipPath id="i"><path d="M128.293-235.174,20.776,12.1l247.457,107.6L375.75-127.577Z" transform="translate(-20.776 235.174)" fill="none"/></clipPath><clipPath id="j"><rect width="341.668" height="340.844" fill="none"/></clipPath><clipPath id="k"><path d="M127.962-233.3,24.864,3.811,263.432,107.544l103.1-237.111Z" transform="translate(-24.864 233.3)" fill="none"/></clipPath><clipPath id="l"><rect width="379.425" height="382.434" fill="none"/></clipPath><clipPath id="m"><path d="M129.941-239.613,13.344,28.54l262.83,114.28,116.6-268.152Z" transform="translate(-13.344 239.613)" fill="none"/></clipPath><clipPath id="n"><rect width="273.199" height="252.457" fill="none"/></clipPath><clipPath id="o"><path d="M113.894-206.654,42.223-41.825,243.753,45.8l71.669-164.829Z" transform="translate(-42.223 206.654)" fill="none"/></clipPath><clipPath id="p"><rect width="133.447" height="107.208" fill="none"/></clipPath><clipPath id="q"><path d="M101.613-199.258l-26.372,60.65L182.318-92.05,208.688-152.7Z" transform="translate(-75.241 199.258)" fill="none"/></clipPath><clipPath id="r"><rect width="420.022" height="428.668" fill="none"/></clipPath><clipPath id="s"><path d="M131.921-245.523,0,57.876,288.1,183.145l131.921-303.4Z" transform="translate(0 245.523)" fill="none"/></clipPath><clipPath id="t"><rect width="390.471" height="394.951" fill="none"/></clipPath><clipPath id="u"><path d="M130.616-241.418,9.884,36.247,279.621,153.534,400.354-124.133Z" transform="translate(-9.884 241.418)" fill="none"/></clipPath><clipPath id="v"><rect width="367.547" height="368.9" fill="none"/></clipPath><clipPath id="w"><path d="M129.044-237.416,16.936,20.415l255.438,111.07L384.482-126.348Z" transform="translate(-16.936 237.416)" fill="none"/></clipPath></defs><g transform="translate(0 245.523)"><g transform="translate(0 -245.523)" clip-path="url(#a)"><g transform="translate(51.404 26.02)" opacity="0.488"><g clip-path="url(#b)"><g transform="translate(0)" clip-path="url(#c)"><g transform="translate(68.306 46.101)"><path d="M6,2.191-.821,8.823l-3.488,8.307-.051.3L-5.416,26.5l.484,7.635.424,2.666,1.975,7.089L-.866,48.44.649,51.9l4.5,9.253,2.734,5.226,3.63,7.792L15,81.367l2.628,5.645.932,1.667,3.975,6.376,4.161,5.933,4.435,5.159,4.578,5.034,4.635,4.932,1.631,1.636,12.277,13.376,3.015,3.522a1.342,1.342,0,0,1,.141.2l1.3,2.277,3.635,7.455a.832.832,0,0,1,.052.122l1.168,3.186a1.308,1.308,0,0,1,.063.665l-1.578,9.517a1.34,1.34,0,0,1-.176.471l-4.951,8.052-5.861,7.722-4.773,7.86-2.521,8.717.1,9.882.4,1.416,2.993,9.957,3.481,5.823,4.045,6.24,1.344,1.776,3.075,3.12,4.821,4.042,5.168,3.228,5.587,2.161,6.078,1.062,6.493-.072,7.523-1.992,5.529-2.168,2.663-1.407,7.139-4.4,2.151-1.61,6.3-4.8,3.921-3.1,4.707-3.382,4.988-3.068,5.559-2.743,3.143-1.269,9.791-3.438,6.376-2.4,5.6-2.505,2.774-1.522,6.483-4.45,3.34-2.713,4.283-3.989,6.9-7.134.751-.925,5.142-6.5,4.836-7.862,2.942-8.546.159-6.944-.423-2.774-2.441-5.2-4.264-5.081-4.971-3.532-5.519-2.678-11.528-4.527-5.711-2.757a1.039,1.039,0,0,1-.143-.08l-5.311-3.459a1.465,1.465,0,0,1-.19-.154l-4.784-4.644a1.329,1.329,0,0,1-.227-.3l-3.848-6.793a1.392,1.392,0,0,1-.112-.257l-.817-2.635a1.365,1.365,0,0,1-.056-.274l-.807-9.269-.009-1.4a1.271,1.271,0,0,1,.021-.23l1.681-9.473a1.4,1.4,0,0,1,.063-.234l3.31-8.765a1.549,1.549,0,0,1,.1-.216l4.894-8.077a1.277,1.277,0,0,1,.143-.192l4.138-4.641,2.153-2.743,6.579-7.425,5.091-6,1.646-2.2,4.014-7.013,1.379-6.977.005-1.725-3.193-4.616-4.9-3.137-5.8-1.227-5.987.557-.641.164-8.5,4.108-1.667.913-7.56,4.913-9.06,5.06a1.22,1.22,0,0,1-.244.107l-4.267,1.343-3.584.959a1.366,1.366,0,0,1-.292.042l-6.907.236a1.411,1.411,0,0,1-.285-.021l-6.291-1.18a.967.967,0,0,1-.176-.045l-5.934-2a1.139,1.139,0,0,1-.127-.051l-5.671-2.6L97.8,29.258l-5.355-3.52-5.264-3.6-5.248-3.258-5.566-2.664-5.756-2.088-5.943-1.795L58.635,10.6,52.6,8.788,34.639,3.126l-6-1.8L22.718-.091,16.237-.315,9.155.907ZM-3.154,7.612a1.384,1.384,0,0,1,.2-.326l.512-.6L4.364.129A1.3,1.3,0,0,1,4.778-.14L8.3-1.572a1.367,1.367,0,0,1,.271-.079l7.354-1.268a1.266,1.266,0,0,1,.269-.017l6.7.232a1.109,1.109,0,0,1,.185.019l.361.065L29.323-1.2,35.409.623,53.373,6.285l6,1.805,6.03,1.734,6.03,1.825,5.941,2.16,5.749,2.745c.042.019.084.044.126.068l5.355,3.326L93.9,23.564l5.269,3.466,5.376,3.092,5.5,2.518,5.781,1.95,6.057,1.135L128.5,35.5l3.384-.9,4.086-1.287,8.864-4.95,7.572-4.92,1.811-.992,8.672-4.2a1.438,1.438,0,0,1,.243-.089l.868-.223a1.209,1.209,0,0,1,.206-.035l6.287-.587a1.334,1.334,0,0,1,.391.023l6.229,1.32a1.324,1.324,0,0,1,.436.178l5.32,3.408a1.3,1.3,0,0,1,.372.358l3.576,5.168a1.324,1.324,0,0,1,.232.751l-.005,2.263a1.363,1.363,0,0,1-.024.251l-1.447,7.308a1.292,1.292,0,0,1-.147.4l-4.183,7.3-.646.931-1.179,1.517L174.27,54.56l-6.547,7.387-2.156,2.746L161.459,69.3l-4.77,7.871-3.223,8.539-1.639,9.24v1.168l.793,9.02.735,2.366,3.686,6.509,4.56,4.428,5.121,3.335,5.549,2.68,11.528,4.527,5.711,2.767a1.344,1.344,0,0,1,.187.11l5.2,3.693a1.363,1.363,0,0,1,.244.225l4.48,5.343a1.32,1.32,0,0,1,.183.285l2.593,5.529a1.286,1.286,0,0,1,.108.358l.47,3.075a1.248,1.248,0,0,1,.014.229l-.166,7.261a1.291,1.291,0,0,1-.072.4l-3.055,8.875a1.416,1.416,0,0,1-.12.26l-4.953,8.051c-.028.044-.058.087-.089.127l-6.039,7.6-7.026,7.263-4.4,4.1-3.494,2.834-6.619,4.55c-.037.024-.075.047-.112.068l-2.93,1.6-5.767,2.582-8.215,3.052-8.028,2.818-3,1.208-5.362,2.645-4.8,2.956-4.58,3.293-3.892,3.083-8.588,6.505-7.308,4.506-2.806,1.484c-.042.023-.087.042-.133.061L95.771,240c-.049.019-.094.035-.143.049l-7.689,2.037a1.35,1.35,0,0,1-.187.035l-.25.028a1.193,1.193,0,0,1-.136.009l-6.593.061a1.357,1.357,0,0,1-.237-.017L74.212,241.1a1.143,1.143,0,0,1-.248-.07l-5.823-2.254a1.286,1.286,0,0,1-.22-.108L62.57,235.32a1.054,1.054,0,0,1-.147-.108l-4.983-4.181-3.228-3.267c-.038-.042-.077-.086-.112-.131l-1.449-1.921-4.124-6.357-3.581-5.99a1.272,1.272,0,0,1-.122-.267l-.283-.871-3.235-10.9a1.273,1.273,0,0,1-.051-.346l-.107-10.25a1.31,1.31,0,0,1,.051-.377l2.621-9.061a1.358,1.358,0,0,1,.134-.309l.821-1.372,4.087-6.713c.023-.038.049-.073.075-.11l5.828-7.67,4.745-7.728,1.481-8.922-1.027-2.8L56.4,138.346l-1.2-2.09-2.912-3.4-4.566-5.063-7.637-8.232-1.62-1.624-4.677-4.978-4.616-5.074-4.513-5.257c-.028-.033-.08-.1-.1-.136l-4.2-5.992L16.31,90.009,15.3,88.2,12.64,82.491l-3.6-7.436-3.5-7.515L1.861,60.4-1.731,53-3.3,49.415-5.025,44.69l-2.027-7.26a1.4,1.4,0,0,1-.033-.148l-.449-2.863-.5-7.871a1.166,1.166,0,0,1,.007-.234l1.165-9.765a1.365,1.365,0,0,1,.084-.292l3.625-8.63Z" transform="translate(8.042 2.937)" fill="#ebebeb"/></g></g></g></g><g transform="translate(5.65 2.462)" opacity="0.929"><g clip-path="url(#d)"><g transform="translate(0 0)" clip-path="url(#e)"><g transform="translate(75.692 71.9)"><path d="M105.675,36.373l-4.7,7.721-2.818,8.319.426,4.566,2.147,5.837.967,1.247,6.34,7.7-2.685-5.081-2.6-6.219a1.315,1.315,0,0,1-.1-.456l-.112-3.069a.958.958,0,0,1,0-.141l.478-6.746a1.27,1.27,0,0,1,.1-.416l3.556-8.428a1.84,1.84,0,0,1,.124-.227l5.222-7.7a1.144,1.144,0,0,1,.131-.161l1.282-1.367,5.171-5.769,7.169-6.937,6.785-6.937L138.3,4.869l3.64-8.028.023-.143.25-9.075-1.14-2.884-2.863-2.881,2.731,8.159a1.363,1.363,0,0,1,.066.381l.01.417a1.3,1.3,0,0,1-.066.447L138.043.005a1.44,1.44,0,0,1-.187.36l-5.58,7.584a1.745,1.745,0,0,1-.117.138l-6.867,7.02-2.9,2.821-4.307,4.1-6.633,6.979-1.14,1.522ZM-128.218-23.65l-1.189,2.127-3.277,8.452L-135.13-4.3l-1.856,9.058-1.378,9.309-.65,8.04-.037,1.472.44,10.076.218,2.065,1.952,10.659,4.889,19.926,2.376,8.967,1.018,2.42a1.35,1.35,0,0,1,.049.141l1.776,6.128,2.577,5.587a1.273,1.273,0,0,1,.1.3l.485,2.477,2.408,8.669a1.287,1.287,0,0,1,.038.484l-1.023,9.536a1.292,1.292,0,0,1-.1.379l-3.63,8.4-3.974,8.183-2.441,8.6-.072,6.886.04,2.645,4.351,11.542,1.346,1.84,4.073,6.027,3.5,5.893.3.353,4.3,5.522,4.218,5.65,2.4,3.328,1.8,2.146,4.332,5.391,5.964,7.673,2.61,3.15,4.41,5.088,4.517,4.78,4.627,4.478,4.758,4.269,9.643,8.344,4.868,4.045,4.938,3.843,5.044,3.52,5.2,3.108L-39.4,248.7l5.589,2.076,5.861,1.4,6.17.553,6.71-.562,7.235-1.692.967-.351,7.017-2.986,3.972-2.072,4.6-2.58,5.266-3.055,3.639-2.186,8.847-5.018,8.538-4.176,8.042-3,7.665-2.107,7.509-1.948,3.23-1.042,4.482-1.889,5.781-3.305L75.035,212l3.995-3.77,6.034-7.268L96.21,185.932,108.4,171.217l5.9-7.387,3.619-4.855,1.893-2.647,5.048-7.724,4.606-7.9,3.911-8.068,2.8-8.5.691-8.578-.028-.618-2.491-8.133-1.772-3.335,1.891,4.112a1.382,1.382,0,0,1,.087.251l.676,2.909a1.64,1.64,0,0,1,.03.2l.559,7.633a1.265,1.265,0,0,1-.024.372l-1.964,9.152a1.234,1.234,0,0,1-.075.236l-3.579,8.452c-.017.038-.038.086-.063.129l-4.508,8.047-5.171,7.857-5.646,7.63-2.055,2.563-4.1,4.857-6.306,7.282L96.2,182.487l-5.648,7.473-5.585,7.563-1.231,1.486-5.252,5.837a1.515,1.515,0,0,1-.143.136l-6.179,5.072a1.038,1.038,0,0,1-.126.091l-2.092,1.337a1.493,1.493,0,0,1-.2.1l-6.322,2.671-6.287,1.952-9.03,2.182L40.5,220.917l-8.639,4.092-8.456,4.815-1.372.862-9.7,5.812L5.5,240.313l-3.583,1.758-4.854,2.081a1.333,1.333,0,0,1-.131.049l-7.7,2.364a1.232,1.232,0,0,1-.159.037l-.26.047-6.834.74a1.82,1.82,0,0,1-.2.007l-6.551-.281a1.215,1.215,0,0,1-.2-.021l-6.149-1.2a1.418,1.418,0,0,1-.169-.045l-5.81-1.978-1.063-.438-4.623-2.226-5.409-3.165-5.213-3.593-5.046-3.918-4.927-4.136-5.13-4.5-4.525-4.1-4.758-4.454-4.684-4.669-4.512-4.873c-.014-.012-.086-.1-.1-.112l-4.349-5.426-7.611-9.763-.969-1.428-4.085-5.91-5.068-7.092a1.313,1.313,0,0,1-.113-.182l-6.593-12.829a1.3,1.3,0,0,1-.133-.327l-2.32-9.081-.714-2.174a1.269,1.269,0,0,1-.065-.45l.325-9.866a1.245,1.245,0,0,1,.072-.382l3-8.7a1.214,1.214,0,0,1,.065-.155l4.079-8.232,3.295-8.265.11-1.051.6-8.176-3.085-11.027-1.131-2.022-3.689-6.909-1.935-3.956-1.728-2.8-3.686-7.059c-.019-.042-.04-.084-.058-.129l-1.168-2.987-2.132-4.623a1.2,1.2,0,0,1-.052-.131l-2.455-7.321-.468-1.187-2.788-9.1-.333-1.376-2.163-8.312-.534-2.933-1.177-8.7-.112-2.022.113-10.043.381-4.459.667-5.247,1.713-9.337,2.413-9.07c.014-.045.028-.091.045-.134ZM-131.8-22.6c.017-.04.037-.077.058-.115l4.477-8.028a1.328,1.328,0,0,1,.133-.2l3.825-4.637,2.359-2.69a1.2,1.2,0,0,1,.2-.182l8.532-6.383a1.371,1.371,0,0,1,.2-.1l7.8-3.122a1.318,1.318,0,0,1,.2-.063l2.706-.611a1.31,1.31,0,0,1,1.536.882,1.313,1.313,0,0,1-.746,1.606,1.6,1.6,0,0,1-.2.065l-3.254.845-1.423.571-7.186,4.386L-114.4-39l-6.3,7-4.5,7.792-3.249,8.4-2.373,8.9-1.68,9.164-.651,5.123-.37,4.309-.11,9.859.1,1.831,1.158,8.538.5,2.778,2.467,9.561,2.732,8.932.457,1.152,2.457,7.315,2.132,4.63,1.172,2.994,3.605,6.914,1.746,2.828,1.975,4.028,4.85,8.981a1.356,1.356,0,0,1,.12.29l3.185,11.387a1.308,1.308,0,0,1,.045.45l-.754,9.725a1.377,1.377,0,0,1-.087.346l-3.4,8.527-4.085,8.255-2.914,8.435-.311,9.437.667,2.038,2.3,8.99.138.243,6.383,12.454.887,1.208,4.15,5.844,5.027,7.3,7.549,9.679,4.314,5.383,4.477,4.836,4.616,4.6,4.712,4.412,4.761,4.3,4.826,4.23,4.866,4.085,4.948,3.843,5.07,3.5,5.236,3.062,4.464,2.147.917.379,5.646,1.919,5.964,1.166,6.353.269,6.731-.733,7.567-2.322,4.73-2.025,3.46-1.7,6.736-3.761,11.043-6.656,8.92-5.077,8.47-3.984a.914.914,0,0,1,.129-.052l2.587-.894,5.231-1.7,9.039-2.188,6.09-1.887,6.1-2.582,1.934-1.236,6.043-4.96,5.151-5.725,1.152-1.385,5.547-7.518,5.7-7.541,2.89-3.41,3.281-3.972,6.315-7.295,4.068-4.819,2-2.5,5.573-7.528,5.082-7.721,4.424-7.9,3.5-8.271,1.9-8.848-.539-7.345-.622-2.682-2.338-5.079-3.93-6.114-1.407-1.879L111.089,79.76l-2.732-3.445-4.333-5.346-5.484-6.708a1.314,1.314,0,0,1-.194-.349l-2.277-6.189a1.258,1.258,0,0,1-.075-.33l-.47-5.013a1.328,1.328,0,0,1,.063-.543l2.956-8.723a1.176,1.176,0,0,1,.122-.26l4.815-7.913a1.318,1.318,0,0,1,.093-.134l5.83-7.432c.031-.04.065-.079.1-.117l6.731-7.08,7.209-6.924,6.781-6.935,5.4-7.336L138.4-9.343l-2.713-8.108L131.2-20.977l-5.524-1.779-6.029-.9a.5.5,0,0,0-.051-.007l-.08-.014-2.8-.2a1.309,1.309,0,0,1-1.213-1.4,1.316,1.316,0,0,1,1.4-1.213l3.013.225a.153.153,0,0,1,.028,0l6.064.59a1.285,1.285,0,0,1,.143.021l6.093,1.28a1.338,1.338,0,0,1,.253.082l5.59,2.434a1.3,1.3,0,0,1,.407.278l4.627,4.651a1.305,1.305,0,0,1,.288.443l1.337,3.384a1.313,1.313,0,0,1,.091.517l-.258,9.432a1.157,1.157,0,0,1-.016.175l-.066.4a1.768,1.768,0,0,1-.1.33L140.623,6.1a1.4,1.4,0,0,1-.168.271l-5.879,7.42a1.254,1.254,0,0,1-.091.1l-7.118,7.268L120.5,27.8l-6.36,7.038-5.093,7.511-3.422,8.108-.457,6.46.1,2.762,2.457,5.893,3.532,6.561,4.126,5.844,4.22,5.467,4.342,5.18,4.424,5.07,4.358,5.379,2.071,3.01a.8.8,0,0,1,.077.127l1.851,3.487a1.278,1.278,0,0,1,.1.232l2.577,8.412a1.281,1.281,0,0,1,.058.325l.038.866c0,.052,0,.108,0,.162l-.711,8.817a1.268,1.268,0,0,1-.061.3l-2.874,8.726a1.022,1.022,0,0,1-.066.162l-4,8.237-4.688,8.045-5.112,7.822-1.94,2.718-3.661,4.91-5.94,7.436L98.27,187.55,87.122,202.581l-6.128,7.384a1.163,1.163,0,0,1-.11.117l-4.115,3.881L73.3,216.84a1.123,1.123,0,0,1-.185.127l-5.948,3.4a.9.9,0,0,1-.143.07l-4.66,1.962-3.41,1.1-10.783,2.83-4.312,1.2L35.6,230.666l-7.9,3.869-2.549,1.474-6.209,3.5-3.625,2.179-5.3,3.075-4.653,2.608-4.1,2.135-8.283,3.459a1.039,1.039,0,0,1-.148.044l-7.4,1.732a1.327,1.327,0,0,1-.189.03l-6.9.578a1.16,1.16,0,0,1-.19,0l-1.657-.1-4.791-.473a.977.977,0,0,1-.176-.03L-34.5,253.3a1.264,1.264,0,0,1-.152-.047l-5.725-2.125a1.257,1.257,0,0,1-.12-.052l-5.482-2.69-5.37-3.209-5.178-3.612-5.023-3.907-4.917-4.087-9.686-8.38-5.961-5.407-3.558-3.466-4.59-4.859-4.466-5.154-2.656-3.206-5.976-7.684-6.147-7.558-2.441-3.385-4.187-5.61-4.59-5.852a1.271,1.271,0,0,1-.127-.178l-3.513-5.924-4.005-5.922-1.421-1.941a1.339,1.339,0,0,1-.166-.3l-2.034-5.3-2.467-6.649a1.316,1.316,0,0,1-.082-.436l-.044-2.9.073-7.092a1.269,1.269,0,0,1,.049-.344l2.519-8.88a1.522,1.522,0,0,1,.084-.215l4-8.234,3.527-8.164.976-9.079-2.364-8.525-.478-2.422-2.553-5.535a1.155,1.155,0,0,1-.068-.183l-1.784-6.149-1.021-2.436a1.8,1.8,0,0,1-.059-.171l-2.511-9.353L-139,46.936l-.424-2.228-1.561-8.616-.237-2.244-.447-10.245.038-1.636.663-8.2,1.4-9.456.924-4.669.971-4.569,2.507-8.974,3.35-8.656c.005-.016.012-.033.019-.049" transform="translate(141.667 48.762)" fill="#ebebeb"/></g></g></g></g><g transform="translate(60.872 35.544)" opacity="0.703"><g clip-path="url(#f)"><g transform="translate(0 0)" clip-path="url(#g)"><g transform="translate(65.939 38.329)"><path d="M2.971,3.566-.721,11.695-.94,13.451l-.419,7.762.976,6.273,1.14,4.587L2.39,36.388,5.883,44.4l3.623,6.689,7.172,15.034,1.781,4.271,1.694,3.389,3.7,7.137,1.475,2.53,2.561,3.45L32.35,92.16l4.6,5.009,2.535,2.539,2.191,2.076,4.9,4.325,9.926,8.522,5.842,5.234,3.906,4.024,4.527,5.542a1.1,1.1,0,0,1,.11.157l3.556,5.964a1.313,1.313,0,0,1,.141.339l.255.972a1.456,1.456,0,0,1,.035.194l1.044,9.83a1.321,1.321,0,0,1-.068.576l-3.155,8.866a1.323,1.323,0,0,1-.148.293l-5.334,7.918-6.121,7.689-5.126,7.7L53.114,188.5l.164,9.891.674,2.062,3.123,8.428.6,1.273,3.354,4.363,4.6,4.635,5.028,3.377,5.634,1.9,6.308.506,6.987-.8,8-3.268,3.38-1.781,5.779-4.035,3-2.264,7.652-6.708c.009-.005.1-.086.112-.094l8.18-6.692a1.252,1.252,0,0,1,.138-.1l2.064-1.282a1.185,1.185,0,0,1,.2-.1l8.284-3.354,1.515-.506,14.376-3.965,7.995-3.417L163.5,184.8l5.933-3.991,2.759-2.249,7.158-6.931,1.575-1.948,4.213-5.564,1.522-2.6,2.591-5.442,1.4-8.95-3.034-7.155-4.454-4.41-5.274-2.849-5.81-2.086L166.1,128.8l-5.982-2.046-5.828-2.582a1.16,1.16,0,0,1-.183-.1l-5.32-3.469a1.172,1.172,0,0,1-.232-.194l-4.688-4.9a1.314,1.314,0,0,1-.213-.293l-3.747-7.076a1.217,1.217,0,0,1-.1-.243l-1.109-3.752a1.158,1.158,0,0,1-.037-.154l-1.137-6.781L137.181,93a1.406,1.406,0,0,1,0-.192l.644-9.959a1.247,1.247,0,0,1,.024-.178l.906-4.436.849-4.992a1.206,1.206,0,0,1,.037-.157l2.724-9.054a1.38,1.38,0,0,1,.091-.225l4.333-8.354a1.219,1.219,0,0,1,.236-.323l3.265-3.265,3.473-3.956a1.233,1.233,0,0,1,.145-.141l7.893-6.593,5.714-7.384,2.088-8.511-.089-.178L165.2,22.787l-.36-.068-1.465.218-5.947,2.418-4.6,2.914-5.089,4-3.417,2.471-6.2,3.728a1.345,1.345,0,0,1-.342.145l-5.624,1.47a1.072,1.072,0,0,1-.166.033l-1.948.248a1.089,1.089,0,0,1-.213.01l-6.72-.244a1.22,1.22,0,0,1-.286-.042l-6.123-1.617a1.2,1.2,0,0,1-.147-.049l-5.824-2.3L105,33.376,99.432,30.31,94.006,26.9l-5.3-3.653-5.234-3.691L81.643,18.4l-3.487-2.029L72.59,13.757l-5.762-2.195-5.9-1.9L54.878,7.944,30.74.624,24.659-1,18.529-2.06l-6.753-.061L3.429,3.141ZM-3.2,10.813l.009-.019L.7,2.244a1.281,1.281,0,0,1,.3-.416l.739-.69A1.314,1.314,0,0,1,1.927.992l8.665-5.461a1.268,1.268,0,0,1,.459-.18l.581-.108a1.3,1.3,0,0,1,.26-.023l6.779.1a1.156,1.156,0,0,1,.2.019l6.345,1.105L31.451-1.9,55.608,5.429l8.033,2.315L67.711,9.1l5.907,2.254,5.755,2.706L83,16.161l1.929,1.213,10.519,7.336,5.311,3.343,5.442,2.993,5.582,2.67,5.669,2.238,5.907,1.561,6.467.234,1.758-.225,5.362-1.4,5.943-3.57,3.282-2.38,5.156-4.04,4.8-3.052a1.24,1.24,0,0,1,.208-.108l6.2-2.521a1.275,1.275,0,0,1,.3-.082l1.838-.274a1.318,1.318,0,0,1,.438.009l.777.15a1.24,1.24,0,0,1,.374.133l4.85,2.6a1.317,1.317,0,0,1,.552.566l.492.979a1.307,1.307,0,0,1,.1.9l-2.27,9.25a1.325,1.325,0,0,1-.236.489l-5.931,7.661a1.083,1.083,0,0,1-.093.108l-.131.134a1.318,1.318,0,0,1-.1.1l-7.838,6.54L152.2,53.658l-3.181,3.183-4.182,8.064-2.664,8.859-.843,4.953-.9,4.395-.634,9.772.328,4,1.11,6.591,1.048,3.551,3.6,6.8,4.463,4.669,5.1,3.328,5.625,2.5,5.833,1.99,5.983,1.826,5.964,2.141a1.521,1.521,0,0,1,.18.08l5.526,2.986a1.351,1.351,0,0,1,.3.222l4.77,4.725a1.281,1.281,0,0,1,.285.421l3.24,7.633a1.366,1.366,0,0,1,.1.506l0,.609a1.077,1.077,0,0,1-.016.211l-1.442,9a1.264,1.264,0,0,1-.112.356l-2.725,5.709-1.613,2.764a1.249,1.249,0,0,1-.086.127l-4.288,5.659-1.648,2.043a.991.991,0,0,1-.108.119l-7.3,7.062-2.938,2.4-6.13,4.124-3.452,1.891-8.557,3.639-14.194,3.9-1.372.456-8.1,3.284-1.9,1.178-8.1,6.629-7.782,6.814-3.113,2.354-5.886,4.11q-.068.045-.141.084l-3.567,1.873L90.5,226.6a1.278,1.278,0,0,1-.157.052l-.206.056a1.374,1.374,0,0,1-.189.035l-7.178.812a1.229,1.229,0,0,1-.253.005l-6.594-.529a1.273,1.273,0,0,1-.314-.065l-5.952-2.01a1.4,1.4,0,0,1-.313-.154l-5.283-3.546a1.381,1.381,0,0,1-.2-.164L59.115,216.3a1.448,1.448,0,0,1-.108-.124l-3.492-4.539a1.5,1.5,0,0,1-.147-.243l-.707-1.505-3.181-8.578-.752-2.3a1.314,1.314,0,0,1-.065-.386l-.171-10.312a1.264,1.264,0,0,1,.066-.435l2.972-8.948a1.426,1.426,0,0,1,.152-.311l5.29-7.941,6.123-7.693,5.18-7.7,3-8.431-1-9.435-.182-.7-3.412-5.721-4.391-5.383-4.615-4.662-4.9-4.365-9.922-8.52L39.9,103.716l-2.252-2.134-2.6-2.6-4.669-5.088-4.543-5.367-2.656-3.574c-.028-.038-.054-.079-.08-.12l-1.543-2.652-3.745-7.211L16.08,71.479l-1.793-4.295L7.172,52.272,3.394,45.264l-3.429-7.89-1.683-4.445a1.32,1.32,0,0,1-.047-.148L-2.948,28l-1.02-6.523a1.3,1.3,0,0,1-.014-.272l.433-7.989.251-2.044a1.292,1.292,0,0,1,.1-.361" transform="translate(3.983 4.78)" fill="#ebebeb"/></g></g></g></g><g transform="translate(36.273 18.069)" opacity="0.848"><g clip-path="url(#h)"><g transform="translate(0 0)" clip-path="url(#i)"><g transform="translate(71.65 53.186)"><path d="M2.459,6.864A1.322,1.322,0,0,1,2.6,6.622L8.159-1.1a1.285,1.285,0,0,1,.257-.267L10.24-2.791a1.053,1.053,0,0,1,.133-.091l7.652-4.592A1.408,1.408,0,0,1,18.3-7.6l1.28-.407a1.27,1.27,0,0,1,.2-.045l7.251-1.135a1.23,1.23,0,0,1,.227-.016l6.7.122a1.3,1.3,0,0,1,.166.016l6.355.925,1.353.307,4.875,1.262,2.692.794a1.31,1.31,0,0,1,.885,1.627,1.316,1.316,0,0,1-1.627.883l-2.65-.782L40-5.567,33.83-6.461l-6.509-.12-7.04,1.1-1.041.332L11.789-.678,10.176.582,4.816,8.02,1.49,16.406-.359,25.528l-.182,2.465-.136,7.3.62,6.905.649,3.609,1.645,6.362,1.816,5.1,1.24,3.157,4.353,9.3,9.964,19.713L23.3,96.4l3.9,6.491,4.569,6.717,3.665,5.241,6.935,9.51a1.526,1.526,0,0,1,.1.159l6.879,13.138a1.279,1.279,0,0,1,.14.473l1.02,10.589a1.311,1.311,0,0,1-.056.513L47.64,158.15a1.3,1.3,0,0,1-.084.2l-4.251,8.29-3.792,8.279-2.044,8.927.328,9.95L40.95,205.07l5.105,10.067,1.456,2.748,2.465,3.337,4.321,5.522,5.416,6.477,3.583,3.539,4.8,4.372,4.955,3.944,5.1,3.3L82.2,250.36l1.351.564,5.817,1.728,6.193.794,6.668-.232,2.336-.395,4.908-1.289,7.951-3.078,9.772-5.678,8.944-6.2,9.416-6.378,8.908-4.826,1.491-.665,6.848-2.711,7.977-2.748,8.176-3.345,1.369-.723,7.911-5.624.643-.576,6.947-7.034,4.4-4.6,8.9-9.837,6.294-7.361,5.487-7.555,4.353-8.01,2.68-8.637.211-7.169-.216-2.469-2.366-6.324-3.714-6.271-4.541-4.738-4.869-3.93-5.273-3.2-11-5.514-5.432-3.342a1.1,1.1,0,0,1-.208-.161l-4.8-4.5a1.308,1.308,0,0,1-.166-.189l-.159-.22a1.331,1.331,0,0,1-.115-.192l-3.436-7.055a1.313,1.313,0,0,1-.11-.333l-.925-4.981a1.268,1.268,0,0,1-.01-.4l1.185-9.622a1.3,1.3,0,0,1,.089-.335l3.529-8.6a1.192,1.192,0,0,1,.108-.2l5.049-7.942,5.91-7.693,6.2-7.485,6.085-7.485,5.842-7.471,2.163-3.8,2.369-3.977.138-1.412-2.917-7.511-4.866-3.04L206.1,15.922l-5.714-2.289-5.77-1.72-6.156-.831-6.694.41-5.035,1.268-2.446.922-8.9,4.129-8.244,4.527-2.287,1.053-6.278,2.98a1.386,1.386,0,0,1-.215.08l-7.686,2.079a1.372,1.372,0,0,1-.22.035l-6.991.534a1.21,1.21,0,0,1-.286-.009l-6.362-.911a1.2,1.2,0,0,1-.234-.056l-5.894-1.987a1.5,1.5,0,0,1-.189-.082l-5.5-2.89-5.371-3.5-5.217-3.639-5.187-3.272-5.467-2.6L87.962,8.1,82.028,6.4a1.357,1.357,0,0,1-.952-1.622,1.266,1.266,0,0,1,1.547-.931l.1.028L88.76,5.6l5.933,2.1c.044.016.084.033.126.052l5.6,2.668a1.035,1.035,0,0,1,.136.075l5.3,3.345,5.236,3.649,5.231,3.42,5.3,2.778,5.683,1.917,6.1.875,6.736-.517,1.329-.333,6.085-1.673L155.965,20l8.833-4.812,8.48-3.921,2.6-.985a1.025,1.025,0,0,1,.141-.045l5.226-1.315a1.239,1.239,0,0,1,.239-.037l6.944-.428a1.557,1.557,0,0,1,.255.01l6.383.862a1.284,1.284,0,0,1,.2.044l5.98,1.788,5.868,2.347,5.716,2.505A1.513,1.513,0,0,1,213,16.1l5.315,3.321a1.3,1.3,0,0,1,.527.637l3.19,8.208a1.3,1.3,0,0,1,.082.6l-.2,2.015a1.291,1.291,0,0,1-.18.543l-2.505,4.2-2.2,3.86a1.556,1.556,0,0,1-.1.159l-5.915,7.565-7.762,9.528-4.529,5.444-5.812,7.558-4.922,7.748-3.419,8.333-1.14,9.246.854,4.6,3.33,6.821,4.609,4.328,5.217,3.216,11,5.51,5.439,3.295a1.331,1.331,0,0,1,.143.1l5,4.038a1.523,1.523,0,0,1,.124.112l4.649,4.852a1.1,1.1,0,0,1,.093.11l.286.372a1.154,1.154,0,0,1,.091.136l3.619,6.188a1.445,1.445,0,0,1,.1.2l2.469,6.6a1.306,1.306,0,0,1,.077.346l.237,2.724a.862.862,0,0,1,0,.15l-.218,7.424a1.316,1.316,0,0,1-.058.349l-2.771,8.932a1.445,1.445,0,0,1-.1.237l-4.457,8.2a1.175,1.175,0,0,1-.091.145l-5.6,7.7-6.385,7.469-8.941,9.889-4.442,4.642-7.778,7.785c-.037.031-.073.063-.112.091l-8.04,5.716a1.139,1.139,0,0,1-.152.093l-1.561.819-8.332,3.412-2.165.8-5.861,1.968-8.087,3.267-8.944,4.866-9.266,6.3-9.685,6.659-9.058,5.215c-.026.016-.161.084-.187.1L110.354,254c-.047.017-.093.031-.141.045l-5.095,1.33-2.533.433a1.156,1.156,0,0,1-.173.017l-6.862.237a1.248,1.248,0,0,1-.213-.009l-6.4-.819a1.419,1.419,0,0,1-.208-.044l-5.985-1.779c-.045-.014-.089-.03-.133-.047l-1.489-.623-4.19-2.053a1.177,1.177,0,0,1-.136-.077L71.523,247.2,66.4,243.125l-4.906-4.466-3.687-3.644-1.1-1.252-4.452-5.374-4.367-5.583-2.546-3.443a1.23,1.23,0,0,1-.1-.164l-1.512-2.853L38.552,206.13a1.165,1.165,0,0,1-.093-.234l-3.228-11.539a1.375,1.375,0,0,1-.047-.306l-.337-10.3a1.3,1.3,0,0,1,.031-.328l2.111-9.22a1.875,1.875,0,0,1,.086-.253L40.95,165.5l4.227-8.243,2.7-8.559-.967-10.058L40.2,125.831l-6.9-9.459-4.171-5.924L24.988,104.3,20.639,97l-3.354-6.36L6.38,69.028l-3.5-7.572L1.6,58.188-.265,52.94l-1.7-6.57-.684-3.818-.641-7.09c0-.045-.005-.094-.005-.141l.138-7.446.194-2.621a1.28,1.28,0,0,1,.023-.164l1.887-9.316a1.486,1.486,0,0,1,.066-.223L2.443,6.9c.005-.014.01-.024.016-.038" transform="translate(3.296 9.202)" fill="#ebebeb"/></g></g></g></g><g transform="translate(43.41 21.341)" opacity="0.47"><g clip-path="url(#j)"><g transform="translate(0.001 0)" clip-path="url(#k)"><g transform="translate(70.216 50.071)"><path d="M5.768,3.217-.144,10.372-3.5,18.705l-1.543,9.243-.072,6.273.234,3.7,1.4,7.848L-2.6,48.9l1.968,5.58,3.342,7.694L9.953,76.6l4.908,10.24,2.285,4.381,3.787,6.821,1.252,2.05,2.748,4.129,4.248,5.66L45.7,130.566a1.442,1.442,0,0,1,.119.173l4.756,8.248,2.766,5.22a1.326,1.326,0,0,1,.15.557l.161,3.735.093,6.586a1.289,1.289,0,0,1-.11.548l-3.776,8.529a1.65,1.65,0,0,1-.087.164l-5,8-4.169,8.07-2.146,8.88.286,9.968,3.162,11.286,2.593,4.9,4.644,8.213,3.336,4.068,4.5,5.151,4.635,4.777,3.4,2.937,1.372,1.07,5.29,3.254.688.33,4.754,1.99,5.922,1.481.831.079,5.556.131,7.026-.978,5-1.386,2.65-1.028,8.438-4.19,9.51-6.441,9.966-7.275,7.771-4.828,1.577-.824,8.461-3.726,1.809-.683,12.651-4.674,1.77-.784,8.735-4.861,7.623-6.422,3.123-2.931,3.916-4.045,6.694-7.23,6.14-7.422,5.212-7.663,3.806-8.218,1.664-9.072-.293-2.886-2.17-7.853-.445-.828-4.176-5.494-4.695-4.236-5.17-3.239-5.54-2.675-5.65-2.486-5.638-2.766c-.049-.024-.1-.051-.143-.08l-5.271-3.469a1.234,1.234,0,0,1-.159-.122l-1.034-.936-3.755-3.834a1.3,1.3,0,0,1-.225-.307l-3.7-7.082a1.364,1.364,0,0,1-.107-.276l-.747-2.855a1.223,1.223,0,0,1-.042-.347l.131-10.116a1.236,1.236,0,0,1,.051-.346l2.666-9.025a1.505,1.505,0,0,1,.1-.237l4.368-8.25a1.292,1.292,0,0,1,.1-.162l5.508-7.775,13.976-17.173,3.827-5.5,4.23-7.883-.1-8.8-.223-.5-3.958-3.506L189.5,20.006l-3.866-1.755-1.653-.485-5.987-1.144-2.263.091-4.464.718-7.9,2.793-1.1.51-7.6,4.286-2.6,1.383-6.378,3.7c-.045.026-.093.049-.141.072l-4.229,1.812-4.084,1.674a1.221,1.221,0,0,1-.262.077L129.6,35.089a1.331,1.331,0,0,1-.3.019l-6.64-.333a1.544,1.544,0,0,1-.2-.028l-6.21-1.313a1.244,1.244,0,0,1-.2-.061l-5.8-2.261a1.338,1.338,0,0,1-.168-.079l-5.447-3.068L94.079,20.781l-5.245-3.211-5.559-2.636-5.741-2.086-5.92-1.8L35.5.609,29.4-.823l-6.181-.869-6.544,0L8.989,1.269ZM-2.484,9.171a1.292,1.292,0,0,1,.19-.311L3.891,1.377a1.283,1.283,0,0,1,.333-.286L7.734-1.031a1.512,1.512,0,0,1,.206-.1L15.889-4.2a1.262,1.262,0,0,1,.262-.07l.173-.03a1.457,1.457,0,0,1,.213-.016l6.779,0A1.081,1.081,0,0,1,23.5-4.3l6.387.9,6.268,1.468L42.247-.191,60.291,5.1,66.339,6.81l6.016,1.728,6.008,1.826,5.922,2.156,5.734,2.713a1.187,1.187,0,0,1,.122.066L95.5,18.581l10.519,7.165,5.267,2.959,5.611,2.189,6.006,1.269,6.376.321,7.083-1.3,3.937-1.615,4.136-1.772,6.353-3.689,2.619-1.392,7.67-4.321,1.3-.6,8.122-2.877a1.336,1.336,0,0,1,.229-.059l4.658-.749c.052-.007.1-.012.155-.014l2.491-.1a1.317,1.317,0,0,1,.3.023l6.257,1.2,1.866.541a1.429,1.429,0,0,1,.171.063l4.023,1.826a1.617,1.617,0,0,1,.143.077l5.353,3.281a1.146,1.146,0,0,1,.185.136l4.253,3.768a1.3,1.3,0,0,1,.326.443l.452,1a1.351,1.351,0,0,1,.113.524l.108,9.411a1.315,1.315,0,0,1-.155.634l-4.426,8.246a1.187,1.187,0,0,1-.079.127l-3.918,5.634-4.222,5.309-3.651,4.391-6.123,7.5-5.4,7.628-.3.587-3.982,7.5-2.574,8.707-.126,9.758.665,2.54,3.544,6.778,3.562,3.642.9.812,5.121,3.366,5.512,2.706,5.643,2.483,5.646,2.727a1.063,1.063,0,0,1,.124.068l5.33,3.336a1.572,1.572,0,0,1,.183.138l4.869,4.395a1.33,1.33,0,0,1,.164.18l4.314,5.674a1.259,1.259,0,0,1,.11.173l.564,1.046a1.231,1.231,0,0,1,.108.272l2.24,8.1a1.46,1.46,0,0,1,.04.215l.323,3.179a1.314,1.314,0,0,1-.014.37l-1.728,9.419a1.069,1.069,0,0,1-.1.313l-3.921,8.466a1.142,1.142,0,0,1-.1.187l-5.344,7.85-6.27,7.579-6.757,7.3-3.982,4.11-3.221,3.022L176,209.584l-8.775,4.854-1.945.866-14.458,5.357-8.319,3.661-1.412.739-7.621,4.732-1.721,1.219-8.653,6.374-9.288,6.243-8.641,4.285-2.82,1.1a1.147,1.147,0,0,1-.124.042l-5.145,1.426a1.536,1.536,0,0,1-.169.035l-7.218,1a1.436,1.436,0,0,1-.213.012l-5.753-.138L82.7,251.3a1.254,1.254,0,0,1-.194-.033l-6.114-1.528a1.417,1.417,0,0,1-.189-.065l-4.876-2.039c-.024-.01-.049-.021-.072-.033l-.838-.41-5.46-3.352c-.04-.026-.08-.052-.119-.082L63.356,242.6,59.82,239.54l-4.763-4.906L50.483,229.4l-3.427-4.173a1.489,1.489,0,0,1-.112-.162l-.913-1.533L42.2,216.681l-2.675-5.053a1.344,1.344,0,0,1-.1-.255l-3.244-11.586a1.365,1.365,0,0,1-.049-.323l-.293-10.289a1.344,1.344,0,0,1,.035-.346l2.224-9.2a1.462,1.462,0,0,1,.11-.3l4.3-8.3,5-8.012,3.623-8.181-.089-6.259-.147-3.4-2.6-4.918L43.6,132.129,27.113,111.49l-4.319-5.755L19.976,101.5l-1.308-2.141-3.829-6.9L12.509,88l-1.332-2.89L3.985,70.527-.226,62.073l-2.848-6.636L-5.1,49.689l-.934-3.343-1.44-8.04a1.378,1.378,0,0,1-.017-.148l-.243-3.869.07-6.472a1.28,1.28,0,0,1,.019-.2l1.584-9.484a1.345,1.345,0,0,1,.077-.272L-2.5,9.2l.014-.033" transform="translate(7.732 4.313)" fill="#ebebeb"/></g></g></g></g><g transform="translate(23.298 10.318)" opacity="0.739"><g clip-path="url(#l)"><g transform="translate(-0.001)" clip-path="url(#m)"><g transform="translate(73.991 61.498)"><path d="M2.943,8.822a1.141,1.141,0,0,1,.094-.176L8.025.742A1.246,1.246,0,0,1,8.231.491L14.11-5.063l1.674-1.344a1.386,1.386,0,0,1,.262-.161L23.169-9.9a1.6,1.6,0,0,1,.2-.073l5.065-1.439c.056-.014.112-.026.169-.035l2.429-.353a1.068,1.068,0,0,1,.168-.014l.725-.01a1.307,1.307,0,0,1,1.329,1.289,1.309,1.309,0,0,1-1.289,1.33l-.639.01-2.261.326L24.186-7.487,17.3-4.264,15.824-3.089,10.152,2.28,5.319,9.936,2.045,18.35-.086,27.324l-1.2,9.421-.038,9.943L-.979,51,.044,57.146l1,4.4,2.818,8.763,3.214,7.893,1.1,2.317,2.32,5.182,3.956,7.57,3.363,6.306,4.03,6.947,3.59,6.35,4.658,7.263c.024.038.047.077.07.115l6.921,13.095a1.249,1.249,0,0,1,.124.375l1.842,10.91a1.289,1.289,0,0,1-.012.433L37.2,154.346a1.292,1.292,0,0,1-.072.243l-3.509,8.546-3.644,8.421L27.506,180.3l-.407,9.549,1.886,8.176.7,2.727,6.245,12.628L43.766,224.9l1.941,2.725,2.285,2.715,4.489,5.027,4.58,4.815,4.627,4.621,4.793,4.386,4.854,4.192,4.96,3.881,5.119,3.441,5.261,2.835,5.57,2.228,5.872,1.472,6.25.588,6.711-.41,1.983-.386,5.308-1.456,7.989-3.218,9.405-5.255,9.292-6.008,9.549-5.982L162.471,241a1.125,1.125,0,0,1,.124-.056l3.082-1.224,5-1.863,8.817-2.334,6.568-2.231,5.194-2.441,3.359-2.348,4.445-3.995,7.818-9.018,4.412-5.648,6.366-7.371,6.532-7.253,6.324-7.3,5.755-7.478,4.821-7.764,3.836-8.194,2.334-8.768.066-2.177-.665-7.684-1.088-2.986-3.583-6.9-1.716-2.612-2.38-3.038-4.44-5.067-4.608-4.67-4.937-4.2-4.911-3.471-5.187-3.4-5.091-4.012a1.35,1.35,0,0,1-.241-.248l-4.234-5.706a1.3,1.3,0,0,1-.189-.361l-.772-2.284a1.344,1.344,0,0,1-.068-.464l.339-9.924a1.431,1.431,0,0,1,.115-.492l3.8-8.421a1.264,1.264,0,0,1,.113-.2l5.318-7.761,6.081-7.535,6.547-7.3,13.84-14.179,6.088-7.111,3.09-7.811-3-5.364-4.979-2.944-2.247-1.035-3.328-.468-12.468-2.367-6.147-1.435-2-.557-2.722-.672a1.31,1.31,0,0,1,.63-2.542l4.74,1.234,6.041,1.411L235.418,13.3l3.459.485a1.358,1.358,0,0,1,.367.107l2.481,1.147a1.065,1.065,0,0,1,.117.061l5.343,3.157a1.289,1.289,0,0,1,.477.487l3.473,6.216a1.3,1.3,0,0,1,.077,1.119l-3.4,8.594a1.228,1.228,0,0,1-.223.372L241.3,42.379,227.435,56.588l-6.463,7.2L215,71.191l-5.191,7.581-3.649,8.078-.32,9.426.627,1.863,4.007,5.4,4.862,3.838,5.131,3.361,5.154,3.633c.042.028.082.059.12.091l4.887,4.2,4.738,4.8,4.539,5.18,2.488,3.181,1.818,2.755c.024.038.047.077.068.117l3.652,7.04a1.329,1.329,0,0,1,.068.154l1.177,3.228a1.262,1.262,0,0,1,.073.335l.686,7.932a1.129,1.129,0,0,1,.005.154l-.075,2.4a1.207,1.207,0,0,1-.044.3l-2.4,9.028a1.262,1.262,0,0,1-.08.218l-3.92,8.368a1.017,1.017,0,0,1-.073.136l-4.927,7.928-1.8,2.4-4.089,5.261-6.38,7.37-6.537,7.265-6.3,7.295-4.395,5.627-1.528,1.842-6.413,7.319a1.331,1.331,0,0,1-.11.112l-4.562,4.1a1.417,1.417,0,0,1-.126.1l-3.516,2.458a1.2,1.2,0,0,1-.194.113L187.1,235.7a1.057,1.057,0,0,1-.136.054l-6.748,2.287-1.184.3-7.569,2.018-7.843,3-8.618,4.532L145.8,253.72l-9.351,6.03-9.641,5.3-7.544,2.991c-.044.017-.089.031-.134.045l-5.472,1.5-2.165.426a1.389,1.389,0,0,1-.171.023l-6.9.421a1.312,1.312,0,0,1-.2,0l-6.451-.608a1.45,1.45,0,0,1-.194-.033l-6.055-1.517a1.577,1.577,0,0,1-.168-.056l-5.721-2.287a1.337,1.337,0,0,1-.134-.063l-5.439-2.938-5.3-3.563-5.086-3.976-4.929-4.257-5.4-4.953-4.155-4.185-4.627-4.866-4.543-5.089-2.376-2.827L41.619,226.4l-7.9-11.63a1.542,1.542,0,0,1-.091-.154l-6.345-12.833a1.421,1.421,0,0,1-.094-.253l-.746-2.89-1.929-8.374a1.285,1.285,0,0,1-.033-.337l.091-2.888.33-7.02a1.255,1.255,0,0,1,.047-.293l2.532-8.972a1.155,1.155,0,0,1,.059-.164l3.668-8.478,3.45-8.4,1.748-9.077-1.748-10.271-.1-.2-6.68-12.623-.683-1.023-4.005-6.291-3.824-6.741-3.839-6.633L11.8,93.888l-3.67-7.041L4.676,79.26,1.4,71.215.753,69.251l-2.238-7.015-1.039-4.588-1.053-6.331-.368-4.529.073-10.594,1.2-9.273a1.247,1.247,0,0,1,.026-.136l2.168-9.128a1.628,1.628,0,0,1,.052-.173L2.924,8.869c.005-.016.012-.031.019-.047" transform="translate(3.945 11.827)" fill="#ebebeb"/></g></g></g></g><g transform="translate(73.719 67.863)" opacity="0.966"><g clip-path="url(#n)"><g transform="translate(-0.001)" clip-path="url(#o)"><g transform="translate(62.448 10.158)"><path d="M3.181,1.762-1.531,9.08l-.113,9.669.358,1.4L1.685,28.9l.574,1.479,3.022,5.6L8.908,43.5l3.738,7.057,2.484,6,.941,1.98L21.063,69.3l2.322,3.57,4.269,5.755,4.559,5.587,4.672,4.019,5.044,4.03,5.128,3.874,10.364,7.625,5.13,3.989,5.107,4.089,4.929,4.69a1.177,1.177,0,0,1,.143.164l4.332,5.784a1.153,1.153,0,0,1,.126.2l1.189,2.4a1.353,1.353,0,0,1,.091.234l1.781,6.514a1.564,1.564,0,0,1,.037.18l.615,4.8a1.29,1.29,0,0,1,0,.367l-1.5,9.62a1.419,1.419,0,0,1-.1.33l-3.815,8.613a1.672,1.672,0,0,1-.087.166l-5.06,8.071L64.757,171.9l-4.784,7.9-2.465,8.728,1.051,9.077.337,1.184,3.309,4.833,4.693,3.9,5.568,1.795,6.509-.03,2.643-.6,5.035-2.193,5.379-3.186,4.506-4.283,2.528-2.572,4.625-7.876,2.165-8.934-.054-1.877-.131-8.319.5-8.382.227-1.769a1.406,1.406,0,0,1,.136-.433l3.2-6.184,1.322-2.21a1.309,1.309,0,0,1,.349-.384l8.735-6.4.784-.733a1.309,1.309,0,0,1,2.116.482l.484,1.245,3.4,4.972a1.29,1.29,0,0,1,.229.723l.087,6.731.739,6.98.7,3.5,2.2,3.9,5,2.526,6.282.225,1.405-.326,6.142-2.053,5.559-2.809,3.31-2.373,4.6-4.106,5.6-7.4,1.886-8.716-1.327-3.359-4.546-3.989-5.536-2.167-6.167-1.3-12.81-1.809a.961.961,0,0,1-.141-.026l-.223-.056-6.408.609a1.312,1.312,0,0,1-.917-.264l-5.147-3.909a1.316,1.316,0,0,1-.517-1.06l.017-1.461-3.319-5.585a1.355,1.355,0,0,1-.145-.349l-1.641-6.535-1.069-2.7a1.158,1.158,0,0,1-.061-.2l-1.945-8.819-.321-1.795-.971-9.173-.232-10.474.248-10.142-.756-10.565-.335-1.969-3.371-7.424L111,49.208,108.681,47l-4.943-4.2-5.072-3.942-17.049-12.6-3.712-2.341L72.516,20.6,67.1,17.549,61.457,14.9l-5.772-2.257L29.718,3.721l-3.79-1.049-6.16-1.463L13.582.261,6.911.542Zm-7.218,6.4a1.278,1.278,0,0,1,.1-.187L1.231-.046a1.306,1.306,0,0,1,.693-.536L6.27-2a1.325,1.325,0,0,1,.351-.065l6.977-.3a1.379,1.379,0,0,1,.255.014l6.418.988L26.581.135l3.9,1.082,2.27.758L56.591,10.19l5.9,2.306,5.767,2.7c.03.014.059.03.086.044l5.5,3.1L83.1,24.1l17.15,12.667,5.142,4,5.041,4.29,2.455,2.34a1.229,1.229,0,0,1,.147.168l2.179,2.937a1.361,1.361,0,0,1,.14.239l3.5,7.7a1.338,1.338,0,0,1,.1.325l.381,2.264.786,11.006-.257,10.009.223,10.317.952,8.962.3,1.65,1.91,8.667,1.062,2.677a1.352,1.352,0,0,1,.052.162l1.617,6.432,3.412,5.741a1.307,1.307,0,0,1,.183.684l-.014,1.168,4.213,3.2,6.121-.581a1.306,1.306,0,0,1,.443.035l.374.093,12.843,1.816,6.353,1.341a1.214,1.214,0,0,1,.206.061l5.852,2.289a1.288,1.288,0,0,1,.386.236l4.957,4.349a1.3,1.3,0,0,1,.354.5l1.592,4.023a1.307,1.307,0,0,1,.061.758l-2.032,9.39a1.282,1.282,0,0,1-.236.512L165.2,164.26a1.338,1.338,0,0,1-.173.185l-4.745,4.239c-.035.03-.072.059-.108.087l-3.448,2.472a1.327,1.327,0,0,1-.173.1l-5.735,2.9a1.2,1.2,0,0,1-.176.072l-6.355,2.118-1.688.4a1.345,1.345,0,0,1-.344.033l-6.743-.243a1.284,1.284,0,0,1-.543-.14l-5.617-2.832a1.319,1.319,0,0,1-.55-.526l-2.5-4.435a1.37,1.37,0,0,1-.145-.388l-.758-3.825-.765-7.219-.089-6.455-3.237-4.728-8.14,5.964-1.147,1.912-3.054,5.908-.189,1.451-.489,8.192.192,10.238a1.273,1.273,0,0,1-.037.346l-2.251,9.294a1.269,1.269,0,0,1-.143.354l-4.807,8.181a1.376,1.376,0,0,1-.194.257l-2.675,2.717-4.646,4.415a1.218,1.218,0,0,1-.234.178l-5.577,3.305c-.047.026-.1.051-.145.073l-5.22,2.273a1.183,1.183,0,0,1-.23.075l-2.905.663a1.2,1.2,0,0,1-.285.031l-6.863.033a1.346,1.346,0,0,1-.407-.063l-6.006-1.935a1.292,1.292,0,0,1-.435-.239l-5.032-4.182a1.308,1.308,0,0,1-.243-.267L56.614,200.1a1.3,1.3,0,0,1-.178-.382l-.424-1.493a1.368,1.368,0,0,1-.042-.208l-1.093-9.439a1.3,1.3,0,0,1,.04-.506l2.584-9.147a1.365,1.365,0,0,1,.141-.323l4.925-8.131,5.59-7.939,4.971-7.932,3.707-8.37,1.442-9.266-.581-4.525-1.723-6.3-1.081-2.181-4.194-5.6-4.763-4.538L60.6,109.562l-4.766-3.715L45.493,98.236,40.321,94.33l-5.109-4.084-4.751-4.087a1.022,1.022,0,0,1-.1-.094l-.253-.267-4.524-5.566-4.351-5.866-2.416-3.714a1.193,1.193,0,0,1-.086-.154l-1.507-3.186L12.737,57.62l-2.458-5.948L6.588,44.716,2.949,37.168-.085,31.55a1.471,1.471,0,0,1-.07-.15l-.62-1.606-3.02-8.9-.428-1.664a1.242,1.242,0,0,1-.042-.339l.12-10.221a1.324,1.324,0,0,1,.108-.506" transform="translate(4.265 2.363)" fill="#ebebeb"/></g></g></g></g><g transform="translate(131.366 80.776)" opacity="0.455"><g clip-path="url(#p)"><g transform="translate(0)" clip-path="url(#q)"><g transform="translate(21.774 8.011)"><path d="M4.107,1.123l-6.994,1.06.066,9.161,1.507,2.907,3.649,7.471,1.074,2.42,2.684,4.527a1.5,1.5,0,0,1,.084.168l3.466,8.381,3.513,7L15.7,50.073l.992,1.481,4.375,5.517,4.545,5.212L29.4,66.1l.856.646,5.273,3.474,5.393,3.284,21.821,12.96,3.4,2.408,1.821.47a1.283,1.283,0,0,1,.18.061L73.5,91.655l6.968-2.333,1.9-8.745.667-9.84L82.929,68.3l-.8-8.057-.8-3.8L79.34,48.935l-.714-1.6L73.094,36.144l-2-2.322L66.4,29.009l-4.868-4.415L56.513,20.51l-5.166-3.736-1.091-.656-4.311-2.257-5.638-2.6L34.5,8.882,27.557,6.259l-4.88-1.465-6.1-1.744-6.1-1.362ZM-5.4.81A1.3,1.3,0,0,1-4.74.14l.91-.412a1.253,1.253,0,0,1,.346-.1L3.87-1.491A1.323,1.323,0,0,1,4.18-1.5L10.8-.913a1.448,1.448,0,0,1,.171.026l6.259,1.4,6.186,1.769,4.972,1.493,1.166.426,5.912,2.245,5.863,2.4.051.023,5.723,2.64,4.442,2.327,1.25.754,5.315,3.841,5.135,4.175,4.979,4.517,4.808,4.932,2.158,2.507a1.338,1.338,0,0,1,.18.272l5.627,11.382.78,1.749a1.3,1.3,0,0,1,.068.2l2.036,7.679.833,3.934c.009.045.017.094.023.141l.807,8.2.119,2.579q0,.073,0,.147l-.679,10.011a1.213,1.213,0,0,1-.028.192L82.924,90.4a1.285,1.285,0,0,1-.267.594l-.141.178a1.311,1.311,0,0,1-.608.426L73.866,94.3a1.32,1.32,0,0,1-.922-.035l-5.725-2.4-1.959-.506a1.312,1.312,0,0,1-.431-.2l-3.5-2.486-5.384-3.139L34.125,72.435l-5.377-3.546-1-.751a1.367,1.367,0,0,1-.141-.122l-3.914-3.953-4.642-5.32L14.576,53.1l-1.123-1.664a1.339,1.339,0,0,1-.112-.21l-2.56-5.9L7.271,38.332a1.01,1.01,0,0,1-.054-.126l-.12-.32-3.3-7.961L1.116,25.41a1.262,1.262,0,0,1-.072-.136L-.039,22.826l-3.614-7.4L-5.291,12.27a1.3,1.3,0,0,1-.147-.592L-5.506,1.332A1.312,1.312,0,0,1-5.4.81" transform="translate(5.506 1.505)" fill="#ebebeb"/></g></g></g></g><g transform="translate(0)" opacity="0.922"><g clip-path="url(#r)"><g transform="translate(0)" clip-path="url(#s)"><g transform="translate(75.843 75.096)"><path d="M4.785,12.013a1.126,1.126,0,0,1,.051-.1l4.379-8.04a1.37,1.37,0,0,1,.129-.192l5.9-7.377a1.468,1.468,0,0,1,.162-.168l4.5-3.927,3.441-2.643a1.489,1.489,0,0,1,.183-.119l5.692-3.022a1.357,1.357,0,0,1,.162-.073L34.91-15.69a1,1,0,0,1,.14-.044l1.344-.332a1.309,1.309,0,0,1,1.584.959,1.311,1.311,0,0,1-.959,1.585l-1.273.313L30.37-11.224,24.853-8.293,21.562-5.768l-4.346,3.8-5.756,7.2L7.177,13.086,3.9,21.516l-2.53,8.719L-.667,39.205l-1.68,9.154-.248,1.727-.869,7.635-.286,10.071.943,9.828.325,2.331,1.594,8.332.377,2.338,1.62,8.475.274,2.505,1.276,8.152a1.14,1.14,0,0,1,.016.157l.127,3.7.941,6.568a1.265,1.265,0,0,1,.012.229l-.222,6.863.232,2.94a1.213,1.213,0,0,1-.007.276l-1.254,9.4a1.093,1.093,0,0,1-.033.164l-3.48,13.17-1.154,4.674-1.357,9.143-.276,9.578,1.772,8.88.5,1.692,2.907,4.969,4.026,5.765,2.128,2.912,2.1,2.114,4.559,4.84,4.436,5.178,3.251,4.072,1.062,1.138,4.461,5.061,4.395,5.2,4.314,5.315,8.7,10.5,4.4,5.016,4.55,4.639,4.677,4.349,14.435,12.407,4.859,4.016,4.929,3.8,5.039,3.5,5.177,3.137,5.344,2.706,5.475,2.141,5.791,1.512,6.121.728,6.519-.162,2.565-.41,4.442-.973,7.776-2.8.648-.314,7.738-4.03,2.467-1.4,15.137-8.676,8.546-4.311,8.157-3.274,7.734-2.4,7.534-1.987,7.656-2.491,3.246-1.411,5.049-2.876,4.117-2.825,6.97-6.7,5.875-7.317,11.106-15,5.907-7.425,5.915-7.272,5.688-7.532,5.4-7.558,5.147-7.665,4.751-7.813,4.285-8,3.462-8.185,2.055-8.728-1.124-10.022-.347-.927-3.668-6.376-5.131-6.189-3.586-3.8-4.517-4.889-4.388-5.323-1.535-2.086L254.634,109l-3.661-7.054-.962-2.137a1.228,1.228,0,0,1-.1-.32l-1.336-7.96-.22-2.769a1.288,1.288,0,0,1,.035-.417l2.226-8.974a1.361,1.361,0,0,1,.133-.332l4.529-7.972a1.144,1.144,0,0,1,.148-.211l3.963-4.576,2.2-2.657L275.43,49.707l5.788-7.223,4.077-7.841,1.922-8.688-.716-6.2-2.113-4.278L283.1,13.933l-4.936-2.91L272.523,9.43l-6.212-.714-1.587-.028a1.309,1.309,0,0,1,.056-2.617l1.713.035,6.43.733a1.257,1.257,0,0,1,.211.042l5.9,1.667a1.337,1.337,0,0,1,.309.131l5.276,3.113a1.354,1.354,0,0,1,.337.286l1.538,1.835a1.342,1.342,0,0,1,.169.262L288.95,18.8a1.355,1.355,0,0,1,.127.43l.766,6.645a1.3,1.3,0,0,1-.021.435l-2.01,9.068a1.306,1.306,0,0,1-.115.321l-4.216,8.11a1.343,1.343,0,0,1-.141.215L277.434,51.4c-.028.035-.059.068-.089.1l-6.877,6.959-6.94,6.93-2.137,2.587-3.9,4.5-4.377,7.7-2.134,8.6.19,2.443,1.294,7.675.863,1.919L256.9,107.7l2.465,3.886,1.44,1.955,4.293,5.21,8.993,9.692,4.363,5.334a1.509,1.509,0,0,1,.122.176l3.775,6.561a1.483,1.483,0,0,1,.091.192l.442,1.18a1.288,1.288,0,0,1,.075.314l1.163,10.371a1.154,1.154,0,0,1,.007.22,1.951,1.951,0,0,1-.037.3l-2.123,9.018a1.323,1.323,0,0,1-.07.213l-3.556,8.394-4.372,8.171-4.819,7.928-5.2,7.741-5.44,7.619-5.674,7.511c-.009.014-.082.108-.093.122l-5.907,7.261-5.87,7.378-11.108,15-5.95,7.413a1.285,1.285,0,0,1-.091.1l-.95.962-6.2,5.912a1.187,1.187,0,0,1-.164.133l-4.295,2.944-5.2,2.966a1.1,1.1,0,0,1-.127.065l-3.426,1.484-7.836,2.553-7.56,2-7.666,2.385-7.867,3.157-8.386,4.232-8.742,4.951-8.848,5.114-8.632,4.457-7.975,2.876a1.1,1.1,0,0,1-.164.047l-4.6,1.006-2.725.436a.985.985,0,0,1-.175.016l-6.7.168a1.326,1.326,0,0,1-.187-.009l-6.3-.749a1.227,1.227,0,0,1-.178-.033l-5.952-1.556q-.073-.021-.147-.047l-5.662-2.223-5.545-2.8-5.332-3.232-5.159-3.583L76.1,276.728l-4.911-4.059-14.5-12.459-4.756-4.424-5.4-5.58-3.715-4.25L33.3,234.49,29.773,230.1l-4.356-5.154-5.522-6.2-3.286-4.108-4.367-5.1L7.75,204.769l-2.144-2.161a1.159,1.159,0,0,1-.127-.15l-2.2-3.015-4.1-5.877-3.043-5.194a1.306,1.306,0,0,1-.129-.3l-.569-1.959L-6.389,177a1.354,1.354,0,0,1-.026-.265L-6.4,174.6l.264-7.726a.838.838,0,0,1,.014-.148l1.392-9.337,2.292-9.095,2.357-8.838,1.224-9.175-.227-2.874a1.36,1.36,0,0,1,0-.145l.22-6.823L.2,113.914a1.252,1.252,0,0,1-.012-.141l-.129-3.694-1.271-8.136-.265-2.462-1.612-8.4-.381-2.338-1.6-8.361-.342-2.453L-6.38,67.418l.307-9.885,1.142-9.6,1.7-9.257,2.072-9.1,2.586-8.9,3.34-8.614c.007-.017.012-.033.019-.049" transform="translate(6.415 16.104)" fill="#ebebeb"/></g></g></g></g><g transform="translate(17.256 7.167)" opacity="0.603"><g clip-path="url(#t)"><g transform="translate(0.001)" clip-path="url(#u)"><g transform="translate(74.65 65.784)"><path d="M3.347,9.476a1.311,1.311,0,0,1,.075-.148L8.169,1.354a1.4,1.4,0,0,1,.161-.215L9.969-.65l5.376-5.273a1.278,1.278,0,0,1,.23-.18l4.962-3.048a1.263,1.263,0,0,1,.152-.08l5.486-2.448a1.235,1.235,0,0,1,.19-.068l2.575-.7c.058-.012.113-.024.171-.033l1.629-.213a1.311,1.311,0,0,1,1.47,1.128,1.313,1.313,0,0,1-1.13,1.47l-1.54.2-2.392.648L21.836-6.876,17.072-3.95l-5.22,5.119-1.5,1.639L5.728,10.574l-3.27,8.414L.079,28.395l-1.308,8.836-.641,9.653v1.208l.618,8.922.513,3.653L1.591,70.5l2.966,8.749,3.026,8.009,1.962,4.155,1.432,3.333,3.619,6.87,1.535,2.619,2.224,4.1,3.82,6.514,1.739,2.788,2.048,4.068,4.931,9.051a1.307,1.307,0,0,1,.122.313l1.638,6.53.99,4.7a1.334,1.334,0,0,1,.017.449l-1.3,9.473a1.282,1.282,0,0,1-.077.292l-3.316,8.6-3.747,8.4-2.682,8.634-.716,9.376,2.324,10.741,6.172,12.539,2.207,3.19,7.4,10.984,5.056,6.345,4.4,5.182,4.484,4.855,4.7,4.513,4.754,4.393,4.794,4.335,4.841,4.185,4.946,3.853,5.1,3.457,5.285,2.961,1.734.833,3.752,1.561,5.7,1.732,6.079.981,1.687.04,4.794-.154,7.1-1.3,4.222-1.334,3.515-1.381,8.375-4.161,8.974-5.381,9.217-5.769.122-.072,8.791-4.948,1.542-.7,6.818-2.893a1.119,1.119,0,0,1,.152-.054l7.644-2.189,7.574-1.955,4.62-1.4,3.033-1.39,6.511-4.166,3.04-2.814,3.714-4.063,11.56-14.917,6.243-7.4,6.49-7.233,6.167-7.338,5.732-7.485,5.023-7.736,4.117-8.021,3.019-8.5.255-1.624.541-7.628-1.227-5.508-2.223-5.611-1.027-1.734-4.086-5.77-4.285-5.381-4.428-5.061-4.536-4.88-4.651-4.553-6.144-5.088L220,103.2a1.239,1.239,0,0,1-.175-.208l-4.084-6a1.328,1.328,0,0,1-.182-.395l-1.215-4.524a1.3,1.3,0,0,1-.012-.625l2.053-9.147a1.277,1.277,0,0,1,.145-.37l4.651-8.017c.026-.042.054-.084.084-.124L226.92,66.2l3.178-3.618,3.178-3.743,6.979-7.1,7.137-6.963,6.631-6.97,4.709-7.548.545-3.909-.634-5.194-1.877-2.406L251.8,15.781l-5.683-1.711-6.984-1.1-6.643-.485a1.31,1.31,0,0,1,.269-2.607l1.06.11,6.484.466,6.326,1.049a1.472,1.472,0,0,1,.162.038l5.919,1.781a1.318,1.318,0,0,1,.3.129l5.309,3.178a1.288,1.288,0,0,1,.361.318l2.252,2.886a1.3,1.3,0,0,1,.267.648l.7,5.725a1.294,1.294,0,0,1,0,.339l-.6,4.354a1.35,1.35,0,0,1-.187.512l-4.925,7.9a1.214,1.214,0,0,1-.164.213l-6.757,7.1L242.1,53.6l-6.893,7.012L232.081,64.3l-3.129,3.553L223.4,75.289l-4.513,7.776-1.94,8.635,1.075,3.995,3.881,5.709,3.349,3.223,1.247.983,4.932,4.134,4.768,4.663,4.6,4.951,4.5,5.147,4.361,5.481,4.189,5.919L255,137.818a1.128,1.128,0,0,1,.089.185l2.3,5.8a1.079,1.079,0,0,1,.061.2l1.292,5.8a1.365,1.365,0,0,1,.026.377l-.566,7.93-.286,1.854a1.232,1.232,0,0,1-.061.236l-3.087,8.695a1.654,1.654,0,0,1-.07.161l-4.218,8.2-1.708,2.684L245.32,185.2l-5.824,7.611-6.345,7.544-6.38,7.108-6.17,7.314-.925,1.236-10.683,13.742-3.857,4.218-3.2,2.97a1.312,1.312,0,0,1-.185.143l-6.687,4.276a1.292,1.292,0,0,1-.161.087l-3.2,1.465a1.352,1.352,0,0,1-.166.063l-4.758,1.44-9.367,2.47-5.758,1.646-8.127,3.488-8.681,4.892-9.391,5.882-9.831,5.844-7.7,3.773-3.694,1.454-4.384,1.386a.965.965,0,0,1-.159.04l-7.272,1.334a1.457,1.457,0,0,1-.194.019l-4.965.157-1.851-.042a1.182,1.182,0,0,1-.176-.016l-6.254-1.011a.958.958,0,0,1-.173-.04l-5.91-1.8-3.939-1.636-1.87-.9-5.454-3.055-5.261-3.563-5.077-3.956-4.908-4.237-4.828-4.367-4.784-4.419L51.3,242.478l-3.883-4.257-4.459-5.247L37.808,226.5l-9.7-14.3a1.008,1.008,0,0,1-.094-.162l-6.292-12.779a1.477,1.477,0,0,1-.1-.3l-2.4-11.083a1.369,1.369,0,0,1-.026-.377l.742-9.716a1.426,1.426,0,0,1,.059-.3l2.743-8.831a.939.939,0,0,1,.058-.152l3.752-8.407,3.237-8.394,1.247-9.1-.931-4.426-1.585-6.317-4.876-8.953-2.008-4-1.7-2.713-3.862-6.582-2.223-4.1-1.543-2.631L8.613,95.87,7.157,92.487,5.173,88.279,2.031,80-.92,71.24l-.723-2.825-1.669-7.274-.545-3.857-.63-9.107,0-1.386.653-9.838L-2.4,27.388-.058,18.26a1.126,1.126,0,0,1,.047-.148L3.328,9.523c.005-.016.012-.031.019-.047" transform="translate(4.487 12.703)" fill="#ebebeb"/></g></g></g></g><g transform="translate(29.569 14.154)" opacity="0.799"><g clip-path="url(#v)"><g transform="translate(0.001)" clip-path="url(#w)"><g transform="translate(72.895 56.982)"><path d="M2.694,7.991A1.293,1.293,0,0,1,2.8,7.8L5.852,3.113l2.2-3.174a1.308,1.308,0,0,1,.265-.281l8.267-6.511a1.317,1.317,0,0,1,.255-.157L17.45-7.3a1.442,1.442,0,0,1,.164-.063l7.8-2.451a1.292,1.292,0,0,1,.23-.051l6.626-.828a.828.828,0,0,1,.131-.01l.475-.012c.052,0,.1,0,.157.005l1.666.159A1.309,1.309,0,0,1,35.88-9.12a1.307,1.307,0,0,1-1.426,1.179l-1.921-.143-6.444.807-8,2.575-7.995,6.3L8.026,4.576,5.065,9.115,1.754,17.53l-.732,3.155L-.2,26.564-1,36.24l.047,4.246.494,5.877,1,5.941,1.309,4.96L3.165,61.5l3.2,7.961L9.8,76.9l3.6,7.151,7.364,13.966,3.811,6.656,3.927,6.413,4.017,6.149,3.525,5.086c.028.042.054.087.08.133l4.223,8.007,2.518,5.053a1.288,1.288,0,0,1,.124.409l.485,3.6.835,7.1a1.306,1.306,0,0,1-.03.473l-2.3,9.105a1.267,1.267,0,0,1-.073.216l-3.778,8.461-3.64,8.391-2.219,8.84.054,9.807.648,2.528,2.355,8.618,6.326,12.7,1.156,1.69,4.161,5.879,5.36,7.076,3.321,3.558,4.639,4.749,4.7,4.628,5.432,4.918,4.3,3.314,5.107,3.309,5.39,2.715,5.671,2.018,6,1.231,2.8.173,3.59,0,7.022-1.049,5.816-1.673,1.784-.683,9.124-4.447,9.4-5.938,9.1-6.161,8.628-5.245,1.283-.658,7.3-3.368L170.8,229l7.82-2.409,2.058-.73,6.111-3.1,3.572-2.472,7.193-6.774,6.289-7.329L216.9,191.618l6.867-7.942,5.137-6.849,4.683-7.885,3.368-8.367,1.411-9.156-.072-.716-2.413-9.9-3.712-5.964-4.246-5.419-4.6-4.672-4.845-3.864-5.226-3.3-5.367-2.958-5.39-3.2a1.433,1.433,0,0,1-.168-.117l-4.955-4.094a1.411,1.411,0,0,1-.248-.272l-3-4.41a1.357,1.357,0,0,1-.136-.253l-.868-2.179a1.332,1.332,0,0,1-.086-.347l-.91-8.7a1.332,1.332,0,0,1,.037-.47l2.4-9.063a1.257,1.257,0,0,1,.122-.306l4.555-8.126a1.579,1.579,0,0,1,.086-.134l5.611-7.663,6.207-7.49,6.423-7.347,6.682-7.225,6.139-7.272,4.44-7.509-1.179-5.714-4.5-3.41-5.687-1.87-5.966-1.578-6.016-1.728-6.717-2.141a1.309,1.309,0,1,1,.719-2.518l.812.232,5.95,1.921,5.948,1.708,6.013,1.6,5.968,1.959a1.359,1.359,0,0,1,.382.2l5.067,3.838a1.317,1.317,0,0,1,.492.779l1.378,6.694a1.294,1.294,0,0,1-.154.931l-4.754,8.038a1.316,1.316,0,0,1-.127.178l-6.247,7.4-6.7,7.242-6.359,7.272-6.153,7.422-5.517,7.539-4.433,7.909-2.291,8.672.864,8.279.747,1.877,2.82,4.136,4.733,3.911,5.267,3.125,5.4,2.977,5.351,3.375a.986.986,0,0,1,.12.084l5,4,1.43,1.386,3.366,3.473c.03.033.059.068.089.1l4.332,5.529a1.048,1.048,0,0,1,.08.115l3.81,6.121a1.226,1.226,0,0,1,.1.2l.127.318a1.3,1.3,0,0,1,.059.182l2.406,9.959a1.242,1.242,0,0,1,.03.176l.1.972a1.227,1.227,0,0,1-.009.33l-1.46,9.472a1.382,1.382,0,0,1-.079.288l-3.462,8.6a.9.9,0,0,1-.089.178l-4.77,8.031a1.329,1.329,0,0,1-.079.115l-5.725,7.626-6.456,7.391-13.046,14.552-6.7,7.78-7.034,6.577a1.1,1.1,0,0,1-.15.119l-3.724,2.579a1.538,1.538,0,0,1-.152.093l-6.266,3.181a1.376,1.376,0,0,1-.157.068l-2.191.775-7.829,2.413-7.886,2.734-8.295,3.888-9.056,5.521-9.535,6.455-9.316,5.8-8.585,4.129-1.989.759-6,1.732a1.358,1.358,0,0,1-.168.037l-7.205,1.076a1.21,1.21,0,0,1-.194.016l-3.769,0-2.968-.182a1.3,1.3,0,0,1-.182-.026l-6.186-1.266a1.244,1.244,0,0,1-.175-.051l-5.835-2.074a1.633,1.633,0,0,1-.15-.065l-5.526-2.785a1.068,1.068,0,0,1-.122-.072l-5.255-3.408-5.149-3.993-4.873-4.478-4.749-4.676-4.679-4.791-3.41-3.66-1.208-1.522-4.283-5.718-5.412-7.7a1.194,1.194,0,0,1-.093-.157l-6.422-12.9a1.305,1.305,0,0,1-.091-.237l-3.089-11.466a1.3,1.3,0,0,1-.04-.318l-.056-10.128a1.253,1.253,0,0,1,.035-.313l.522-2.172,1.769-6.958a1.016,1.016,0,0,1,.068-.2l3.687-8.5,3.738-8.372,2.209-8.761-1.255-10.2-2.408-4.833-4.171-7.9-3.5-5.053-4.065-6.223L24.563,109.6l-2.231-3.583-3.853-6.729-3.726-7.015L9.941,82.966,7.45,78.045,3.8,70.116.7,62.373-.666,57.986l-1.35-5.133-1.039-6.165-.512-6.081-.045-4.461.8-9.877a1.276,1.276,0,0,1,.024-.161l1.248-5.985.758-3.277a1.338,1.338,0,0,1,.058-.185L2.676,8.033a.426.426,0,0,1,.017-.042" transform="translate(3.611 10.712)" fill="#ebebeb"/></g></g></g></g></g></g></svg>