<svg xmlns="http://www.w3.org/2000/svg" xmlns:xlink="http://www.w3.org/1999/xlink" width="465.572" height="96.961" viewBox="0 0 465.572 96.961"><defs><clipPath id="a"><path d="M0,51.651H465.572V-45.31H0Z" transform="translate(0 45.31)" fill="none"/></clipPath></defs><g transform="translate(-540 -1437)"><g transform="translate(540 1482.31)"><g transform="translate(0 -45.31)" clip-path="url(#a)"><g transform="translate(0 0)"><path d="M.1,20.245c-.84,6.734.867.873,1.07,5.891C.7,27.063-.025,24.944-.112,28.321c-.295,1.308.782,6.5.856,10.912C.5,36.705.064,38,.176,42.293c.184-1.316.309-2.953.555-1.676a14.153,14.153,0,0,1-.222,2.11c.362-1.016.721-2.024.993.308a30.858,30.858,0,0,1-.227,3.942l-.46-3.03.428,3.328c-.319,3.094-.725,6.5.032,8.645-.1.456-.193.627-.282.646.281,2.613.471,8.346,1.027,10.274-.055.231-.106.428-.152.578-.035.064-.07.128-.1.2-.022.03-.043.06-.063.09a.033.033,0,0,0,.016.028,8.606,8.606,0,0,0-.438,2.739c-.014.389-.017.8-.013,1.222.011.608.024,1.235.036,1.875.038,1.288.1,2.6.168,3.856,2-.058,3.993-.118,5.848-.173,1.993-.049,2.9-.088,3.993-.09,2.052-.006,3.4.122,3.377.546l11.174-.086-.254.141c-.7.1-1.078.223,1.392.33-1.622.075-3.082.1-4.459.118,1.486.053,2.919.122,4.27.2-.076-.011-.128-.017-.19-.028l-.038,0,.008-.006c-.357-.056-.474-.09-.073-.058a1.381,1.381,0,0,1,.173-.009.975.975,0,0,1,.373-.169c2.391.092.377.116-.373.169-.027.021-.092.043-.1.066a.184.184,0,0,1,.03,0l8.271-.244c-1.751-.062-3.942-.049-7.828,0a12.955,12.955,0,0,1,1.716-.345,53.648,53.648,0,0,0,8.968-.67c1.651.109.446.257.309.34,1.77.054,3.263.1,4.576.126.618.195,1.324.381,2.074.539.111-.156.132-.3,2.867-.494,3.187-.041,5.67-.255,10.706-.71l.059.034c-.032,0-.065,0-.1,0-.13.092,0,.12.3.116l.649.368c1.17-.148,4.863.047,9.531.21a79.585,79.585,0,0,1-9.7.353c2.409.629,1.221-.071,4.98.663-3.239-.909,13.329.028,8.382-.907H72.4c3.812.828,6.629.353,11.635,1.074-.157-.21-1.787-.4,2.656-.3a9.207,9.207,0,0,1,.974-.184l.3.015c-.089-.009-.154-.015-.244-.026.192-.03.209-.036-.092-.009a13.262,13.262,0,0,1-2.263-.319,16.67,16.67,0,0,1,1.993-.248c5.608-.045,11.776.3,16.971.432a12.12,12.12,0,0,1-2.607.24l5.589.021a83.762,83.762,0,0,0,10.608.169c2.635.1,6.658-.518,4.362-.152l8.765-.289.081.118c8.65.058,17.8-.773,27.693.068,2.911-.118,5.921-.261,10.792-.128l.95.4c3.737-.141,11.226.4,12.832-.017,4.032,1.087,18.143.238,24.718.43l.247-.526c4.525.03,8.865-.12,14.483-.332l-.159-.214,3.855.032-2.019-.381c4.8-.111,11.423.422,18.09.381a16.548,16.548,0,0,1-3.84.024c9.152,1.053,19.311-.764,27.612,0a29.208,29.208,0,0,1,5.015,0c-.192,0-.365.011-.512.026.212,0,.526,0,.85,0,.913.081,1.854.173,2.873.248-.867-.113-1.7-.205-2.418-.248,1.6-.011,4.015-.068,6.387-.186l1.01.5.549-.013c2.326.184,1.871-.238.63-.614,1.192-.081,2.288-.182,3.136-.3,1.89.807,6.222-.272,8.8.588,1.218-.319,7.494-.336,10.976-.715-.011.126.176.263,1.43.387,2.833-.148,5.837-.184,8.949-.167l.109.062.388-.058c2.586.017,5.245.064,7.976.124-.292.058-.658.116-1.112.18.691-.062,1.31-.116,1.876-.163,5.624.128,11.488.274,17.434.19.2-.184-1.944-.462.8-.734l6.758.914c2.527-.09,2.328-1.055,6.947-.422a5.261,5.261,0,0,1-.783-.223c9.407.073,22.235-.045,31.747.426-.56-.238-.629-.36-.385-.413.377,0,.753,0,1.13-.009,2.142.118,6.285.631,6.66.026.855.287,2.9.447.523.7,7.49-.282,11.255.454,16.427-.338.858.289-1.6.419-.84.591a14.025,14.025,0,0,1,3.159-.079c.763.171-1.1.242-2.282.366,5.713-.036,7.592-.537,8.408-1.134,4.349.122,8.689.306,13.008.591-3.449-.355-1.151-.389,1.483-.4-.809-.041-.842-.143-.69-.267,2.394.032,5.049.049,7.134,0l3.92.253c1.814-.64,10.2-.126,12.211-.588l1.116,0L462,77.133l-2.271-.109a10.066,10.066,0,0,1,2.967-.411c-.027-.824.04-1.671.1-2.716.024-.529.049-1.1.078-1.708,0-.276.01-.565.014-.862,0-.268-.008-.546-.013-.832l.108.1c.769-8.192-.368-3.535.509-11.618l-.661.441c-1.425-.753.84-7.16.295-11.851l-.379,1.693a9.364,9.364,0,0,1,.545-4l.687,1.378c-.029-.991-.079-2.052-.136-3.131a19.1,19.1,0,0,0,1.02-3.982c.125-.561.2.886.292,1.669.84-6.734-.869-.873-1.07-5.891.468-.927,1.191,1.192,1.278-2.185.295-1.308-.782-6.5-.858-10.912.241,2.527.682,1.228.569-3.06-.184,1.316-.309,2.953-.555,1.676a14.155,14.155,0,0,1,.222-2.11c-.362,1.016-.721,2.024-.993-.308a30.57,30.57,0,0,1,.227-3.942l.46,3.03L464,14.167c.32-3.094.726-6.5-.03-8.645.1-.456.193-.627.282-.646-.281-2.613-.471-8.346-1.027-10.274.054-.231.106-.428.151-.578.036-.064.071-.128.1-.2.022-.03.041-.06.063-.09a.034.034,0,0,0-.016-.028,8.655,8.655,0,0,0,.438-2.741c.014-.387.017-.8.013-1.22-.011-.608-.024-1.235-.037-1.875-.038-1.288-.1-2.6-.168-3.856l-5.848.173c-1.993.049-2.9.088-3.993.09-2.052.006-3.4-.122-3.377-.546l-11.174.086.254-.141c.7-.1,1.078-.223-1.392-.33,1.622-.075,3.082-.1,4.459-.118-1.486-.053-2.919-.122-4.27-.2l.19.028.038,0-.008.006c.355.056.473.09.071.058a1.34,1.34,0,0,1-.171.009.975.975,0,0,1-.373.169c-2.391-.092-.377-.116.373-.169.027-.021.092-.043.1-.066a.183.183,0,0,1-.03,0l-8.271.244c1.75.062,3.942.049,7.828,0a12.954,12.954,0,0,1-1.716.345,53.631,53.631,0,0,0-8.968.67c-1.651-.109-.446-.257-.309-.34-1.77-.053-3.263-.1-4.576-.126-.618-.195-1.324-.381-2.074-.537-.111.154-.132.3-2.867.492-3.189.041-5.67.255-10.706.71l-.059-.034c.032,0,.065,0,.1,0,.13-.092,0-.12-.3-.116L406.053-16c-1.17.148-4.863-.047-9.531-.21a79.571,79.571,0,0,1,9.7-.353c-2.409-.629-1.221.071-4.98-.663,3.239.909-13.329-.028-8.383.907h0c-3.813-.828-6.631-.353-11.635-1.074.157.21,1.787.4-2.656.3a9.167,9.167,0,0,1-.975.184l-.3-.015c.089.009.155.015.246.026-.193.03-.209.039.092.009a13.263,13.263,0,0,1,2.263.319,16.661,16.661,0,0,1-1.995.248c-5.607.045-11.776-.3-16.969-.432a12.12,12.12,0,0,1,2.607-.24l-5.589-.021a83.761,83.761,0,0,0-10.608-.169c-2.637-.1-6.66.518-4.362.152l-8.767.289-.081-.116c-8.648-.06-17.8.77-27.691-.071-2.911.118-5.921.261-10.792.128l-.95-.4c-3.737.141-11.226-.4-12.832.017-4.032-1.087-18.144-.238-24.718-.43l-.247.526c-4.525-.03-8.865.12-14.483.332l.159.214-3.855-.032,2.018.381c-4.8.111-11.424-.422-18.09-.381a16.537,16.537,0,0,1,3.839-.024c-9.152-1.053-19.31.764-27.61,0a29.227,29.227,0,0,1-5.017,0c.193,0,.366-.011.514-.026-.212,0-.526,0-.85,0-.913-.081-1.854-.173-2.873-.248.867.113,1.7.205,2.418.248-1.6.011-4.015.068-6.387.186l-1.01-.5-.549.013c-2.326-.184-1.871.238-.629.614-1.194.081-2.288.182-3.136.3-1.89-.807-6.222.272-8.8-.588-1.218.319-7.494.336-10.976.715.01-.126-.176-.263-1.43-.387-2.833.148-5.837.184-8.949.167l-.109-.062-.388.058c-2.588-.017-5.247-.064-7.977-.124.293-.058.66-.116,1.113-.18-.691.062-1.31.116-1.877.163-5.623-.128-11.486-.274-17.432-.19-.2.184,1.944.462-.8.734l-6.758-.914c-2.529.09-2.328,1.055-6.947.422A5.262,5.262,0,0,1,110.8-16c-9.407-.073-22.235.045-31.749-.426.561.238.631.36.387.413-.377,0-.753,0-1.131.009-2.142-.118-6.285-.631-6.66-.026-.856-.287-2.9-.447-.523-.7-7.492.282-11.255-.454-16.427.338-.858-.289,1.6-.419.84-.591a14.036,14.036,0,0,1-3.16.079c-.763-.171,1.1-.242,2.283-.366-5.715.036-7.592.537-8.409,1.134-4.349-.122-8.689-.306-13.008-.591,3.449.355,1.15.389-1.484.4.81.041.844.143.691.267-2.394-.032-5.049-.047-7.134,0L21.4-16.3c-1.814.64-10.2.126-12.211.588l-1.116,0-4.817.026,2.271.109a10.066,10.066,0,0,1-2.967.411c.025.824-.04,1.671-.1,2.716-.024.529-.051,1.1-.078,1.708,0,.276-.01.565-.014.862,0,.267.008.546.013.835l-.109-.1C1.5-.962,2.634-5.619,1.757,2.464l.661-.441c1.425.753-.84,7.16-.295,11.851L2.5,12.182a9.362,9.362,0,0,1-.545,4L1.271,14.8c.029.991.079,2.052.136,3.131A19.213,19.213,0,0,0,.386,21.914c-.124.561-.2-.886-.29-1.669M111.623,78.169c.059-.009.1-.013.147-.024,3.092.195,2,.118-.147.024m3.048-.546a4.668,4.668,0,0,0,.509-.188l7.6-.46c-6.537-.1-3.737-.426-2.312-.725.9.047,1.795.077,2.74.071l-2.45-.137c.4-.1.538-.2-.041-.28.438-.021.891-.041,1.356-.054,3.6.081,7.4.58,3.371.661l-.744-.094c-.363.205-.038.338.695.428-3.988.347-5.5.918-10.724.779m338.447-.481.36,0-.46.015.1-.019M353.623-16.727l-.147.024c-3.092-.195-2-.118.147-.024m-3.048.546a4.661,4.661,0,0,0-.509.188l-7.6.46c6.536.1,3.737.426,2.312.725-.9-.047-1.795-.077-2.74-.071l2.448.137c-.4.1-.536.2.043.28-.439.021-.891.041-1.356.053-3.6-.081-7.4-.58-3.371-.661l.742.094c.365-.205.04-.338-.693-.428,3.988-.347,5.5-.918,10.724-.779M12.129-15.7l-.36,0,.458-.015-.1.019" transform="translate(0.163 17.759)" fill="#d5001c"/></g></g></g><text transform="translate(559.151 1511.981)" fill="#fff" font-size="72" font-family="FKScreamerLegacy-Upright, FK Screamer Legacy"><tspan x="0" y="0">DOWNLOAD BROCHURE</tspan></text></g></svg>