<svg xmlns="http://www.w3.org/2000/svg" xmlns:xlink="http://www.w3.org/1999/xlink" width="873.02" height="586.602" viewBox="0 0 873.02 586.602"><defs><clipPath id="a"><rect width="582.38" height="371.554" fill="none"/></clipPath></defs><g transform="translate(-3.27 -4.24)"><g transform="translate(3.27 4.24)"><path d="M566.274,309.182V304.76c-.3.551-.6,1.087-.864,1.578.283.938.536,1.772.864,2.829Z" transform="translate(271.491 142.647)" fill="#f4f4f4"/><path d="M875.947,308.829a3.412,3.412,0,0,1-.417-3.514,4.242,4.242,0,0,0,.1-2.531,28.168,28.168,0,0,0-1.742-5.211,1.5,1.5,0,0,1-.1-.476c-.1-1.414-.164-1.489-1.087-1.563a.449.449,0,0,0-.179.045c.179-.283.357-.551.551-.849a1.931,1.931,0,0,0-.149-.6,11.9,11.9,0,0,1-1.057-2.948,3.539,3.539,0,0,1-.03-2.159,2.735,2.735,0,0,0-.372-2.665,2.42,2.42,0,0,1-.327-1.132,8.132,8.132,0,0,0-.581-2.576,20.39,20.39,0,0,1-1.563-5.151c-.283-1.548-.744-3.007-1.117-4.511a3.093,3.093,0,0,1-.164-.61,3.775,3.775,0,0,0-1.132-2.695.413.413,0,0,1-.149-.3c.119-1.027-.268-1.965-.1-3.052a6.669,6.669,0,0,0-.521-4.139,5.785,5.785,0,0,1-.283-1.206c.878.164.6,1.429,1.027,1.906.491-.744.506-.863.268-1.608-.208-.61-.417-1.221-.655-1.891-.194.1-.342.179-.491.268-.744.372-.938.328-1.355-.625-.64-1.459-1.265-2.918-1.846-4.422a3.691,3.691,0,0,1-.045-1.3c0-.268.179-.566.134-.8-.3-1.623-.61-3.246-.968-4.839-.194-.849-.223-.834-.938-.61-.119-.789-.432-1.5.1-2.322a2.07,2.07,0,0,0,0-1.712,8.263,8.263,0,0,0-1.444-2.844,2.516,2.516,0,0,1-.581-2.248c0-.089.045-.179.03-.253a10.282,10.282,0,0,1,.238-4.02c-.521.03-.968.045-1.474.074,0-.372-.03-.655-.03-.953a5.756,5.756,0,0,0,0-.878c-.194-1.34-.164-1.4.744-1.548a3.48,3.48,0,0,0,0-.7c-.506-.328-.447-1.087-.625-1.667a7.761,7.761,0,0,0-.774-1.4c-.208.387-.327.625-.491.923a4.406,4.406,0,0,1-1.206-2.71,17.2,17.2,0,0,0-1.012-3.871c-.536-1.638-.968-3.38-1.385-5.092a25.925,25.925,0,0,0-1.191-4.466,9.845,9.845,0,0,1-.64-2.739c-.194-1.474-.67-2.8-.982-4.183-.61-2.561-1.325-5.166-1.757-7.727-.238-1.385-.581-2.829-.938-4.213a3.311,3.311,0,0,0-.551-.849,7.894,7.894,0,0,0-.134-1.385c-.759-2.992-1.578-6-2.337-8.992-.789-3.082-1.533-6.208-2.248-9.32-.313-1.355-.461-2.769-.729-4.154a7.968,7.968,0,0,0-.417-1.5A7.6,7.6,0,0,1,840.2,163l-1.072-3.692a2.183,2.183,0,0,1-.536-1.831l-.268-.893c-.551-.476-.64-1.429-.878-2.233-.432-1.459-.744-2.978-1.072-4.5l-.521-1.8c-.268-.715-.581-1.4-.819-2.129-.164-.491-.313-.983-.462-1.489l-.864-5.077-1.265-.476a1.676,1.676,0,0,1-1.876.238c-2.739-1.176-5.568-2.129-8.292-3.335-1.757-.789-3.439-1.816-5.166-2.695l-4.57-1.727c-3.8-1.012-7.548-2.055-11.225-3.439-2.084-.789-4.571-.923-5.762-2.992l-2.04-.774a4.277,4.277,0,0,1-4.645-1.757l-9.1-3.439c-3.037.476-5.628-.6-8.233-1.906a15.964,15.964,0,0,0-3.737-1.325c-3.409-.789-6.938-1.206-10.273-2.2-7.742-2.293-15.5-4.645-23.136-7.161-7.429-2.442-14.918-5.077-22.347-7.5a13.958,13.958,0,0,0-3.409-.328c-.744-.685-1.325-1.638-2.144-1.906a94.9,94.9,0,0,0-10.466-2.948c-6.357-1.3-12.833-3.633-19.175-5.538-3.409-1.027-6.714-2.59-10.377-3.126a18.566,18.566,0,0,1-6.8-2.04c-3.454-2.114-7.369-2.635-11.091-3.811a127.48,127.48,0,0,1-12.655-4.481c-3.141-1.37-6.164-2.918-9.632-3.246-2.963-.268-4.913-1.876-6.774-4.079.685-.566,1.251-1.042,2.2-1.831A18,18,0,0,0,618.21,62.9c-1.444-.6-3.305-.3-4.169-2.084-.1-.208-1.146,0-1.727.015-.3,3.305-.432,3.38-3.737,2.829a10.507,10.507,0,0,0-2.144.134c-.7.015-1.4,0-2.337-.03.015-1.831.03-3.454.045-5.33-3.454,1.057-6.551,2.144-9.885,1.251a1.509,1.509,0,0,0-.61.1c-2.278.491-4.258.03-5.583-1.876-1.742-2.5-4.6-3.469-7.116-4.883a3.656,3.656,0,0,0-4.2.194c-1.965,1.98-3.737.923-5.7.581.476-2.561.521-2.71-1.593-3.305-3.96-1.117-7.98-2.084-12-2.978-.566-.119-1.28.506-1.95.566-1.072.1-2.382.417-3.2,0-3.752-1.935-7.414-4.035-11.047-6.178-2.382-1.4-2.546-2.1-1.682-4.794.179-.551.372-1.1.6-1.8-1.667-.759-3.171-1.459-4.7-2.144-1.846-.819-2.174-.729-3.945,1.1,1.206,1.474,4.288.372,4.779,3.484a10.783,10.783,0,0,1-2.992-.923,11.91,11.91,0,0,0-10.243-1.459c-2.665.715-5.032-.581-7.533-.06-.208.045-.6-.268-.744-.506a8.115,8.115,0,0,0-6.729-3.811,6.629,6.629,0,0,1-1.5-.506c-3.722-1.236-7.384-2.71-11.211-3.573a39.02,39.02,0,0,1-12.818-5.107,14.126,14.126,0,0,0-6.387-1.816,4.718,4.718,0,0,1-2.814-1.057c-1.921-2.278-4.2-2.114-6.58-1.057a6.185,6.185,0,0,1-5.3.089c-2.412-1.236-5.36-1.474-7.34-3.514-.313-.313-.968-.328-1.489-.491-.715.715-1.355,1.37-2.01,2.04a3.833,3.833,0,0,0,.074-.655c-.268-3.32-.447-3.484-3.945-3.737a2.389,2.389,0,0,1-1.176-.313c-3.915-2.739-8.546-4.02-13-5.717a7.26,7.26,0,0,0-6.208.625c-3.528,1.816-6.223,1.623-8.694-1.146-.238-.268-.462-.536-.685-.819-2.084,1.027-4.154,2.055-6.238,3.067-3.082,1.489-6.4,2.65-9.29,4.332-9.126,5.315-19.146,9.126-27.766,15.23a20.466,20.466,0,0,1-2.65,1.444,59.8,59.8,0,0,0-13.7,9.111c-1.727,1.623-4.63,3.037-7.072,4.213-7.429,3.573-14.992,6.967-22.332,10.734-7.221,3.722-14.322,7.816-21.409,11.851a24.319,24.319,0,0,0-2.531,1.548c-6.967,5.345-15.126,9.692-22.51,14.53-.789.521-1.742.878-2.605,1.34-2.992,1.623-5.985,3.26-9.3,5.107-.8-1.265-2.5-.089-4.7,1.623a28.878,28.878,0,0,1-5.97,3.558c-2.5,1.072-2.2-.849-3.007-1.608-.983-.923-2.471-.328-3.96,1.593a4.7,4.7,0,0,0-.685,1.593c2.04.387,3.781.73,5.672,1.1-1.176,1.221-1.95,2.04-2.71,2.858-2.352,2.561-4.69,4.109-7.965,4.6-2.025.313-4.7,1.816-7.012,2.844-5.717,2.546-11.612,5.94-17.761,7.474a153.926,153.926,0,0,0-15.558,5.226c-.149.968-.685,2.218-.313,2.844.223.387,1.772-.089,2.784-.357.61-.164,1.355-.744,2.025-1.012,2.829-1.131,3.528-.67,2.456,1.7a30.641,30.641,0,0,1-1.623,2.665c-3.707,1.1-8.724,6.4-10.258,2.68-1.861,1.265-3.514,2.471-5.211,3.528-1.816,1.131-3.752,1.995-5.494,3.216-5.017,3.514-8.9,4.288-12.461,3.454,3.558-3.707,3.886-3.93,10.57-7.4,1.444-1.221,2.829-2.576,4.347-3.618a40.444,40.444,0,0,1,4.556-2.427c.03-2.665-1.727-4.139-3.692-5.479,1.3-1.221,2.308-2.189,3.886-3.677-1.548.164-2.516.268-3.633.387.3-1.4.61-2.829.953-4.481-.968.134-1.965.268-2.918.387-.074-.134-.194-.283-.149-.313a52.537,52.537,0,0,1,4.749-4.213c.863-.61,2.888-1.1,3.067-.744.715,1.5,3.052,1.072,4.556,1.608.938.342,1.325,1.265,1.995,1.906.432.417.715,1.131,1.444,1.1,3.216-.134,3.007,2.04,2.516,4.868a32.854,32.854,0,0,0,4.719-1.891c7.087-4.139,14.158-8.322,21.275-12.431,0-.834-.03-1.831-.03-2.263a17.473,17.473,0,0,1-3.275-.179c-1.995-.581-3.335.03-4.66,2.352a41.69,41.69,0,0,0-1.772,3.975c-1.593.476-3.037.908-4.466,1.34-.6.774-1.176,1.533-2.352,3.082-.3-1.414-.462-2.218-.655-3.126-1.8.521-3.528,1.012-5.925,1.712,2.769-3.305,5.776-5.24,8.948-7.3,1.31.3-.506,3.677,3.112,1.414.194-.268.551-.625.536-.789-.1-.953-.938-1.891-.3-2.8,1.191-1.727,2.635-1.206,4-1.4,2.9-.4,4.362-2.531,6.1-4.69-.7-.372-1.325-.7-2.2-1.161,2.248-1.355,4.079-2.486,5.94-3.573,1.742-1.027,3.6-2.04,3.99-3.662.4-1.682-1.548-.908-2.918-.715a4.787,4.787,0,0,1-1.4-.238c1.4-1.921,2.769-3.811,4.347-5.955-3.2,1.131-5.97,2.129-9.335,3.335-2.724,2.129-1.444,3.841-2.025,5.791-.521,1.757.238,3.141.476,4.987-1.31.342-2.71.357-3.409.953-5.017,4.183-6.283,2.322-7.757.625-.045-.06-.283.015-.863.074-.819.834-1.772,1.816-3.007,3.067,1.876.536,3.454,1,5.583,1.608-3.618,2.963-6.789,5.642-10.734,8.412.074-.968-.045-1.3.164-1.653,1.846-3.126,1.429-4.3-1.578-4.183q-2.129.089-2.516-2.248c-3.707,1.429-7.533,2.784-11.374,4.5a9.524,9.524,0,0,0-3.052,2.978c-1.667,2.546-3.037,5.107-4.794,8.159.208.625,1.131,1.519.744,2.814-.357,1.206-2.025,2.858-3.275,4.273a8.567,8.567,0,0,1-2.308,1.742c-2.4,1.191-4.779,2.263-7.935,3.752,2.456-2.918,4.734-5.583,6.58-7.742-.149-1.385-.3-2.59-.476-4.228-1.325.476-2.9,1.042-4.5,1.608-.313,1.8-.625,3.6-.908,5.255-2.278,1.414-4.839,2.933-7.31,4.6-1.921,1.3-2.635,2.769-2.486,4.049.149,1.251.506,2.4.759,3.558,5.121-.983,11.315-4.049,14.858-8.188,2.427,2.337,7.92-3.305,11.6-2.605-1.98,2.59-3.886,5.121-5.806,7.667-1.444-1.087-3.26-1.563-6.134-1-4.407.864-7.206,4.958-10.823,7.116-1.251.045-2.456.089-4.392.164.685,2.471,3.573,2.873,1.667,6.536,2.5-1.489,4.288-2.561,6.893-4.094-1.131,1.831-1.727,2.8-2.337,3.8,1.444.208,3.856-.476,2.784,2.01-.759,1.772-2.68,3.067-6.64,4.5.045-1.176.089-2.382.119-3.543-2.888.953-3.558-1.891-7.146.759h.074a.214.214,0,0,1-.03.045c1.31-.149,3.171-.834,1.846,1.667-2.129.729-3.781,1.176-1.846-1.667h-.119a.148.148,0,0,0,.06-.015c-.03,0-.045.015-.074.03a.311.311,0,0,1,.089-.06c-1.831-.253-3.93,1.1-6.03,2.471-3.216,2.084-6.446,4.154-9.617,6.223-.655-.61-1.1-1.012-1.563-1.429,1.548-1.414,2.9-2.665,5.077-4.63-4.958-.208-.566-5.33-1.682-8.263,2.233-.179,4.69-.968,4.958-.268.462,1.191-.462,3.32-.864,5.464,3.365-2.084,6.863-4.228,10.139-6.208.685-3.067-.015-4.5-2.8-4.511a2.01,2.01,0,0,1-1.906-1.757c-.223-1.459-1.429-1.519-3.1-1.444-2.858.134-4.9,2.278-7.235,4.928-1.057-2.248-3.543-1.861-6.625.208-2.382,1.608-4.585,3.647-7.072,5.672.074.64.164,1.355.253,2.114a31.743,31.743,0,0,0-8.948,4.392c2.174.923,2.918,2.665.283,6.089a13.363,13.363,0,0,1,2.918,1.727c.417.447.223,1.429.3,2.189-1.057.6-2.531,1.757-3.126,1.682-2.71-.313-5.925-.194-5.583-3.677a20.073,20.073,0,0,0-.342-3.811c-3.618,1.846-7.087,3.588-10.541,5.508-.551.3-1.057,1.355-1.787,2.337a28.6,28.6,0,0,1,4.079-.4c2.084.089,2.01,1.176-.149,3.558-1.816,1.995-3.692,3.945-5.449,5.821a13.043,13.043,0,0,1,.342,3.275c-.045.417-1.042,1.355-1.712,1.95a1.585,1.585,0,0,1-1.117.179c.849-2.992-2.055-.06-3.022-.134-.208-.015-.268-.238-.4-.372,1.027-1.146,2.055-2.293,3.9-4.362-2.069,1.087-2.948,1.563-3.8,2.01,1.459-2.531,5.613-3.216,6.491-6.789-1.7,1.012-3.052,1.816-4.407,2.635-2.352-2.665-2.382-2.68,2.963-9.26,2.769.03,5.717-2.59,8.025-4.809a104.039,104.039,0,0,1,15.975-12.64,10.967,10.967,0,0,0,2.352-1.742c.789-.938,1.935-2.516,1.7-2.873-.685-1.072.164-2.382.968-3.9.4-.759-.1-1.429-.179-2.084-2.71,2.189-4.973,3.99-7.176,5.866-.7.6-1.7,1.578-1.757,2.025-.283,2.471-2.784,3.945-4.943,5.628a36.409,36.409,0,0,0-4.154,3.35c-4.109,4.407-10,6.893-15.007,10.049,1.131-1.414,2.263-2.814,3.082-3.826-.551-1.146-1.042-2.025-1.429-2.978-.506-1.251-1.667-1.816-3.811-.194-3.588,2.71-8.129,4.3-10.362,8.9-.328.67-2.04,1.7-3.082,2.293-4.943,2.844-9.364,7.131-14.4,9.826a12.472,12.472,0,0,0-2.308,2.561c-.7.834-1.37,1.682-2.1,2.576a15.316,15.316,0,0,0-3.007.074,25.294,25.294,0,0,0-3.141,1.146c.06-.983.1-1.816.179-2.963-4.392,3.558-.447,4.02-2.62,7.072a65.815,65.815,0,0,1-7.414,4.228c-2.4,1-3.528,2.546-4.764,4.377-.119.179-.238.372-.342.566l-.342,3.841c-.238.819-.476,1.623-.744,2.427-.253.729-.551,1.429-.819,2.129l-.521,1.8c-.328,1.519-.655,3.022-1.072,4.5-.238.819-.328,1.757-.878,2.233l-.268.893a2.2,2.2,0,0,1-.536,1.831l-1.072,3.692a7.429,7.429,0,0,1-.625,3.32,9.274,9.274,0,0,0-.417,1.5c-.253,1.385-.417,2.8-.73,4.154-.73,3.112-1.459,6.238-2.248,9.32-.759,2.992-1.578,6-2.337,8.992a7.89,7.89,0,0,0-.134,1.385c-.194.3-.476.521-.551.849-.357,1.385-.7,2.829-.938,4.213-.432,2.561-1.146,5.166-1.757,7.727a39.06,39.06,0,0,0-.983,4.183,10.4,10.4,0,0,1-.64,2.739,25.927,25.927,0,0,0-1.191,4.466c-.432,1.712-.849,3.454-1.385,5.092a17.405,17.405,0,0,0-1.012,3.871,4.49,4.49,0,0,1-1.206,2.71c-.149-.283-.283-.521-.491-.923a7.759,7.759,0,0,0-.774,1.4c-.179.581-.119,1.34-.625,1.667-.06.045,0,.462,0,.7.923.164.938.208.744,1.548a5.766,5.766,0,0,0,0,.878c0,.283-.015.566-.03.953-.506-.03-.968-.045-1.474-.074a10.282,10.282,0,0,1,.238,4.02.514.514,0,0,0,.03.253,2.559,2.559,0,0,1-.581,2.248,8.528,8.528,0,0,0-1.444,2.844,2.129,2.129,0,0,0,0,1.712c.521.819.208,1.533.1,2.322-.715-.223-.744-.238-.938.61-.357,1.593-.67,3.216-.968,4.839-.045.223.119.521.134.8a3.691,3.691,0,0,1-.045,1.3c-.581,1.5-1.206,2.963-1.846,4.422-.417.953-.61,1.012-1.355.625-.149-.074-.3-.164-.491-.268-.238.67-.447,1.28-.655,1.891-.253.744-.223.878.268,1.608.417-.476.149-1.742,1.027-1.906a6.025,6.025,0,0,1-.283,1.206,6.683,6.683,0,0,0-.521,4.139c.164,1.087-.223,2.04-.1,3.052a.567.567,0,0,1-.149.3,3.716,3.716,0,0,0-1.131,2.695,2.325,2.325,0,0,1-.164.61c-.387,1.5-.834,2.963-1.117,4.511A20.393,20.393,0,0,1,8.9,333.781a8.039,8.039,0,0,0-.581,2.576,2.42,2.42,0,0,1-.328,1.131,2.729,2.729,0,0,0-.372,2.665,3.655,3.655,0,0,1-.03,2.159,12.785,12.785,0,0,1-1.057,2.948,1.928,1.928,0,0,0-.149.6c.194.3.372.566.551.849a1.538,1.538,0,0,0-.179-.045c-.923.074-.968.149-1.087,1.563a.978.978,0,0,1-.1.476,29.729,29.729,0,0,0-1.742,5.211,4.142,4.142,0,0,0,.1,2.531,3.407,3.407,0,0,1-.417,3.513c-.074.089-.149.179-.238.268.268.849.521,1.712.789,2.576.387,1.265.67,2.635,1.1,3.826,1.385,3.767,2.322,7.876,3.93,11.449a10.322,10.322,0,0,1,.372,1.087,27.467,27.467,0,0,0,2.382,5.657,14.413,14.413,0,0,1,1.087,2.918c.908,3.052,1.772,6.164,2.739,9.186.953,2.978,2.01,5.9,3.052,8.828a8.456,8.456,0,0,0,.4,1.042c1.414,2.888,2.531,6.253,3.8,9.3.134.328.223.715.342,1.072.417,1.236.849,2.471,1.31,3.841-.357.313-.045,1.012.4,1.935A13.206,13.206,0,0,1,25.9,425.4c.268,1.027-.268.878-.476,1.206-.268.387-.119,1,.4,1.623a1.046,1.046,0,0,0,.432.3c.134-.834.238-1.533.372-2.293.328.491.551.819.759,1.131a6.234,6.234,0,0,1,1.191,3.29,16.844,16.844,0,0,0,.715,2.873,60.143,60.143,0,0,1,1.876,7.3c.313,2.144.819,4.288,1.28,6.372.268.074.61.3.789.164.1-.089,0-.715-.074-1.132-.045-.253-.194-.551-.253-.834-.283-1.161-.149-1.444.506-.983a9.61,9.61,0,0,1,.73.685c.268,1.519,1.682,3.618.625,4.2.328.774.64,1.459.923,2.159.3.744.506,1.548.834,2.263a8.386,8.386,0,0,1,.819,5.107c-1-1.489-1.057-1.623-1.935-4.377-.328-.6-.685-1.176-.953-1.8-.253-.6-.417-1.251-.625-1.876-.744-.045-1.176.655-1.563,1.444-.328-.536-.581-.968-.983-1.623.03.625.045,1.027.074,1.474-.387-.134-.774-.283-1.236-.432.03.387.045.8.074,1.191-.045.03-.074.074-.089.06A18.33,18.33,0,0,1,29,450.9a2.5,2.5,0,0,1-.179-1.251c.432-.268.328-1.236.491-1.831.1-.387.372-.521.551-.789.119-.179.328-.283.328-.566,0-1.31.6-1.191,1.385-.968a16.692,16.692,0,0,0-.476-1.935c-1.072-2.933-2.159-5.851-3.216-8.784h-.625a9.2,9.2,0,0,1-.089,1.325,1.765,1.765,0,0,0,.6,1.921,10.019,10.019,0,0,0,1.087.759c.119.655.223,1.251.328,1.831.208.253.417.491.834,1-.4.1-.625.164-.878.238.119.729.238,1.444.417,2.427a15.187,15.187,0,0,1-1.935-3.707c.1-.521,1.012.253.432-1.251-.074-.074-.164-.238-.208-.223-.268.03-.536.357-.774.089-.462-.506-.313-1.087-.342-1.638a4.176,4.176,0,0,0-1.236-2.531c-.1.283-.208.536-.342.878-.357-.923-.64-1.682-.923-2.456-.268-.715-.521-1.489-.983-1.653s-.268.61-.238,1.176a3.572,3.572,0,0,1-.089.566c-.521-.6-1.027-1.161-1.608-1.831.283,1.31.521,2.442.819,3.826.566,1.132,1.057.625,1.593.878.491.223.878-.06,1.385-.134a5.966,5.966,0,0,0,.223,1.4c1.1,2.084.581,2.576.089,3.156a2.234,2.234,0,0,0,0,.357c.223.342.491.744.819,1.251.164-.759.313-1.385.506-2.248.789,1.5,1.489,2.814,2.218,4.451-.268-.045-.357,0-.462-.089-.849-.789-1.176-.625-1.176.6q0,.863-.655,1c.357,1.519.685,3.1,1.131,4.675a3.862,3.862,0,0,0,.789,1.28c.685.715,1.385,1.3,2.218,2.04.179-.074.432-.447.789-.268a5.4,5.4,0,0,1,1.146,1.37,3.543,3.543,0,0,1,.462.953c.313.983.581,1.965.953,3.26-.789-1.027-1.5-1.98-2.084-2.754-.387.045-.73.089-1.176.149.119.551.253,1.191.4,1.846.491.149,1,.3,1.459.432.372.938.759,1.995,1.206,3.022.342.789.744,1.1,1.1,1.057a7.573,7.573,0,0,0,1-.268,13.692,13.692,0,0,0-2.114-6.134c.67-.953-.834-3.26-.6-4.734.7.834,1.385,1.638,2.069,2.442a4.012,4.012,0,0,0-.342,2.486c.194,1.8,1.3,2.978,1.861,4.481v1.787c.7-.253.834-1.414,1.831-.61-.387-1.027-.67-1.772-1.057-2.844.491.476.759.729,1.027,1,.074-.581-.089-1.563.6-1.117.476.328.819,1.117,1.176,2.754l-.983-.089c.238,1.176-.566,1.414.134,2.9v-.03h0c-.03-.536-.194-1.3.476-.729.179.878.283,1.548-.476.729v.045a.074.074,0,0,0-.015-.045,5.418,5.418,0,0,0,.625,2.471c.551,1.325,1.087,2.665,1.623,3.975-.179.268-.3.432-.417.625-.372-.64-.715-1.206-1.236-2.114-.119,2.01-1.489.179-2.322.6-.03-.908-.208-1.921-.015-2.025.342-.179.923.223,1.5.417-.536-1.385-1.1-2.844-1.608-4.183-.849-.313-1.251-.045-1.28,1.087a.75.75,0,0,1-.506.759c-.417.074-.432.566-.432,1.251a5.009,5.009,0,0,0,1.3,2.992c-.64.4-.566,1.414,0,2.695.417.983.968,1.906,1.5,2.933.179-.03.372-.045.6-.074a16.144,16.144,0,0,0,1.117,3.677c.283-.863.774-1.161,1.7-.045a4.729,4.729,0,0,1,.521-1.161c.134-.164.4-.074.61-.089a5.585,5.585,0,0,1,.432,1.28c-.119,1.1-.119,2.412-1.087,2.233a4.064,4.064,0,0,0-1.072.1c.476,1.489.923,2.918,1.414,4.347a3.428,3.428,0,0,0,.625.759c-.03-.64-.089-1.191-.074-1.653.045-.849.342-.8.983.1.536.759,1.057,1.548,1.563,2.278a2.754,2.754,0,0,1,.908-.1c.119.015.357.447.521.715a.8.8,0,0,1,.03.447c-.819-.372-.045.834-.074,1.221,0,.089-.074.1-.1.164-.313-.432-.61-.863-1.161-1.638l.521,1.563c-.685-.625-.834-2.308-1.816-2.71.268.7.476,1.265.685,1.816-.774.923-.774.938-2.546-1.31a6.411,6.411,0,0,0-1.251-3.305,44.456,44.456,0,0,1-3.335-6.625,4.5,4.5,0,0,0-.462-.968c-.253-.328-.67-.8-.774-.729-.3.268-.655-.089-1.072-.432-.208-.179-.4.03-.581.045.581,1.117,1.057,2.069,1.548,2.978.164.283.417.715.551.729.685.149,1.072,1.176,1.519,2.069a16.951,16.951,0,0,0,.878,1.727c1.176,1.727,1.8,4.139,2.635,6.208-.372-.476-.759-.953-1.027-1.3-.328.208-.581.4-.849.551-.357.194-.521.655-.089,1.548.715,1.489,1.1,3.35,2.367,4.3a4.3,4.3,0,0,1,.6,1.28c.744,2.04,1.876,3.886,2.576,5.955a4.652,4.652,0,0,0,.685.968c.223.3.447.581.7.878a8.342,8.342,0,0,0,0,1.221c.045.4.194.863.283,1.3-.268-.03-.506-.06-.819-.1.938,1.816,1.117.223,1.935,1.146a31.5,31.5,0,0,1,1.087,3.052,4.052,4.052,0,0,0,1.161,1.98,1.4,1.4,0,0,0,.149.149l19.056,3.305c2.695.491,243.921,50.142,246.408,50.9,1.7.521,3.067,1.8,5.106.968,2.01.923,4.035.357,5.881-.491,1.608.744,3.082,1.4,4.526,2.055-.089.8-.179,1.5-.253,2.129,2.129,1.459,3.126,1.31,4.734-.655.551-.67.834-1.608,2.04-1.429,2.278.342,4.585.491,6.848.863,2.486.417,4.883,1.4,7.4,1.4a98.323,98.323,0,0,1,9.841.328c1.98.208,4.273-.387,5.389,1.891,1.965-1.191,3.677-1.608,5.181-.03.179.193.566.208.878.253,1.4.193,2.8.4,4.213.521a4.442,4.442,0,0,0,2.129-.164c2.293-1.027,4.451-.729,6.67-.253a12.385,12.385,0,0,0,3.067.253c2.739-.089,5.508-.491,8.218-.432,6.283.164,12.58.387,18.818.744,6.059.342,12.193.834,18.252,1.161a12.133,12.133,0,0,0,2.68-.447c.67.372,1.251,1,1.921,1.027a73.315,73.315,0,0,0,8.471.1c5.077-.313,10.377.149,15.543.313,2.769.089,5.538.61,8.426.268a14.273,14.273,0,0,1,5.523.164c2.963.908,6.044.506,9.082.655a95.9,95.9,0,0,1,10.377.834c2.605.417,5.151.983,7.876.506,2.323-.4,4.049.432,5.791,1.742-.447.581-.819,1.057-1.444,1.861a12.1,12.1,0,0,0,3.082,1.3c1.191.164,2.576-.447,3.5.744.1.134.878-.238,1.325-.372-.238-2.605-.134-2.695,2.486-2.948a10.012,10.012,0,0,0,1.638-.536c.536-.164,1.087-.283,1.8-.462.253,1.414.461,2.665.715,4.109,2.516-1.519,4.734-3.007,7.429-2.992.149,0,.313-.134.461-.208,1.682-.849,3.275-.893,4.556.3,1.7,1.563,4.02,1.727,6.164,2.293a3,3,0,0,0,3.2-1.012c1.236-1.921,2.754-1.474,4.3-1.623,0,2.07-.015,2.189,1.682,2.218,3.2.045,6.432-.045,9.647-.179.462-.015.908-.655,1.414-.849a5.253,5.253,0,0,1,2.471-.655c3.156.715,6.268,1.578,9.379,2.486,2.04.6,2.248,1.087,1.98,3.335-.06.462-.119.923-.208,1.519,1.385.238,2.65.476,3.915.685,1.533.253,1.772.119,2.873-1.653-1.131-.878-3.35.6-4.169-1.7a8.32,8.32,0,0,1,2.427.089,9.377,9.377,0,0,0,8.084-.983c1.95-1.1,3.96-.6,5.806-1.5.149-.074.491.089.64.238a5.85,5.85,0,0,0,5.717,1.533,5.808,5.808,0,0,1,1.236.074c3.037.179,6.059.566,9.126.447a29.122,29.122,0,0,1,10.585,1.28,11,11,0,0,0,5.166.089,3.467,3.467,0,0,1,2.308.223c1.8,1.355,3.528.759,5.211-.536a5.012,5.012,0,0,1,4.064-1.161c2.025.447,4.332.03,6.149,1.191.283.179.789.06,1.206.074.447-.7.849-1.325,1.266-1.995a2.733,2.733,0,0,0,.03.521c.67,2.5.834,2.59,3.558,2.069a1.876,1.876,0,0,1,.953,0c3.394,1.31,7.146,1.34,10.809,1.727a6.041,6.041,0,0,0,4.69-1.757c2.456-2.114,4.556-2.531,6.848-.908.208.149.432.328.64.491,1.459-1.221,2.9-2.442,4.362-3.648,2.159-1.787,4.556-3.365,6.536-5.255,6.268-5.97,13.444-10.972,19.22-17.448a19.51,19.51,0,0,1,1.831-1.653,52.72,52.72,0,0,0,9.245-9.826,27.087,27.087,0,0,1,4.853-4.7c5.211-4.273,10.555-8.456,15.662-12.863,5.032-4.347,9.915-8.962,14.8-13.518a20.879,20.879,0,0,0,1.727-1.712c4.6-5.553,10.258-10.57,15.275-15.826.536-.566,1.206-1.027,1.816-1.563,2.069-1.861,4.139-3.752,6.432-5.851.789.8,1.935-.447,3.394-2.218a26.313,26.313,0,0,1,4.079-3.975c1.772-1.34,1.816.208,2.531.61.893.506,1.95-.253,2.829-2.04a4.4,4.4,0,0,0,.313-1.37c-1.623.119-3.007.223-4.526.328.73-1.191,1.221-1.965,1.682-2.754a11.448,11.448,0,0,1,5.479-5.181c1.519-.655,3.365-2.367,4.987-3.633,3.945-3.067,7.935-6.789,12.327-9.245l4.675-.8c-4.615,4.407-9.216,8.843-13.86,13.235.134.64.283,1.414.342,1.742a13.7,13.7,0,0,1,2.546-.536c1.623.03,2.561-.7,3.26-2.769a33.139,33.139,0,0,0,.8-3.424c1.161-.7,2.2-1.325,3.246-1.95.342-.715.685-1.414,1.37-2.858.432,1.027.67,1.608.953,2.278,1.31-.774,2.576-1.519,4.317-2.546a32.807,32.807,0,0,1-5.851,7.459c-1.042.045-.119-2.933-2.605-.447-.1.253-.342.6-.3.715.208.715.983,1.265.625,2.084-.67,1.563-1.846,1.474-2.873,1.906-2.174.908-3.007,2.844-4.035,4.868.6.134,1.117.268,1.861.432-1.534,1.5-2.784,2.754-4.064,3.975-1.206,1.146-2.486,2.308-2.546,3.648-.074,1.37,1.31.387,2.352-.045a3.879,3.879,0,0,1,1.117-.1c-.8,1.772-1.593,3.5-2.5,5.479,2.308-1.533,4.288-2.873,6.7-4.5,1.787-2.189.566-3.246.73-4.868.149-1.459-.625-2.367-1.072-3.737.953-.536,2.025-.834,2.486-1.429,3.26-4.258,4.511-3.082,5.881-2.084.045.03.208-.074.655-.238l1.876-2.978c-1.519-.03-2.8-.045-4.526-.089,2.367-3.022,4.422-5.732,7.072-8.68.074.759.223,1,.1,1.31-.983,2.784-.491,3.6,1.8,2.888a1.644,1.644,0,0,1,2.248,1.206c2.65-1.861,5.4-3.692,8.114-5.806a8.41,8.41,0,0,0,1.935-2.918c.923-2.308,1.608-4.556,2.531-7.265-.253-.432-1.087-.938-.968-2.01.1-1,1.161-2.62,1.921-3.96a7.767,7.767,0,0,1,1.533-1.816c.8-.67,1.608-1.34,2.471-2.025v-2.888a17.538,17.538,0,0,0-1.757,2.576c-1.444-.849-3.424,1.221-5.449,2.8.67-1.772,1.593-3.394,2.263-5.166a7.661,7.661,0,0,0,2.873-.834,8.473,8.473,0,0,0,2.084-1.459v-5.687a24.329,24.329,0,0,1-2.442,3.484c.179-.462.357-.908.566-1.34.432-.893.253-1.355-.089-1.548a3.589,3.589,0,0,1-.536-.342,9.562,9.562,0,0,1,2.516-.506v-7.057c.328-.655.67-1.251,1.176-1.355.119-.03.387-.447.551-.729.491-.908.968-1.861,1.548-2.978-.179-.03-.372-.223-.581-.045-.417.342-.774.7-1.072.432-.1-.089-.521.387-.774.729a4.5,4.5,0,0,0-.462.968c-.119.283-.253.536-.372.819v-2.8h.089c.536-1.027,1.087-1.95,1.5-2.933.551-1.266.625-2.293-.015-2.695a5.1,5.1,0,0,0,1.3-2.992c0-.685-.03-1.161-.432-1.251a.75.75,0,0,1-.506-.759c-.03-1.131-.432-1.4-1.28-1.087-.208.536-.417,1.1-.64,1.653v-4.243c.715-.328.893.6,1.5.819v-1.787c.566-1.489,1.667-2.68,1.861-4.481a4.122,4.122,0,0,0-.342-2.486c.685-.8,1.37-1.608,2.069-2.442.238,1.489-1.265,3.782-.6,4.734a13.809,13.809,0,0,0-2.114,6.134,7,7,0,0,0,1,.268c.357.045.759-.253,1.1-1.057.432-1.027.834-2.084,1.206-3.022.462-.134.953-.283,1.459-.432.134-.655.283-1.3.4-1.846-.461-.06-.8-.1-1.176-.149-.581.774-1.3,1.727-2.084,2.754.372-1.3.655-2.278.953-3.26a3.542,3.542,0,0,1,.462-.953,5.144,5.144,0,0,1,1.146-1.37c.357-.179.61.194.789.268.834-.744,1.534-1.325,2.218-2.04a3.433,3.433,0,0,0,.789-1.28c.432-1.578.774-3.156,1.131-4.675q-.655-.134-.655-1c0-1.221-.328-1.385-1.176-.6-.089.089-.194.045-.462.089.729-1.638,1.429-2.948,2.218-4.451.193.863.342,1.489.506,2.248.342-.506.6-.908.819-1.251,0-.238.03-.328,0-.357-.491-.581-1.027-1.072.089-3.156a5.968,5.968,0,0,0,.223-1.4c.506.074.908.372,1.385.134.536-.253,1.027.238,1.593-.878.3-1.385.551-2.516.819-3.826-.581.655-1.087,1.236-1.608,1.831a3.563,3.563,0,0,1-.089-.566c.03-.566.238-1.355-.238-1.176-.447.179-.715.938-.983,1.653-.283.759-.581,1.519-.923,2.456-.134-.357-.238-.6-.342-.878a4.176,4.176,0,0,0-1.236,2.531c-.03.551.119,1.131-.342,1.638-.238.268-.506-.06-.774-.089-.045,0-.149.149-.208.223-.581,1.5.328.729.432,1.251a15.185,15.185,0,0,1-1.935,3.707c.164-.983.283-1.682.417-2.427-.253-.074-.476-.134-.878-.238.417-.491.625-.744.834-1,.1-.581.208-1.176.327-1.831a12.641,12.641,0,0,0,1.087-.759,1.741,1.741,0,0,0,.6-1.921,12.047,12.047,0,0,1-.089-1.325h-.625c-1.057,2.933-2.144,5.851-3.216,8.784-.223.625-.313,1.3-.476,1.935.789-.223,1.385-.342,1.385.968,0,.3.208.4.327.566.179.268.447.417.551.789.164.6.074,1.563.491,1.831a2.2,2.2,0,0,1-.179,1.251c-.313.7-.744,1.325-1.117,1.98,0,.015-.045-.03-.089-.06.03-.387.045-.789.074-1.191-.447.164-.849.3-1.236.432.015-.447.045-.849.074-1.474-.4.655-.655,1.087-.983,1.623-.4-.789-.819-1.489-1.563-1.444-.208.625-.372,1.28-.625,1.876-.268.64-.64,1.206-.953,1.8-.893,2.754-.953,2.888-1.935,4.377a8.386,8.386,0,0,1,.819-5.107c.328-.729.536-1.519.834-2.263.283-.7.6-1.385.923-2.159-1.057-.581.357-2.68.625-4.2a7.438,7.438,0,0,1,.73-.685c.64-.462.789-.179.506.983a6.59,6.59,0,0,0-.253.834c-.059.417-.179,1.057-.074,1.132.179.134.521-.089.789-.164.462-2.1.968-4.228,1.28-6.372a60.145,60.145,0,0,1,1.876-7.295,17.188,17.188,0,0,0,.715-2.873,6.234,6.234,0,0,1,1.191-3.29c.223-.313.432-.64.759-1.131.119.759.238,1.459.372,2.293a1.046,1.046,0,0,0,.432-.3c.521-.625.67-1.236.4-1.623-.223-.313-.744-.179-.476-1.206a12.823,12.823,0,0,1,.923-2.456c.447-.923.759-1.623.4-1.935.476-1.37.893-2.605,1.31-3.841.119-.357.208-.744.342-1.072,1.265-3.052,2.382-6.417,3.8-9.3a8.461,8.461,0,0,0,.4-1.042c1.042-2.918,2.1-5.851,3.052-8.828.968-3.022,1.831-6.134,2.739-9.186a14.087,14.087,0,0,1,1.087-2.918,27.815,27.815,0,0,0,2.382-5.657,9.275,9.275,0,0,1,.372-1.087c1.608-3.573,2.546-7.682,3.93-11.449.432-1.191.715-2.546,1.1-3.826.253-.863.521-1.712.789-2.576-.074-.089-.164-.179-.238-.268ZM149.513,135.58c.6-.268.908-.4,1.206-.536a10.456,10.456,0,0,1-.342,1.429,4.349,4.349,0,0,1-.834.417,12.25,12.25,0,0,1-.03-1.3ZM130.4,134.344c-.491,1.787-.8,2.948-1.117,4.109-.357.119-.729.238-1.087.357.074-1.087-.983-1.816,2.2-4.481ZM5.191,351.081a2.311,2.311,0,0,0-.06-.313,4.1,4.1,0,0,1,.4-.119s.03.223.045.342l-.4.089Zm10.3,15.811c0-.179.03-.357.03-.551.045.03.089.045.134.074.015.074.06.194.045.223a1.7,1.7,0,0,1-.208.238Zm.328-45.05a4.208,4.208,0,0,1-.164-.462.979.979,0,0,1,.089-.179c.06.179.134.342.194.521-.045.045-.089.074-.134.119ZM18.1,401.014a1.6,1.6,0,0,1-.268-.357,2.255,2.255,0,0,1-.03-.461l.328.328a4.579,4.579,0,0,1-.03.491ZM28.475,270.6c-.089.119-.223.149-.4.268a2.559,2.559,0,0,1-.03-.521.572.572,0,0,1,.372-.134.845.845,0,0,1,.074.4Zm8.4,199.63c-.074-.253-.1-.372-.134-.491a2.069,2.069,0,0,1,.387.149,3,3,0,0,1,.1.342,2.86,2.86,0,0,1-.357,0Zm.774,3.692c-.119-.328-.238-.67-.357-1a.276.276,0,0,0,.1-.03c.134.328.268.655.417.983-.045.015-.1.03-.149.045Zm3.275,3.915a4,4,0,0,1-1.161-1.414c-.074-1.146-.789-1.757-1.34-2.858h1.608c.387,1.012.789,1.935,1.087,2.858C41.353,477.18,41.457,478.088,40.921,477.835Zm-4.6.149c.491.223.819.357,1.131.506l.089.447c-.3-.045-.521.372-1.221-.953Zm5.7,13.95c-.223-.417-.447-.819-.834-1.533a1.454,1.454,0,0,1,.938,1.3C42.127,491.785,42.082,491.83,42.023,491.934Zm800.024-64.509c.327-.134.64-.283,1.131-.506-.7,1.325-.923.908-1.221.953l.089-.447Zm.313-8.59a2.558,2.558,0,0,1,.387-.149c-.03.119-.074.253-.134.491a2.851,2.851,0,0,1-.357,0s.089-.328.1-.342Zm-.253,3.007a.611.611,0,0,1,.1.03c-.119.328-.238.67-.357,1-.045-.015-.1-.03-.149-.045.134-.328.268-.655.417-.983Zm-4.734,18.8a1.432,1.432,0,0,1,.938-1.3c-.387.715-.61,1.117-.834,1.533C837.432,440.779,837.373,440.735,837.373,440.645ZM832.817,449a2.069,2.069,0,0,1-.313.313v-.357a3.1,3.1,0,0,1,.3-.223.8.8,0,0,1,0,.268Zm-9.841,4.347-.447,1.072a.915.915,0,0,1-.194-.015l.4-1.072a1.127,1.127,0,0,1,.223.015Zm1.131,2.2a1.2,1.2,0,0,1,.432-.253.806.806,0,0,1-.059.432,3.006,3.006,0,0,1-.491.462c.06-.313.074-.61.1-.64Zm6.819-10.541c.194.1.387.074.417.253.134.819-.328,1.176-1.042,1.831.268-.893.417-1.385.625-2.069Zm1.7.015c-.1,1.027-.194,1.861-.283,2.71-.685.432-1.325.819-2.025,1.265a14.961,14.961,0,0,1,2.322-3.975Zm-.551-.744s-.194.074-.357.149a5.386,5.386,0,0,1,.268-.789c.045-.1.208-.134.313-.194a8.524,8.524,0,0,1-.208.834Zm-2.293.685a1.558,1.558,0,0,1-.819,1.176,1.7,1.7,0,0,1,.074-.491c.238-.223.491-.462.744-.685Zm-1.31,2.427c-.759,1.489-.61,3.052-1.816,4.2A6.274,6.274,0,0,1,828.47,447.39Zm-2.189,10.079a3.228,3.228,0,0,1,1.682-2.1C827.562,457.052,826.892,457.052,826.281,457.469Zm.521,3.335-.223,1.161a2.993,2.993,0,0,1-.238.208c-.1-.253-.194-.521-.357-.938C826.371,461.027,826.594,460.908,826.8,460.8Zm1.117-8.605a.566.566,0,0,0,.268-.045,3.459,3.459,0,0,0,.685,1.429c-.015.03-.03.045-.045.074-.863.536-.432-.938-.908-1.474Zm7.235-8.248c-.03.089-.149.179-.238.268-.268.313-.551.625-.938,1.072.1-1.414.342-2.069.938-2.546.223-.179.566-.194.61.015A4.3,4.3,0,0,1,835.154,443.95Zm-.819-2.844c.283-.387.506-.729.744-1.057a8.7,8.7,0,0,1-1.4,3.424c-.432.566-.715.655-.819.432a4.151,4.151,0,0,1-.253-1.653v-.089c.417-.447.834-.849,1.236-1.221.164.045.327.1.476.149ZM50.524,497.189c-.67-.328-.789-.938-1-2.01A3.27,3.27,0,0,1,50.524,497.189Zm-1.846-8.873c-.253-.253-.506-.581-.759-.863.06-.357.03-.953.208-1s.625.447.863.834a13.422,13.422,0,0,1,.67,1.8c-.506-.387-.744-.536-1-.759Zm1.459,2.814a.479.479,0,0,1,.1-.06c.194.342.387.7.6,1.042l-.149.149c-.179-.387-.357-.759-.536-1.146ZM44.33,473.89q-1.057-2.144-.342-2.561A3.45,3.45,0,0,1,44.33,473.89ZM97.45,171.981c-1.414.715-2.858,1.772-3.737,1.816a7.308,7.308,0,0,1-4.079-.774c-.551-.328-.357-1.355.983-2.978,2.576-3.141,5.27-4.02,8.292-5.36-.8.878-1.593,1.757-2.531,2.784.313,1.34.64,2.724,1.057,4.511Zm1.98,13.295c.06.119.1.223.164.342-.834.744-1.682,1.474-2.516,2.218-.134-.179-.268-.342-.4-.521C97.6,186.63,98.507,185.96,99.43,185.275Zm-8.575-10.2c-.134.387-.194.938-.432,1.131a11.729,11.729,0,0,1-1.906,1.012,10.287,10.287,0,0,1,.313-1.325C89.515,175.569,90.185,175.33,90.855,175.077Zm.4,16.853c-.1.283-.194.566-.283.849-.893.283-1.787.551-2.68.834.1-.328.223-.64.328-.968.878-.238,1.757-.476,2.65-.7ZM89.4,183.474c-1.95,2.5-3.126,3.588-4.853,3.781C85.272,184.8,86.79,184.337,89.4,183.474Zm-7.31-.908c1.519-2.635,2.367-4.332,4.392-3.93.432.089.387.8.655,1.474-1.667.8-2.858,1.385-5.032,2.442Zm57.631-16.793c-2.814,3.5-5.434,2.933-8.8,4.392,3.528-3.871,1.623-6.119,3.752-9.484,1.95-.134,3.692-.268,6.044-.432-1.861,1.935-3.424,3.573-5.568,5.836,2.412-1.131,4.332-2.055,4.571-.328ZM78.974,190.754a12.82,12.82,0,0,0,2.546-1.593c-.462.625-.908,1.176-1.325,1.682V190.8l-1.236-.045ZM52.325,495.745a2.408,2.408,0,0,1-.268-.149c-.06-.357-.1-.715-.164-1.087.074.045.149.089.238.134.074.372.134.73.208,1.1Zm.521,6.893c-1.221-1.146-1.057-2.71-1.816-4.2A6.274,6.274,0,0,1,52.846,502.638ZM640.288,84.158a2.513,2.513,0,0,1,.372,1.3c0,.1-.864.4-.968.3a5.236,5.236,0,0,1-.685-1.444C639.633,84.217,640.214,84.038,640.288,84.158ZM513.5,44.735c.089-.03.3.208.461.328-.417.253-.849.506-1.266.774-.1-.149-.193-.3-.3-.447a9.187,9.187,0,0,1,1.1-.64ZM440.226,9.882a11.918,11.918,0,0,1,.328,1.444c0,.03-.551.134-.834.208l-.268-1.429c.253-.074.521-.149.774-.223ZM402.918,48.695c-.06.164-.1.342-.164.506-.194.06-.476.238-.566.164a4.359,4.359,0,0,1-.625-.744c.447.03.893.045,1.34.074ZM318.742,60.322a3.106,3.106,0,0,1,1.146-.149c-.223.342-.447.7-.774,1.206-.491-.015-.849-.03-1.206-.045a4.327,4.327,0,0,1,.834-1.012ZM161.9,148.458c-1.027,1.921-1.667,3.365-2.62,4.809a4.609,4.609,0,0,1-2.114,1.37c-.536.074-1.146-.715-.983-.908,1.906-2.293.551-2.963-.581-4.571C158.311,148.86,159.934,148.681,161.9,148.458Zm-14.382,12.774c-2.576,2.114-4.183,1.861-6.283,1.489Q146.416,158.716,147.518,161.232Zm-4.585-23.925c.03.119.06.238.089.372-.789.521-1.593,1.057-2.382,1.578l-.134-.536c.8-.462,1.608-.938,2.412-1.4ZM131.2,150.885c.342-1.236,2.9-4.258,3.365-4.317,2.814-.357,4.258-3.007,6.893-5.092.06,2.2.1,3.841.164,5.776-2.456,1.489-4.69,3.037-6.923,4.169-1.846.938-4.049,1.414-3.514-.536Zm.774,5.97s-2.367,3.767-5.821,4.853C128.685,159.594,131.975,156.855,131.975,156.855Zm-5.494,7.176c1.221.447,1.906.7,2.784,1.027-1.578,1.325-2.769,2.322-4.6,3.856.655-1.772,1.057-2.873,1.816-4.9Zm-6.223,9.394c.953-.506,1.831-.983,2.486-1.34.253,1.5.462,2.739.774,4.585-3.96,1.176-3.514-1.012-3.26-3.246Zm-3.275,2.218c-.491-1.221-.759-1.891-1.191-2.992C118.278,172.234,118.278,173.1,116.983,175.643Zm-3.573-8.709c-1.072.715-2.129,1.429-3.6,2.442C110.447,166.829,111.549,166.1,113.41,166.934Zm-7.206,12.8c.581-.953,1.37-1.891,2.069-2.829.878.179,2.352,0,2.486.67.119.61-1.012,2.308-1.965,3.2-.968.923-2.367,1.444-4.362,2.59.893-1.861,1.236-2.754,1.772-3.633Zm-5.881-26.679c-.7,2.263-1.533,3.186-3.082,3.484-.223.045-.342-.164-.61-.328,1-.863,1.965-1.682,3.692-3.156ZM86.478,163.137A5.268,5.268,0,0,1,88.086,163c.134.045-.253.729-.4,1.117a5.2,5.2,0,0,1-1.444.3C86.091,164.4,86.344,163.792,86.478,163.137Zm2.218,2.576c.223-.3.4-.744.625-.878,1-.581,2.456-1.623,2.9-1.459.521.179.536,1.385.1,2.2-1.131,2.144-2.724,3.052-6.178,3.588,1.042-1.429,1.8-2.442,2.546-3.454Zm-1.742,8.292c-3.275,3.886-6.044,6.64-9.543,8.709,1.012-2.605,1.906-4.9,2.9-7.414,2.084-.4,4.124-.8,6.64-1.28Zm-6.774-5.121a3,3,0,0,1,1.742-.685,15.794,15.794,0,0,1,2.724,1.1c-.834,1.653-1.861,2.665-3.126,2.4a6.5,6.5,0,0,1-2.471-1.206,4,4,0,0,1,1.131-1.623Zm-3.052,4.824c.06-.074.685-.119.655-.045a7.279,7.279,0,0,1-.521,1.1c-.238.015-.476.045-.863.074A9.141,9.141,0,0,1,77.128,173.708ZM66.052,188.491c2.055-1.876,3.677-3.335,5.4-4.883,1.355,1.667-1.012,4.288-1.578,6.789l-3.841-.149c-.3-.3-.357-.8,0-1.742ZM41.993,467.726c-.61-.8-.819-.253-1.28.179-.06-1.1-.089-1.757-.119-2.561a15.35,15.35,0,0,1,1.31,1.117,2.107,2.107,0,0,1,.357.878C42.261,467.562,42.053,467.8,41.993,467.726Zm.6,9.871a4.965,4.965,0,0,1,1.28,2.412C43.3,478.952,42.589,477.6,42.589,477.6Zm2.605,7.652c.194.447.372.878.64,1.489A1.029,1.029,0,0,1,45.194,485.249Zm-.67-5.345c.134-.491.223-.759.313-1.117.342.655.61,1.146,1.027,1.906C45.388,480.411,45.075,480.232,44.524,479.9Zm-.834-3.365c-.015-.789-.03-1.5-.045-2.457.521.774.953,1.429,1.563,2.323-.283-1-.521-1.787-.045-1.861.938,1.191.759,2.233,1.117,3.618-1.042-1.474-1.682-.729-2.59-1.638Zm4.317,4.7c.283,1.623-.328,1.414-.938,1.3-.134-.387-.253-.759-.342-1.027C47.144,481.423,47.5,481.349,48.008,481.244Zm-1.206,3.1c-.089-1.012.149-1,.849-.447C47.308,484.073,47.115,484.177,46.8,484.341Zm.983,11.136c-.179-.074-.357-.119-.357-.149-.089-.283-.134-.551-.208-.834.1.06.253.089.313.194a5.991,5.991,0,0,1,.268.789Zm-3.945.655a3.38,3.38,0,0,1-.015-.655c.015-.06.194.1.3.179a2.18,2.18,0,0,1,.06.6c0,.06-.179-.045-.357-.1ZM44.345,495a4.453,4.453,0,0,1-.372-1.191c.06-.208.387-.208.61-.015.581.476.819,1.146.938,2.546-.387-.447-.655-.759-.938-1.072C44.509,495.179,44.375,495.09,44.345,495Zm1.816,3.246a2.937,2.937,0,0,1-.357.983c-.015.045-.328-.268-.432-.476a1.537,1.537,0,0,1-.164-.715,7.162,7.162,0,0,1,.342-1.087,1.4,1.4,0,0,1,.64,1.3Zm-.357-3.722a8.788,8.788,0,0,1-1.4-3.424c.238.328.476.67.744,1.057.372-.119.774-.223,1.265-.387a7.907,7.907,0,0,1,.462,1.533,4.434,4.434,0,0,1-.253,1.652c-.1.223-.387.134-.819-.432Zm.863,5.523s-.03-.283,0-.268a3.1,3.1,0,0,1,.3.223v.357c-.1-.1-.208-.194-.313-.313Zm.476-1.265c-.089-.849-.179-1.682-.283-2.71a15.373,15.373,0,0,1,2.322,3.975c-.715-.447-1.34-.834-2.025-1.265Zm1-2.471c.03-.179.223-.149.417-.253.208.685.357,1.176.625,2.069-.715-.655-1.176-1.012-1.042-1.831Zm2.516,8.412c-.491-.863-.893-1.533-1.3-2.248.566-.625,1.414.834,2.2.774-.476.536-.045,2.01-.908,1.474Zm.863,1.7a3.216,3.216,0,0,1,1.682,2.1C52.593,508.1,51.908,508.1,51.521,506.42Zm1.623,6.819a2.992,2.992,0,0,0-.238-.208l-.223-1.161c.208.119.432.223.819.432-.164.432-.268.685-.357.938Zm1.861-6.446a2.152,2.152,0,0,1-.06-.432,1.018,1.018,0,0,1,.432.253,4.081,4.081,0,0,1,.1.64,3.766,3.766,0,0,1-.491-.462Zm1.95-1.325-.447-1.072a1.127,1.127,0,0,0,.223-.015l.4,1.072a.915.915,0,0,0-.194.015Zm435.81,67.471a1.758,1.758,0,0,1-.462-.923c-.015-.089.6-.491.7-.432.268.164.417.506.729.968C493.257,572.745,492.84,573.013,492.765,572.938Zm103.1,4.2s-.268-.1-.4-.164c.283-.283.581-.566.863-.849l.283.283c-.253.253-.491.506-.759.729Zm61.308,11.717a9.251,9.251,0,0,1-.462-1.042,6.383,6.383,0,0,1,.61-.342c.134.342.268.7.417,1.042C657.543,588.63,657.364,588.734,657.171,588.853ZM680.4,551.306c.015-.134.03-.283.045-.417.134-.089.342-.283.417-.238a3.354,3.354,0,0,1,.581.447c-.342.074-.7.149-1.042.223Zm63.109-26.292c-.194.208-.566.238-.864.342.119-.313.253-.625.432-1.087.372-.089.655-.149.938-.208A3.62,3.62,0,0,1,743.505,525.014Zm90.726-64.166a43.776,43.776,0,0,1-3.067,4.228c-.581.655-2.069,1.444-2.248,1.206-.759-1.012-2.5-.194-3.722-.3-.774-.06-1.206-.7-1.816-1.057-.387-.223-.715-.729-1.266-.551-1.444.447-2.069.03-2.367-.849l8.68-1.5a1.307,1.307,0,0,0,.149-.149,4.053,4.053,0,0,0,1.161-1.98c.1-.432.268-.863.417-1.3.67-.253,1.221-.462,1.816-.7-.03,1.132-.06,2.308-.1,3.648.729-.3,1.474-.61,2.188-.908.074.089.179.179.164.208Zm-.1-13.131c-.1.208-.417.521-.432.476a3.064,3.064,0,0,1-.357-.983v-.164c.149-.313.3-.64.462-.953a.934.934,0,0,1,.179-.164,10.364,10.364,0,0,1,.342,1.087,1.538,1.538,0,0,1-.164.715Zm3.052-8.605c.074-.208.164-.432.238-.64l.447-.223c-.208.268-.447.551-.685.849Zm3.856-16.54v-.045h.03C841.065,422.542,841.05,422.557,841.035,422.572Zm.536-5c.194.1,0,1.1-.015,2.025a.768.768,0,0,0-.521-.03v-1.95a.683.683,0,0,1,.536-.03Zm-.536-7.027v-1.251c.194-.179.4-.387.729-.7C841.482,409.336,841.273,409.917,841.035,410.542Zm10.392-190.727c-.194-.1-.328-.149-.4-.268a.846.846,0,0,1,.074-.4.634.634,0,0,1,.372.134,1.746,1.746,0,0,1-.03.521Zm10.243,129.792a1.6,1.6,0,0,1-.268.357c0-.149-.015-.283-.03-.491l.327-.328a1.5,1.5,0,0,1-.03.462Zm2-78.816s-.089-.074-.134-.119c.06-.179.134-.342.194-.521.03.06.1.149.089.179a4.22,4.22,0,0,1-.164.462Zm.119,44.8.045-.223c.045-.03.089-.045.134-.074,0,.179.03.357.03.551a1.043,1.043,0,0,1-.208-.238Zm10.511-15.558-.4-.089c.015-.119.045-.342.045-.342a2.057,2.057,0,0,1,.4.119,2.33,2.33,0,0,1-.06.313Z" transform="translate(-3.27 -4.24)" fill="#f4f4f4"/></g><g transform="translate(156.674 90.142)" clip-path="url(#a)"><path d="M137.157,191.4c17.97,0,27.557,14.233,27.557,36.684a36.845,36.845,0,0,0,.744,8.233v1.5H142.993a24.757,24.757,0,0,1-.744-6.744V216.247c0-4.2-1.8-6.893-5.389-6.893s-5.836,2.695-5.836,7.637v70.836c0,4.943,2.248,7.637,5.836,7.637s5.389-2.695,5.389-6.893V273.744a24.758,24.758,0,0,1,.744-6.744h22.466v1.5a33.713,33.713,0,0,0-.744,8.977c0,22.466-9.588,36.684-27.557,36.684-19.473,0-30.847-15.721-30.847-56.9v-8.992c0-41.18,11.374-56.9,30.847-56.9" transform="translate(-106.31 1.322)" fill="#d6001c"/><path d="M179.416,192.39V241.8h9.737V192.39h21.706v119.8H189.153V261.276h-9.737v50.916H157.71V192.39Z" transform="translate(-81.187 1.821)" fill="#d6001c"/><path d="M248.952,192.39l11.225,118.3v1.5H239.215l-2.546-28.451h-8.382l-2.546,28.451H204.78v-1.5l11.225-118.3h32.947Zm-12.431,71.878-3.29-41.18h-1.5l-3.29,41.18Z" transform="translate(-58.18 1.821)" fill="#d6001c"/><path d="M275.826,192.39V292.719H294.54v19.473H253.36V192.39Z" transform="translate(-34.435 1.821)" fill="#d6001c"/><path d="M315.156,192.39V292.719H333.87v19.473H292.69V192.39Z" transform="translate(-15.212 1.821)" fill="#d6001c"/><path d="M372.455,192.39v19.473h-17.97V241.8h15.722v19.473H354.486v31.443h17.97v19.473H332.02V192.39Z" transform="translate(4.012 1.821)" fill="#d6001c"/><path d="M390.723,192.39,403.452,252.3h1.489l-2.248-59.908H423.67v119.8H404.2L391.468,252.3h-1.5l2.248,59.893H371.25V192.39Z" transform="translate(23.187 1.821)" fill="#d6001c"/><path d="M449.88,191.39c17.97,0,27.26,14.977,27.26,37.443a36.847,36.847,0,0,0,.744,8.233v1.5H455.418a24.679,24.679,0,0,1-.744-6.744V216.253c0-4.2-1.8-6.893-5.389-6.893s-5.836,2.695-5.836,7.637v70.836c0,4.943,2.248,7.637,5.836,7.637s5.389-2.695,5.389-6.893V264.013H476.38v48.668H465.9l-3.737-15.424h-1.5c-1.057,9.141-5.687,16.927-16.927,16.927S418.72,303.7,418.72,267.02V248.306c0-41.18,12.134-56.9,31.145-56.9" transform="translate(46.389 1.332)" fill="#d6001c"/><path d="M510.765,192.39v19.473H492.8V241.8h15.721v19.473H492.8v31.443h17.97v19.473H470.33V192.39Z" transform="translate(71.615 1.821)" fill="#d6001c"/><path d="M188.12,103.9v19.458h-17.97v29.954h15.736v19.458H170.151v31.458h17.97v19.458H147.7V103.9Z" transform="translate(-86.08 -41.431)" fill="#d6001c"/><path d="M241.577,103.9v1.489l-8.248,56.9v1.5l8.992,58.4v1.489H220.6l-5.985-40.733h-1.489l-6,40.733H185.42V222.2l8.977-58.4v-1.5l-8.233-56.9V103.9h20.962l6,39.974h1.489L220.6,103.9Z" transform="translate(-67.643 -41.431)" fill="#d6001c"/><path d="M286.2,103.9v19.458H271.228V223.687H248.777V123.358H233.8V103.9Z" transform="translate(-43.996 -41.431)" fill="#d6001c"/><path d="M302.838,103.9c18.863,0,33.244,13.176,33.244,36.386,0,14.977-4.5,23.359-12.729,31.443l11.225,50.47v1.5H312.872l-8.531-45.527h-2.248l1.042,45.527H280.67V103.9h22.168Zm.3,58.39h.744c5.241,0,9.737-4.049,9.737-11.985V133.839c0-7.935-4.5-11.985-9.737-11.985h-.744Z" transform="translate(-21.087 -41.431)" fill="#d6001c"/><path d="M370,103.9v19.458h-17.97v29.954h15.722v19.458H352.026v31.458H370v19.458H329.56V103.9Z" transform="translate(2.81 -41.431)" fill="#d6001c"/><path d="M393.489,103.9l9.737,64.39h1.5l9.737-64.39h24.7V223.687H419.706l1.489-55.4h-1.489l-8.248,55.4H396.481l-8.233-55.4H386.76l1.489,55.4H368.79V103.9Z" transform="translate(21.984 -41.431)" fill="#d6001c"/><path d="M469.375,103.9v19.458h-17.97v29.954h15.721v19.458H451.406v31.458h17.97v19.458H428.94V103.9Z" transform="translate(51.384 -41.431)" fill="#d6001c"/><path d="M156.827,291.894c-1.117-2.948-3.156-5.077-7.206-5.077-4.5,0-8.278,3.156-8.278,9.9s3.781,9.9,8.278,9.9c4.035,0,6.074-2.129,7.206-5.077l4.868,1.251c-1.37,5.568-5.747,8.828-12.074,8.828-7.28,0-13.771-5.151-13.771-14.9s6.491-14.888,13.771-14.888c6.327,0,10.689,3.246,12.074,8.814l-4.868,1.251Z" transform="translate(-91.871 45.537)" fill="#1c2122"/><path d="M171.9,304.312h-9.23l-2.129,6.863H154.72l9.856-29.135h5.4l9.856,29.135h-5.821Zm-7.7-5h6.164L167.285,289.2,164.2,299.31Z" transform="translate(-82.648 45.64)" fill="#1c2122"/><path d="M196.621,282.05v29.121h-5.7l-10.7-19.22v19.22h-5.4V282.05h5.7L191.2,301.27V282.05Z" transform="translate(-72.829 45.645)" fill="#1c2122"/><path d="M209.631,304.312H200.4l-2.129,6.863H192.45l9.856-29.135h5.4l9.856,29.135h-5.821Zm-7.7-5H208.1L205.015,289.2l-3.082,10.109Z" transform="translate(-64.207 45.64)" fill="#1c2122"/><path d="M212.54,311.175V282.04h9.111c6.863,0,13.563,4.362,13.563,14.56s-6.7,14.56-13.563,14.56H212.54Zm7.4-4.987c4.66,0,9.781-1.831,9.781-9.573s-5.121-9.573-9.781-9.573h-1.995v19.146Z" transform="translate(-54.387 45.64)" fill="#1c2122"/><path d="M246.54,304.312h-9.23l-2.129,6.863H229.36l9.856-29.135h5.4l9.856,29.135h-5.821Zm-7.7-5h6.164L241.925,289.2l-3.082,10.109Z" transform="translate(-46.166 45.64)" fill="#1c2122"/><path d="M252.729,287.3a3.5,3.5,0,1,1-3.5,3.5,3.421,3.421,0,0,1,3.5-3.5m0,14.56a3.5,3.5,0,1,1-3.5,3.5,3.421,3.421,0,0,1,3.5-3.5" transform="translate(-36.454 48.211)" fill="#1c2122"/><path d="M279.147,289.889c-1.117-2.159-2.337-3.082-4.035-3.082a2.663,2.663,0,0,0-2.784,2.665c0,5.077,12.446,4.407,12.446,13.071,0,5.7-3.752,9.067-9.32,9.067a10.139,10.139,0,0,1-10.034-8.159l4.362-2.754c.878,3.126,2.62,5.91,5.791,5.91,2.248,0,3.782-1.132,3.782-3.782,0-4.824-12.193-3.871-12.193-13.1a7.782,7.782,0,0,1,7.95-7.905,8.862,8.862,0,0,1,8.412,5.285l-4.362,2.784Z" transform="translate(-28.541 45.532)" fill="#1c2122"/><path d="M300.194,282.05v4.987h-12.61v6.119h10.124v4.987H287.584v8.039h13.027v4.987H282.18V282.05Z" transform="translate(-20.349 45.645)" fill="#1c2122"/><path d="M314.031,304.312H304.8l-2.129,6.863H296.85l9.856-29.135h5.4l9.856,29.135h-5.821l-2.129-6.863Zm-7.7-5H312.5L309.415,289.2Z" transform="translate(-13.178 45.64)" fill="#1c2122"/><path d="M322.14,282.05H343.7v4.987h-8.069v24.133h-5.419V287.037H322.14Z" transform="translate(-0.817 45.645)" fill="#1c2122"/><path d="M366.093,296.723c0,10.109-6.372,14.9-13.727,14.9s-13.726-4.794-13.726-14.9,6.372-14.9,13.726-14.9,13.727,4.779,13.727,14.9m-21.974,0c0,6.908,3.871,9.9,8.248,9.9s8.233-2.992,8.233-9.9-3.871-9.9-8.233-9.9-8.248,2.992-8.248,9.9" transform="translate(7.248 45.532)" fill="#1c2122"/><path d="M381.177,289.889c-1.117-2.159-2.337-3.082-4.035-3.082a2.663,2.663,0,0,0-2.784,2.665c0,5.077,12.446,4.407,12.446,13.071,0,5.7-3.752,9.067-9.32,9.067a10.139,10.139,0,0,1-10.034-8.159l4.362-2.754c.878,3.126,2.62,5.91,5.791,5.91,2.248,0,3.781-1.132,3.781-3.782,0-4.824-12.193-3.871-12.193-13.1a7.782,7.782,0,0,1,7.95-7.905,8.861,8.861,0,0,1,8.412,5.285l-4.362,2.784Z" transform="translate(21.329 45.532)" fill="#1c2122"/><path d="M405.621,300.109c0,7.786-4.5,11.4-10.868,11.4S383.9,307.9,383.9,300.109V282.05h5.4V300.2c0,4.243,1.787,6.327,5.449,6.327s5.449-2.084,5.449-6.327V282.05h5.4v18.059Z" transform="translate(29.37 45.645)" fill="#1c2122"/><path d="M403.05,282.05h6.074l6.863,18.178,6.863-18.178h6.074v29.121h-5.4V293.2l-5.583,15.3h-3.9l-5.583-15.3v17.97h-5.4Z" transform="translate(38.73 45.645)" fill="#1c2122"/><path d="M425.32,282.05h6.074l6.863,18.178,6.878-18.178h6.074v29.121h-5.419V293.2l-5.568,15.3h-3.915l-5.583-15.3v17.97h-5.4Z" transform="translate(49.615 45.645)" fill="#1c2122"/><rect width="5.404" height="29.12" transform="translate(507.599 327.695)" fill="#1c2122"/><path d="M454.58,282.05h21.557v4.987h-8.069v24.133h-5.419V287.037H454.58Z" transform="translate(63.917 45.645)" fill="#1c2122"/><path d="M280.815,89.764l7.116-9.2a5.468,5.468,0,0,0,1.533-3.618,2.3,2.3,0,0,0-2.456-2.62c-1.429,0-2.367.938-2.59,2.62l-3.305-.625a5.714,5.714,0,0,1,5.985-5.3c3.781,0,5.955,2.427,5.955,5.791a7.7,7.7,0,0,1-1.712,4.734L286.472,87.9h7.012v3.305H280.8V89.779Z" transform="translate(-21.023 -57.502)" fill="#1c2122"/><path d="M306.439,81.218c0,6.387-2.59,10.2-7.355,10.2s-7.355-3.826-7.355-10.2,2.59-10.2,7.355-10.2,7.355,3.826,7.355,10.2m-11.166,0c0,4.451,1.191,6.893,3.826,6.893s3.826-2.456,3.826-6.893-1.191-6.893-3.826-6.893-3.826,2.456-3.826,6.893" transform="translate(-15.681 -57.502)" fill="#1c2122"/><path d="M303.73,89.764l7.131-9.2a5.468,5.468,0,0,0,1.533-3.618,2.3,2.3,0,0,0-2.456-2.62c-1.429,0-2.367.938-2.59,2.62l-3.305-.625a5.714,5.714,0,0,1,5.985-5.3c3.782,0,5.955,2.427,5.955,5.791a7.7,7.7,0,0,1-1.712,4.734L309.4,87.9h7.012v3.305H303.73V89.779Z" transform="translate(-9.816 -57.502)" fill="#1c2122"/><path d="M321.1,78.424a6.232,6.232,0,0,1,6.432,6.491,6.326,6.326,0,0,1-6.67,6.491,6.411,6.411,0,0,1-6.67-6.491,7.471,7.471,0,0,1,.968-3.5l5.806-10.407h3.99l-4.332,7.414h.461Zm-3.305,6.491a3.083,3.083,0,1,0,6.164,0,3.083,3.083,0,1,0-6.164,0" transform="translate(-4.703 -57.507)" fill="#1c2122"/><path d="M348.219,65.96a19.771,19.771,0,1,1,0,39.542H290.231a19.771,19.771,0,0,1,0-39.542Zm0-4.02H290.231a23.8,23.8,0,0,0,0,47.6h57.988a23.8,23.8,0,0,0,0-47.6" transform="translate(-28.042 -61.94)" fill="#d6001c"/></g><text transform="translate(255.752 492.592)" fill="#231f20" font-size="26" font-family="ApercuPro-Regular, Apercu Pro"><tspan x="0" y="0" letter-spacing="0.04em">B</tspan><tspan y="0">R</tspan><tspan y="0" letter-spacing="0.06em">IT</tspan><tspan y="0" letter-spacing="0.04em">IS</tspan><tspan y="0" letter-spacing="0.05em">H </tspan><tspan y="0" letter-spacing="0.07em">C</tspan><tspan y="0" letter-spacing="0.03em">O</tspan><tspan y="0" letter-spacing="0.04em">L</tspan><tspan y="0" letter-spacing="0.05em">U</tspan><tspan y="0" letter-spacing="0.03em">M</tspan><tspan y="0" letter-spacing="0.04em">BI</tspan><tspan y="0" letter-spacing="0.05em">A</tspan><tspan y="0" letter-spacing="0.04em">, </tspan><tspan y="0" letter-spacing="0.06em">C</tspan><tspan y="0" letter-spacing="0.05em">A</tspan><tspan y="0" letter-spacing="0.04em">N</tspan><tspan y="0" letter-spacing="0.05em">A</tspan><tspan y="0" letter-spacing="0.03em">D</tspan><tspan y="0">A</tspan></text><text transform="translate(229.639 528.293)" fill="#231f20" font-size="26" font-family="ApercuPro-Regular, Apercu Pro"><tspan x="0" y="0" letter-spacing="0.04em">S</tspan><tspan y="0" letter-spacing="0.03em">E</tspan><tspan y="0" letter-spacing="0.06em">PT</tspan><tspan y="0" letter-spacing="0.04em">E</tspan><tspan y="0" letter-spacing="0.03em">M</tspan><tspan y="0" letter-spacing="0.04em">B</tspan><tspan y="0" letter-spacing="0.03em">E</tspan><tspan y="0" letter-spacing="0.05em">R </tspan><tspan y="0" letter-spacing="0.03em">1</tspan><tspan y="0" letter-spacing="0.05em">2</tspan><tspan y="0" letter-spacing="0.06em">T</tspan><tspan y="0" letter-spacing="0.05em">H </tspan><tspan y="0" letter-spacing="0.04em">T</tspan><tspan y="0" letter-spacing="0.05em">O </tspan><tspan y="0" letter-spacing="0.03em">2</tspan><tspan y="0" letter-spacing="0.05em">0TH</tspan><tspan y="0" letter-spacing="0.04em">, </tspan><tspan y="0" letter-spacing="0.03em">20</tspan><tspan y="0" letter-spacing="0.04em">2</tspan><tspan y="0">6</tspan></text></g></svg>