<?xml version="1.0" encoding="UTF-8"?>
<svg id="Layer_1" xmlns="http://www.w3.org/2000/svg" xmlns:xlink="http://www.w3.org/1999/xlink" version="1.1" viewBox="0 0 873 586.6">
  <!-- Generator: Adobe Illustrator 29.4.0, SVG Export Plug-In . SVG Version: 2.1.0 Build 152)  -->
  <defs>
    <style>
      .st0 {
        fill: none;
      }

      .st1 {
        fill: #d6001c;
      }

      .st2 {
        fill: #231f20;
      }

      .st3 {
        fill: #f4f4f4;
      }

      .st4 {
        isolation: isolate;
      }

      .st5 {
        fill: #1c2122;
      }

      .st6 {
        clip-path: url(#clippath);
      }
    </style>
    <clipPath id="clippath">
      <rect class="st0" x="153.4" y="85.9" width="582.4" height="371.6"/>
    </clipPath>
  </defs>
  <g>
    <path class="st3" d="M837.8,451.8v-4.4c-.3.6-.6,1.1-.9,1.6.3.9.5,1.8.9,2.8h0Z"/>
    <path class="st3" d="M872.7,304.6c-.8-1-.9-2.4-.4-3.5.3-.8.3-1.7,0-2.5-.4-1.8-1-3.5-1.7-5.2,0-.2,0-.3,0-.5,0-1.4-.2-1.5-1.1-1.6,0,0-.1,0-.2,0,.2-.3.4-.6.6-.8,0-.2,0-.4-.1-.6-.5-.9-.8-1.9-1.1-2.9-.2-.7-.2-1.5,0-2.2.4-.9.2-1.9-.4-2.7-.2-.3-.3-.7-.3-1.1,0-.9-.2-1.8-.6-2.6-.7-1.6-1.3-3.4-1.6-5.2-.3-1.5-.7-3-1.1-4.5,0-.2-.1-.4-.2-.6,0-1-.4-2-1.1-2.7,0,0-.1-.2-.1-.3.1-1-.3-2,0-3.1.3-1.4,0-2.9-.5-4.1-.1-.4-.2-.8-.3-1.2.9.2.6,1.4,1,1.9.5-.7.5-.9.3-1.6-.2-.6-.4-1.2-.7-1.9-.2.1-.3.2-.5.3-.7.4-.9.3-1.4-.6-.6-1.5-1.3-2.9-1.8-4.4,0-.4-.1-.9,0-1.3,0-.3.2-.6.1-.8-.3-1.6-.6-3.2-1-4.8-.2-.8-.2-.8-.9-.6-.1-.8-.4-1.5,0-2.3.2-.5.2-1.2,0-1.7-.3-1-.8-2-1.4-2.8-.5-.6-.8-1.4-.6-2.2,0,0,0-.2,0-.3-.2-1.3-.1-2.7.2-4-.5,0-1,0-1.5,0,0-.4,0-.7,0-1,0-.3,0-.6,0-.9-.2-1.3-.2-1.4.7-1.5,0-.2,0-.5,0-.7-.5-.3-.4-1.1-.6-1.7-.2-.5-.5-1-.8-1.4-.2.4-.3.6-.5.9-.7-.7-1.1-1.7-1.2-2.7-.2-1.3-.5-2.6-1-3.9-.5-1.6-1-3.4-1.4-5.1-.3-1.5-.7-3-1.2-4.5-.3-.9-.6-1.8-.6-2.7-.2-1.5-.7-2.8-1-4.2-.6-2.6-1.3-5.2-1.8-7.7-.2-1.4-.6-2.8-.9-4.2-.1-.3-.3-.6-.6-.8,0-.5,0-.9-.1-1.4-.8-3-1.6-6-2.3-9-.8-3.1-1.5-6.2-2.2-9.3-.3-1.4-.5-2.8-.7-4.2,0-.5-.2-1-.4-1.5-.5-1-.7-2.2-.6-3.3l-1.1-3.7c-.5-.5-.6-1.2-.5-1.8l-.3-.9c-.6-.5-.6-1.4-.9-2.2-.4-1.5-.7-3-1.1-4.5l-.5-1.8c-.3-.7-.6-1.4-.8-2.1-.2-.5-.3-1-.5-1.5l-.9-5.1-1.3-.5c-.5.5-1.3.6-1.9.2-2.7-1.2-5.6-2.1-8.3-3.3-1.8-.8-3.4-1.8-5.2-2.7l-4.6-1.7c-3.8-1-7.5-2.1-11.2-3.4-2.1-.8-4.6-.9-5.8-3l-2-.8c-1.8.5-3.6-.2-4.6-1.8l-9.1-3.4c-3,.5-5.6-.6-8.2-1.9-1.2-.6-2.4-1-3.7-1.3-3.4-.8-6.9-1.2-10.3-2.2-7.7-2.3-15.5-4.6-23.1-7.2-7.4-2.4-14.9-5.1-22.3-7.5-1.1-.2-2.3-.4-3.4-.3-.7-.7-1.3-1.6-2.1-1.9-3.4-1.2-6.9-2.2-10.5-2.9-6.4-1.3-12.8-3.6-19.2-5.5-3.4-1-6.7-2.6-10.4-3.1-2.4-.2-4.7-.9-6.8-2-3.5-2.1-7.4-2.6-11.1-3.8-4.3-1.3-8.5-2.8-12.7-4.5-3.1-1.4-6.2-2.9-9.6-3.2-3-.3-4.9-1.9-6.8-4.1.7-.6,1.3-1,2.2-1.8-1.1-1-2.2-1.9-3.5-2.6-1.4-.6-3.3-.3-4.2-2.1,0-.2-1.1,0-1.7,0-.3,3.3-.4,3.4-3.7,2.8-.7,0-1.4,0-2.1.1-.7,0-1.4,0-2.3,0,0-1.8,0-3.5,0-5.3-3.5,1.1-6.6,2.1-9.9,1.3-.2,0-.4,0-.6,0-2.3.5-4.3,0-5.6-1.9-1.7-2.5-4.6-3.5-7.1-4.9-1.3-.8-3-.7-4.2.2-2,2-3.7.9-5.7.6.5-2.6.5-2.7-1.6-3.3-4-1.1-8-2.1-12-3-.6-.1-1.3.5-2,.6-1.1,0-2.4.4-3.2,0-3.8-1.9-7.4-4-11-6.2-2.4-1.4-2.5-2.1-1.7-4.8.2-.6.4-1.1.6-1.8-1.7-.8-3.2-1.5-4.7-2.1-1.8-.8-2.2-.7-3.9,1.1,1.2,1.5,4.3.4,4.8,3.5-1-.2-2-.5-3-.9-3-2-6.8-2.6-10.2-1.5-2.7.7-5-.6-7.5,0-.2,0-.6-.3-.7-.5-1.5-2.3-4-3.8-6.7-3.8-.5-.1-1-.3-1.5-.5-3.7-1.2-7.4-2.7-11.2-3.6-4.5-.9-8.9-2.7-12.8-5.1-2-1.1-4.1-1.7-6.4-1.8-1,0-2-.4-2.8-1.1-1.9-2.3-4.2-2.1-6.6-1.1-1.7.8-3.6.9-5.3,0-2.4-1.2-5.4-1.5-7.3-3.5-.3-.3-1-.3-1.5-.5-.7.7-1.4,1.4-2,2,0-.2,0-.4,0-.7-.3-3.3-.4-3.5-3.9-3.7-.4,0-.8-.1-1.2-.3-3.9-2.7-8.5-4-13-5.7-2.1-.7-4.3-.5-6.2.6-3.5,1.8-6.2,1.6-8.7-1.1-.2-.3-.5-.5-.7-.8-2.1,1-4.2,2.1-6.2,3.1-3.1,1.5-6.4,2.7-9.3,4.3-9.1,5.3-19.1,9.1-27.8,15.2-.8.5-1.7,1-2.6,1.4-5,2.4-9.6,5.5-13.7,9.1-1.7,1.6-4.6,3-7.1,4.2-7.4,3.6-15,7-22.3,10.7-7.2,3.7-14.3,7.8-21.4,11.9-.9.5-1.7,1-2.5,1.5-7,5.3-15.1,9.7-22.5,14.5-.8.5-1.7.9-2.6,1.3-3,1.6-6,3.3-9.3,5.1-.8-1.3-2.5,0-4.7,1.6-1.8,1.4-3.8,2.6-6,3.6-2.5,1.1-2.2-.8-3-1.6-1-.9-2.5-.3-4,1.6-.3.5-.6,1-.7,1.6,2,.4,3.8.7,5.7,1.1-1.2,1.2-1.9,2-2.7,2.9-2.4,2.6-4.7,4.1-8,4.6-2,.3-4.7,1.8-7,2.8-5.7,2.5-11.6,5.9-17.8,7.5-5.3,1.5-10.5,3.2-15.6,5.2-.1,1-.7,2.2-.3,2.8.2.4,1.8,0,2.8-.4.6-.2,1.4-.7,2-1,2.8-1.1,3.5-.7,2.5,1.7-.5.9-1,1.8-1.6,2.7-3.7,1.1-8.7,6.4-10.3,2.7-1.9,1.3-3.5,2.5-5.2,3.5-1.8,1.1-3.8,2-5.5,3.2-5,3.5-8.9,4.3-12.5,3.5,3.6-3.7,3.9-3.9,10.6-7.4,1.4-1.2,2.8-2.6,4.3-3.6,1.5-.9,3-1.7,4.6-2.4,0-2.7-1.7-4.1-3.7-5.5,1.3-1.2,2.3-2.2,3.9-3.7-1.5.2-2.5.3-3.6.4.3-1.4.6-2.8,1-4.5-1,.1-2,.3-2.9.4,0-.1-.2-.3-.1-.3,1.5-1.5,3.1-2.9,4.7-4.2.9-.6,2.9-1.1,3.1-.7.7,1.5,3.1,1.1,4.6,1.6.9.3,1.3,1.3,2,1.9.4.4.7,1.1,1.4,1.1,3.2-.1,3,2,2.5,4.9,1.6-.5,3.2-1.1,4.7-1.9,7.1-4.1,14.2-8.3,21.3-12.4,0-.8,0-1.8,0-2.3-1.1,0-2.2,0-3.3-.2-2-.6-3.3,0-4.7,2.4-.7,1.3-1.3,2.6-1.8,4-1.6.5-3,.9-4.5,1.3-.6.8-1.2,1.5-2.4,3.1-.3-1.4-.5-2.2-.7-3.1-1.8.5-3.5,1-5.9,1.7,2.8-3.3,5.8-5.2,8.9-7.3,1.3.3-.5,3.7,3.1,1.4.2-.3.6-.6.5-.8-.1-1-.9-1.9-.3-2.8,1.2-1.7,2.6-1.2,4-1.4,2.9-.4,4.4-2.5,6.1-4.7-.7-.4-1.3-.7-2.2-1.2,2.2-1.4,4.1-2.5,5.9-3.6,1.7-1,3.6-2,4-3.7.4-1.7-1.5-.9-2.9-.7-.5,0-.9,0-1.4-.2,1.4-1.9,2.8-3.8,4.3-6-3.2,1.1-6,2.1-9.3,3.3-2.7,2.1-1.4,3.8-2,5.8-.5,1.8.2,3.1.5,5-1.3.3-2.7.4-3.4,1-5,4.2-6.3,2.3-7.8.6,0,0-.3,0-.9,0-.8.8-1.8,1.8-3,3.1,1.9.5,3.5,1,5.6,1.6-3.6,3-6.8,5.6-10.7,8.4,0-1,0-1.3.2-1.7,1.8-3.1,1.4-4.3-1.6-4.2-1.4,0-2.3-.7-2.5-2.2-3.7,1.4-7.5,2.8-11.4,4.5-1.2.7-2.3,1.8-3.1,3-1.7,2.5-3,5.1-4.8,8.2.2.6,1.1,1.5.7,2.8-.4,1.2-2,2.9-3.3,4.3-.7.7-1.4,1.3-2.3,1.7-2.4,1.2-4.8,2.3-7.9,3.8,2.5-2.9,4.7-5.6,6.6-7.7-.1-1.4-.3-2.6-.5-4.2-1.3.5-2.9,1-4.5,1.6-.3,1.8-.6,3.6-.9,5.3-2.3,1.4-4.8,2.9-7.3,4.6-1.9,1.3-2.6,2.8-2.5,4,.1,1.3.5,2.4.8,3.6,5.1-1,11.3-4,14.9-8.2,2.4,2.3,7.9-3.3,11.6-2.6-2,2.6-3.9,5.1-5.8,7.7-1.4-1.1-3.3-1.6-6.1-1-4.4.9-7.2,5-10.8,7.1-1.3,0-2.5,0-4.4.2.7,2.5,3.6,2.9,1.7,6.5,2.5-1.5,4.3-2.6,6.9-4.1-1.1,1.8-1.7,2.8-2.3,3.8,1.4.2,3.9-.5,2.8,2-.8,1.8-2.7,3.1-6.6,4.5,0-1.2,0-2.4.1-3.5-2.9,1-3.6-1.9-7.1.8h0s0,0,0,0c1.3-.1,3.2-.8,1.8,1.7-2.1.7-3.8,1.2-1.8-1.7h-.1s0,0,0,0c0,0,0,0,0,0,0,0,0,0,0,0-1.8-.3-3.9,1.1-6,2.5-3.2,2.1-6.4,4.2-9.6,6.2-.7-.6-1.1-1-1.6-1.4,1.5-1.4,2.9-2.7,5.1-4.6-5-.2-.6-5.3-1.7-8.3,2.2-.2,4.7-1,5-.3.5,1.2-.5,3.3-.9,5.5,3.4-2.1,6.9-4.2,10.1-6.2.7-3.1,0-4.5-2.8-4.5-1,0-1.8-.8-1.9-1.8-.2-1.5-1.4-1.5-3.1-1.4-2.9.1-4.9,2.3-7.2,4.9-1.1-2.2-3.5-1.9-6.6.2-2.4,1.6-4.6,3.6-7.1,5.7,0,.6.2,1.4.3,2.1-3.2,1-6.2,2.5-8.9,4.4,2.2.9,2.9,2.7.3,6.1,1,.4,2,1,2.9,1.7.4.4.2,1.4.3,2.2-1.1.6-2.5,1.8-3.1,1.7-2.7-.3-5.9-.2-5.6-3.7,0-1.3-.1-2.6-.3-3.8-3.6,1.8-7.1,3.6-10.5,5.5-.6.3-1.1,1.4-1.8,2.3,1.3-.2,2.7-.4,4.1-.4,2.1,0,2,1.2-.1,3.6-1.8,2-3.7,3.9-5.4,5.8.3,1.1.4,2.2.3,3.3,0,.4-1,1.4-1.7,1.9-.3.2-.7.3-1.1.2.8-3-2.1,0-3-.1-.2,0-.3-.2-.4-.4,1-1.1,2.1-2.3,3.9-4.4-2.1,1.1-2.9,1.6-3.8,2,1.5-2.5,5.6-3.2,6.5-6.8-1.7,1-3.1,1.8-4.4,2.6-2.4-2.7-2.4-2.7,3-9.3,2.8,0,5.7-2.6,8-4.8,4.9-4.7,10.2-9,16-12.6.9-.5,1.6-1.1,2.4-1.7.8-.9,1.9-2.5,1.7-2.9-.7-1.1.2-2.4,1-3.9.4-.8-.1-1.4-.2-2.1-2.7,2.2-5,4-7.2,5.9-.7.6-1.7,1.6-1.8,2-.3,2.5-2.8,3.9-4.9,5.6-1.5,1-2.9,2.1-4.2,3.4-4.1,4.4-10,6.9-15,10,1.1-1.4,2.3-2.8,3.1-3.8-.6-1.1-1-2-1.4-3-.5-1.3-1.7-1.8-3.8-.2-3.6,2.7-8.1,4.3-10.4,8.9-.3.7-2,1.7-3.1,2.3-4.9,2.8-9.4,7.1-14.4,9.8-.9.7-1.7,1.6-2.3,2.6-.7.8-1.4,1.7-2.1,2.6-1,0-2,0-3,0-1.1.3-2.1.7-3.1,1.1,0-1,0-1.8.2-3-4.4,3.6-.4,4-2.6,7.1-2.4,1.6-4.9,3-7.4,4.2-2.4,1-3.5,2.5-4.8,4.4-.1.2-.2.4-.3.6l-.3,3.8c-.2.8-.5,1.6-.7,2.4-.3.7-.6,1.4-.8,2.1l-.5,1.8c-.3,1.5-.7,3-1.1,4.5-.2.8-.3,1.8-.9,2.2l-.3.9c.1.7,0,1.3-.5,1.8l-1.1,3.7c0,1.1-.2,2.3-.6,3.3-.2.5-.3,1-.4,1.5-.3,1.4-.4,2.8-.7,4.2-.7,3.1-1.5,6.2-2.2,9.3-.8,3-1.6,6-2.3,9,0,.5-.1.9-.1,1.4-.2.3-.5.5-.6.8-.4,1.4-.7,2.8-.9,4.2-.4,2.6-1.1,5.2-1.8,7.7-.4,1.4-.7,2.8-1,4.2,0,.9-.3,1.9-.6,2.7-.5,1.5-.9,2.9-1.2,4.5-.4,1.7-.8,3.5-1.4,5.1-.5,1.2-.8,2.5-1,3.9,0,1-.5,2-1.2,2.7-.1-.3-.3-.5-.5-.9-.3.4-.6.9-.8,1.4-.2.6-.1,1.3-.6,1.7,0,0,0,.5,0,.7.9.2.9.2.7,1.5,0,.3,0,.6,0,.9,0,.3,0,.6,0,1-.5,0-1,0-1.5,0,.3,1.3.4,2.7.2,4,0,0,0,.2,0,.3.2.8,0,1.6-.6,2.2-.7.8-1.1,1.8-1.4,2.8-.2.5-.2,1.2,0,1.7.5.8.2,1.5.1,2.3-.7-.2-.7-.2-.9.6-.4,1.6-.7,3.2-1,4.8,0,.2.1.5.1.8,0,.4,0,.9,0,1.3-.6,1.5-1.2,3-1.8,4.4-.4,1-.6,1-1.4.6-.1,0-.3-.2-.5-.3-.2.7-.4,1.3-.7,1.9-.3.7-.2.9.3,1.6.4-.5.1-1.7,1-1.9,0,.4-.1.8-.3,1.2-.6,1.3-.8,2.7-.5,4.1.2,1.1-.2,2-.1,3.1,0,.1,0,.2-.1.3-.7.7-1.1,1.7-1.1,2.7,0,.2,0,.4-.2.6-.4,1.5-.8,3-1.1,4.5-.3,1.8-.8,3.5-1.6,5.1-.3.8-.5,1.7-.6,2.6,0,.4-.1.8-.3,1.1-.6.8-.7,1.8-.4,2.7.2.7.2,1.5,0,2.2-.2,1-.6,2-1.1,2.9,0,.2-.1.4-.1.6.2.3.4.6.6.8,0,0-.1,0-.2,0-.9,0-1,.1-1.1,1.6,0,.2,0,.3,0,.5-.7,1.7-1.3,3.4-1.7,5.2-.2.8-.2,1.7,0,2.5.5,1.2.4,2.5-.4,3.5,0,0-.1.2-.2.3.3.8.5,1.7.8,2.6.4,1.3.7,2.6,1.1,3.8,1.4,3.8,2.3,7.9,3.9,11.4.1.4.3.7.4,1.1.6,2,1.4,3.9,2.4,5.7.5.9.8,1.9,1.1,2.9.9,3.1,1.8,6.2,2.7,9.2,1,3,2,5.9,3.1,8.8.1.4.2.7.4,1,1.4,2.9,2.5,6.3,3.8,9.3.1.3.2.7.3,1.1.4,1.2.8,2.5,1.3,3.8-.4.3,0,1,.4,1.9.4.8.7,1.6.9,2.5.3,1-.3.9-.5,1.2-.3.4-.1,1,.4,1.6.1.1.3.2.4.3.1-.8.2-1.5.4-2.3.3.5.6.8.8,1.1.7,1,1.1,2.1,1.2,3.3.2,1,.4,1.9.7,2.9.8,2.4,1.4,4.8,1.9,7.3.3,2.1.8,4.3,1.3,6.4.3,0,.6.3.8.2,0,0,0-.7,0-1.1,0-.3-.2-.6-.3-.8-.3-1.2-.1-1.4.5-1,.3.2.5.4.7.7.3,1.5,1.7,3.6.6,4.2.3.8.6,1.5.9,2.2.3.7.5,1.5.8,2.3.8,1.6,1.1,3.4.8,5.1-1-1.5-1.1-1.6-1.9-4.4-.3-.6-.7-1.2-1-1.8-.3-.6-.4-1.3-.6-1.9-.7,0-1.2.7-1.6,1.4-.3-.5-.6-1-1-1.6,0,.6,0,1,0,1.5-.4-.1-.8-.3-1.2-.4,0,.4,0,.8,0,1.2,0,0,0,0,0,0-.4-.6-.8-1.3-1.1-2-.2-.4-.2-.8-.2-1.3.4-.3.3-1.2.5-1.8.1-.4.4-.5.6-.8.1-.2.3-.3.3-.6,0-1.3.6-1.2,1.4-1-.1-.7-.3-1.3-.5-1.9-1.1-2.9-2.2-5.9-3.2-8.8h-.6c0,.4,0,.9,0,1.3-.2.7,0,1.5.6,1.9.3.3.7.5,1.1.8.1.7.2,1.3.3,1.8.2.3.4.5.8,1-.4.1-.6.2-.9.2.1.7.2,1.4.4,2.4-.8-1.1-1.5-2.4-1.9-3.7.1-.5,1,.3.4-1.3,0,0-.2-.2-.2-.2-.3,0-.5.4-.8,0-.5-.5-.3-1.1-.3-1.6-.1-1-.5-1.9-1.2-2.5-.1.3-.2.5-.3.9-.4-.9-.6-1.7-.9-2.5-.3-.7-.5-1.5-1-1.7s-.3.6-.2,1.2c0,.2,0,.4,0,.6-.5-.6-1-1.2-1.6-1.8.3,1.3.5,2.4.8,3.8.6,1.1,1.1.6,1.6.9.5.2.9,0,1.4-.1,0,.5,0,.9.2,1.4,1.1,2.1.6,2.6,0,3.2,0,.1,0,.2,0,.4.2.3.5.7.8,1.3.2-.8.3-1.4.5-2.2.8,1.5,1.5,2.8,2.2,4.5-.3,0-.4,0-.5,0-.8-.8-1.2-.6-1.2.6s-.2.9-.7,1c.4,1.5.7,3.1,1.1,4.7.2.5.4.9.8,1.3.7.7,1.4,1.3,2.2,2,.2,0,.4-.4.8-.3.5.4.8.9,1.1,1.4.2.3.4.6.5,1,.3,1,.6,2,1,3.3-.8-1-1.5-2-2.1-2.8-.4,0-.7,0-1.2.1.1.6.3,1.2.4,1.8.5.1,1,.3,1.5.4.4.9.8,2,1.2,3,.3.8.7,1.1,1.1,1.1.3,0,.7-.2,1-.3-.2-2.2-.9-4.3-2.1-6.1.7-1-.8-3.3-.6-4.7.7.8,1.4,1.6,2.1,2.4-.4.8-.5,1.6-.3,2.5.2,1.8,1.3,3,1.9,4.5v1.8c.7-.3.8-1.4,1.8-.6-.4-1-.7-1.8-1.1-2.8.5.5.8.7,1,1,0-.6,0-1.6.6-1.1.5.3.8,1.1,1.2,2.8h-1c.2,1.1-.6,1.3.1,2.8h0c0-.6-.2-1.3.5-.8.2.9.3,1.5-.5.7h0s0,0,0,0c0,.9.2,1.7.6,2.5.6,1.3,1.1,2.7,1.6,4-.2.3-.3.4-.4.6-.4-.6-.7-1.2-1.2-2.1-.1,2-1.5.2-2.3.6,0-.9-.2-1.9,0-2,.3-.2.9.2,1.5.4-.5-1.4-1.1-2.8-1.6-4.2-.8-.3-1.3,0-1.3,1.1,0,.3-.2.6-.5.8-.4,0-.4.6-.4,1.3,0,1.1.5,2.2,1.3,3-.6.4-.6,1.4,0,2.7.4,1,1,1.9,1.5,2.9.2,0,.4,0,.6,0,.2,1.3.6,2.5,1.1,3.7.3-.9.8-1.2,1.7,0,.1-.4.3-.8.5-1.2.1-.2.4,0,.6,0,.2.4.3.8.4,1.3-.1,1.1-.1,2.4-1.1,2.2-.4,0-.7,0-1.1.1.5,1.5.9,2.9,1.4,4.3.2.3.4.5.6.8,0-.6,0-1.2,0-1.7,0-.8.3-.8,1,.1.5.8,1.1,1.5,1.6,2.3.3,0,.6-.1.9-.1.1,0,.4.4.5.7,0,.1,0,.3,0,.4-.8-.4,0,.8,0,1.2,0,0,0,.1,0,.2-.3-.4-.6-.9-1.2-1.6l.5,1.6c-.7-.6-.8-2.3-1.8-2.7.3.7.5,1.3.7,1.8-.8.9-.8.9-2.5-1.3,0-1.2-.5-2.3-1.3-3.3-1.3-2.1-2.4-4.3-3.3-6.6-.1-.3-.3-.7-.5-1-.3-.3-.7-.8-.8-.7-.3.3-.7,0-1.1-.4-.2-.2-.4,0-.6,0,.6,1.1,1.1,2.1,1.5,3,.2.3.4.7.6.7.7.1,1.1,1.2,1.5,2.1.3.6.6,1.2.9,1.7,1.2,1.7,1.8,4.1,2.6,6.2-.4-.5-.8-1-1-1.3-.3.2-.6.4-.8.6-.4.2-.5.7,0,1.5.7,1.5,1.1,3.4,2.4,4.3.3.4.5.8.6,1.3.7,2,1.9,3.9,2.6,6,.2.4.4.7.7,1,.2.3.4.6.7.9,0,.4,0,.8,0,1.2,0,.4.2.9.3,1.3-.3,0-.5,0-.8-.1.9,1.8,1.1.2,1.9,1.1.4,1,.8,2,1.1,3.1.2.8.6,1.4,1.2,2,0,0,0,.1.1.1l19.1,3.3c2.7.5,243.9,50.1,246.4,50.9,1.7.5,3.1,1.8,5.1,1,2,.9,4,.4,5.9-.5,1.6.7,3.1,1.4,4.5,2.1,0,.8-.2,1.5-.3,2.1,2.1,1.5,3.1,1.3,4.7-.7.6-.7.8-1.6,2-1.4,2.3.3,4.6.5,6.8.9,2.5.4,4.9,1.4,7.4,1.4,3.3,0,6.6,0,9.8.3,2,.2,4.3-.4,5.4,1.9,2-1.2,3.7-1.6,5.2,0,.2.2.6.2.9.3,1.4.2,2.8.4,4.2.5.7.1,1.4,0,2.1-.2,2.3-1,4.5-.7,6.7-.3,1,.2,2,.3,3.1.3,2.7,0,5.5-.5,8.2-.4,6.3.2,12.6.4,18.8.7,6.1.3,12.2.8,18.3,1.2.9,0,1.8-.2,2.7-.4.7.4,1.3,1,1.9,1,2.8.2,5.6.2,8.5,0,5.1-.3,10.4.1,15.5.3,2.8,0,5.5.6,8.4.3,1.8-.3,3.7-.2,5.5.2,3,.9,6,.5,9.1.7,3.5,0,6.9.4,10.4.8,2.6.4,5.2,1,7.9.5,2.3-.4,4,.4,5.8,1.7-.4.6-.8,1.1-1.4,1.9,1,.6,2,1,3.1,1.3,1.2.2,2.6-.4,3.5.7,0,.1.9-.2,1.3-.4-.2-2.6-.1-2.7,2.5-2.9.6-.1,1.1-.3,1.6-.5.5-.2,1.1-.3,1.8-.5.3,1.4.5,2.7.7,4.1,2.5-1.5,4.7-3,7.4-3,.1,0,.3-.1.5-.2,1.7-.8,3.3-.9,4.6.3,1.7,1.6,4,1.7,6.2,2.3,1.2.3,2.4,0,3.2-1,1.2-1.9,2.8-1.5,4.3-1.6,0,2.1,0,2.2,1.7,2.2,3.2,0,6.4,0,9.6-.2.5,0,.9-.7,1.4-.8.8-.4,1.6-.6,2.5-.7,3.2.7,6.3,1.6,9.4,2.5,2,.6,2.2,1.1,2,3.3,0,.5-.1.9-.2,1.5,1.4.2,2.7.5,3.9.7,1.5.3,1.8.1,2.9-1.7-1.1-.9-3.3.6-4.2-1.7.8,0,1.6,0,2.4,0,2.7.9,5.7.6,8.1-1,2-1.1,4-.6,5.8-1.5.1,0,.5,0,.6.2,1.5,1.5,3.7,2.1,5.7,1.5.4,0,.8,0,1.2,0,3,.2,6.1.6,9.1.4,3.6-.2,7.2.2,10.6,1.3,1.7.4,3.5.5,5.2,0,.8-.2,1.6-.1,2.3.2,1.8,1.4,3.5.8,5.2-.5,1.1-1,2.6-1.4,4.1-1.2,2,.4,4.3,0,6.1,1.2.3.2.8,0,1.2,0,.4-.7.8-1.3,1.3-2,0,.2,0,.3,0,.5.7,2.5.8,2.6,3.6,2.1.3,0,.6,0,1,0,3.4,1.3,7.1,1.3,10.8,1.7,1.7.1,3.5-.5,4.7-1.8,2.5-2.1,4.6-2.5,6.8-.9.2.1.4.3.6.5,1.5-1.2,2.9-2.4,4.4-3.6,2.2-1.8,4.6-3.4,6.5-5.3,6.3-6,13.4-11,19.2-17.4.6-.6,1.2-1.1,1.8-1.7,3.5-2.9,6.6-6.2,9.2-9.8,1.4-1.8,3-3.3,4.9-4.7,5.2-4.3,10.6-8.5,15.7-12.9,5-4.3,9.9-9,14.8-13.5.6-.5,1.2-1.1,1.7-1.7,4.6-5.6,10.3-10.6,15.3-15.8.5-.6,1.2-1,1.8-1.6,2.1-1.9,4.1-3.8,6.4-5.9.8.8,1.9-.4,3.4-2.2,1.2-1.5,2.6-2.8,4.1-4,1.8-1.3,1.8.2,2.5.6.9.5,2-.3,2.8-2,.2-.4.3-.9.3-1.4-1.6.1-3,.2-4.5.3.7-1.2,1.2-2,1.7-2.8,1.2-2.3,3.1-4.1,5.5-5.2,1.5-.7,3.4-2.4,5-3.6,3.9-3.1,7.9-6.8,12.3-9.2l4.7-.8c-4.6,4.4-9.2,8.8-13.9,13.2.1.6.3,1.4.3,1.7.8-.3,1.7-.4,2.5-.5,1.6,0,2.6-.7,3.3-2.8.3-1.1.6-2.3.8-3.4,1.2-.7,2.2-1.3,3.2-2,.3-.7.7-1.4,1.4-2.9.4,1,.7,1.6,1,2.3,1.3-.8,2.6-1.5,4.3-2.5-1.6,2.8-3.5,5.3-5.9,7.5-1,0-.1-2.9-2.6-.4,0,.3-.3.6-.3.7.2.7,1,1.3.6,2.1-.7,1.6-1.8,1.5-2.9,1.9-2.2.9-3,2.8-4,4.9.6.1,1.1.3,1.9.4-1.5,1.5-2.8,2.8-4.1,4-1.2,1.1-2.5,2.3-2.5,3.6,0,1.4,1.3.4,2.4,0,.4,0,.7-.1,1.1-.1-.8,1.8-1.6,3.5-2.5,5.5,2.3-1.5,4.3-2.9,6.7-4.5,1.8-2.2.6-3.2.7-4.9.1-1.5-.6-2.4-1.1-3.7,1-.5,2-.8,2.5-1.4,3.3-4.3,4.5-3.1,5.9-2.1,0,0,.2,0,.7-.2l1.9-3c-1.5,0-2.8,0-4.5,0,2.4-3,4.4-5.7,7.1-8.7,0,.8.2,1,0,1.3-1,2.8-.5,3.6,1.8,2.9.8-.3,1.8,0,2.2.9,0,.1,0,.2,0,.3,2.7-1.9,5.4-3.7,8.1-5.8.8-.8,1.5-1.8,1.9-2.9.9-2.3,1.6-4.6,2.5-7.3-.3-.4-1.1-.9-1-2,0-1,1.2-2.6,1.9-4,.4-.7.9-1.3,1.5-1.8.8-.7,1.6-1.3,2.5-2v-2.9c-.7.8-1.2,1.7-1.8,2.6-1.4-.8-3.4,1.2-5.4,2.8.7-1.8,1.6-3.4,2.3-5.2,1,0,2-.4,2.9-.8.8-.4,1.5-.9,2.1-1.5v-5.7c-.7,1.2-1.5,2.4-2.4,3.5.2-.5.4-.9.6-1.3.4-.9.3-1.4,0-1.5-.2,0-.4-.2-.5-.3.8-.3,1.7-.5,2.5-.5v-7.1c.3-.7.7-1.3,1.2-1.4.1,0,.4-.4.6-.7.5-.9,1-1.9,1.5-3-.2,0-.4-.2-.6,0-.4.3-.8.7-1.1.4,0,0-.5.4-.8.7-.2.3-.3.6-.5,1-.1.3-.3.5-.4.8v-2.8h0c.5-1,1.1-2,1.5-2.9.6-1.3.6-2.3,0-2.7.7-.8,1.2-1.9,1.3-3,0-.7,0-1.2-.4-1.3-.3-.1-.5-.4-.5-.8,0-1.1-.4-1.4-1.3-1.1-.2.5-.4,1.1-.6,1.7v-4.2c.7-.3.9.6,1.5.8v-1.8c.6-1.5,1.7-2.7,1.9-4.5.1-.8,0-1.7-.3-2.5.7-.8,1.4-1.6,2.1-2.4.2,1.5-1.3,3.8-.6,4.7-1.2,1.8-1.9,4-2.1,6.1.3.1.7.2,1,.3.4,0,.8-.3,1.1-1.1.4-1,.8-2.1,1.2-3,.5-.1,1-.3,1.5-.4.1-.7.3-1.3.4-1.8-.5,0-.8-.1-1.2-.1-.6.8-1.3,1.7-2.1,2.8.4-1.3.7-2.3,1-3.3.1-.3.3-.7.5-1,.3-.5.7-1,1.1-1.4.4-.2.6.2.8.3.8-.7,1.5-1.3,2.2-2,.4-.4.6-.8.8-1.3.4-1.6.8-3.2,1.1-4.7-.4,0-.7-.4-.7-1,0-1.2-.3-1.4-1.2-.6,0,0-.2,0-.5,0,.7-1.6,1.4-2.9,2.2-4.5.2.9.3,1.5.5,2.2.3-.5.6-.9.8-1.3,0-.2,0-.3,0-.4-.5-.6-1-1.1,0-3.2.1-.5.2-.9.2-1.4.5,0,.9.4,1.4.1.5-.3,1,.2,1.6-.9.3-1.4.6-2.5.8-3.8-.6.7-1.1,1.2-1.6,1.8,0-.2,0-.4,0-.6,0-.6.2-1.4-.2-1.2-.4.2-.7.9-1,1.7-.3.8-.6,1.5-.9,2.5-.1-.4-.2-.6-.3-.9-.7.7-1.1,1.6-1.2,2.5,0,.6.1,1.1-.3,1.6-.2.3-.5,0-.8,0,0,0-.1.1-.2.2-.6,1.5.3.7.4,1.3-.5,1.3-1.1,2.6-1.9,3.7.2-1,.3-1.7.4-2.4-.3,0-.5-.1-.9-.2.4-.5.6-.7.8-1,0-.6.2-1.2.3-1.8.4-.2.7-.5,1.1-.8.6-.4.8-1.2.6-1.9,0-.4,0-.9,0-1.3h-.6c-1.1,2.9-2.1,5.9-3.2,8.8-.2.6-.3,1.3-.5,1.9.8-.2,1.4-.3,1.4,1s.2.4.3.6c.2.3.4.4.6.8.2.6,0,1.6.5,1.8,0,.4,0,.9-.2,1.3-.3.7-.7,1.3-1.1,2,0,0,0,0,0,0,0-.4,0-.8,0-1.2-.4.2-.8.3-1.2.4,0-.4,0-.8,0-1.5-.4.7-.7,1.1-1,1.6-.4-.8-.8-1.5-1.6-1.4-.2.6-.4,1.3-.6,1.9-.3.6-.6,1.2-1,1.8-.9,2.8-1,2.9-1.9,4.4-.3-1.7,0-3.5.8-5.1.3-.7.5-1.5.8-2.3.3-.7.6-1.4.9-2.2-1.1-.6.4-2.7.6-4.2.2-.2.5-.5.7-.7.6-.5.8-.2.5,1-.1.3-.2.6-.3.8,0,.4-.2,1.1,0,1.1.2.1.5,0,.8-.2.5-2.1,1-4.2,1.3-6.4.5-2.5,1.1-4.9,1.9-7.3.3-.9.6-1.9.7-2.9,0-1.2.5-2.3,1.2-3.3.2-.3.4-.6.8-1.1.1.8.2,1.5.4,2.3.2,0,.3-.2.4-.3.5-.6.7-1.2.4-1.6-.2-.3-.7-.2-.5-1.2.2-.8.5-1.7.9-2.5.4-.9.8-1.6.4-1.9.5-1.4.9-2.6,1.3-3.8.1-.4.2-.7.3-1.1,1.3-3.1,2.4-6.4,3.8-9.3.2-.3.3-.7.4-1,1-2.9,2.1-5.9,3.1-8.8,1-3,1.8-6.1,2.7-9.2.3-1,.6-2,1.1-2.9,1-1.8,1.8-3.7,2.4-5.7.1-.4.2-.7.4-1.1,1.6-3.6,2.5-7.7,3.9-11.4.4-1.2.7-2.5,1.1-3.8.3-.9.5-1.7.8-2.6,0,0-.2-.2-.2-.3h-.1ZM146.2,131.3c.6-.3.9-.4,1.2-.5,0,.5-.2,1-.3,1.4-.3.2-.5.3-.8.4,0-.4,0-.9,0-1.3h0ZM127.1,130.1c-.5,1.8-.8,2.9-1.1,4.1-.4.1-.7.2-1.1.4,0-1.1-1-1.8,2.2-4.5h0ZM1.9,346.8c0-.1,0-.2,0-.3.1,0,.3,0,.4-.1,0,0,0,.2,0,.3h-.4c0,0,0,0,0,0ZM12.2,362.7c0-.2,0-.4,0-.6,0,0,0,0,.1,0,0,0,0,.2,0,.2,0,0-.1.2-.2.2h0ZM12.5,317.6c0-.2-.1-.3-.2-.5,0,0,0-.1,0-.2,0,.2.1.3.2.5,0,0,0,0-.1.1h0ZM14.8,396.8c-.1-.1-.2-.2-.3-.4,0-.2,0-.3,0-.5l.3.3c0,.2,0,.3,0,.5h0ZM25.2,266.4c0,.1-.2.1-.4.3,0-.2,0-.3,0-.5.1,0,.2-.1.4-.1,0,.1,0,.3,0,.4h0ZM33.6,466c0-.3,0-.4-.1-.5.1,0,.3,0,.4.1,0,.1,0,.2,0,.3-.1,0-.2,0-.4,0h0ZM34.4,469.7c-.1-.3-.2-.7-.4-1,0,0,0,0,0,0,.1.3.3.7.4,1,0,0,0,0-.1,0h0ZM37.7,473.6c-.5-.4-.9-.9-1.2-1.4,0-1.1-.8-1.8-1.3-2.9h1.6c.4,1,.8,1.9,1.1,2.9.2.8.3,1.7-.2,1.4h0ZM33.1,473.7c.5.2.8.4,1.1.5v.4c-.2,0-.4.4-1.1-1h0ZM38.8,487.7c-.2-.4-.4-.8-.8-1.5.5.2.9.7.9,1.3,0,0,0,.1-.1.2h0ZM838.8,423.2c.3-.1.6-.3,1.1-.5-.7,1.3-.9.9-1.2,1v-.4h0ZM839.1,414.6c.1,0,.3-.1.4-.1,0,.1,0,.3-.1.5-.1,0-.2,0-.4,0,0,0,0-.3,0-.3h0ZM838.8,417.6s0,0,0,0c-.1.3-.2.7-.4,1,0,0,0,0-.1,0,.1-.3.3-.7.4-1h0ZM834.1,436.4c0-.6.4-1.1.9-1.3-.4.7-.6,1.1-.8,1.5,0,0-.1-.1-.1-.2h0ZM829.5,444.8c0,.1-.2.2-.3.3v-.4c0,0,.2-.2.3-.2,0,0,0,.2,0,.3h0ZM819.7,449.1l-.4,1.1c0,0-.1,0-.2,0l.4-1.1c0,0,.1,0,.2,0h0ZM820.8,451.3c.1-.1.3-.2.4-.3,0,.1,0,.3,0,.4-.1.2-.3.3-.5.5,0-.3,0-.6,0-.6h0ZM827.7,440.8c.2.1.4,0,.4.3.1.8-.3,1.2-1,1.8.3-.9.4-1.4.6-2.1h0ZM829.4,440.8c0,1-.2,1.9-.3,2.7-.7.4-1.3.8-2,1.3.6-1.4,1.3-2.8,2.3-4h0ZM828.8,440s-.2,0-.4.1c0-.3.2-.5.3-.8,0-.1.2-.1.3-.2,0,.3-.1.6-.2.8h0ZM826.5,440.7c0,.5-.4.9-.8,1.2,0-.2,0-.3,0-.5.2-.2.5-.5.7-.7h0ZM825.2,443.1c-.8,1.5-.6,3.1-1.8,4.2,0-1.6.7-3.1,1.8-4.2h0ZM823,453.2c.2-.9.8-1.7,1.7-2.1-.4,1.7-1.1,1.7-1.7,2.1h0ZM823.5,456.6l-.2,1.2c0,0-.2.1-.2.2,0-.3-.2-.5-.4-.9.4-.2.6-.3.8-.4h0ZM824.7,448c0,0,.2,0,.3,0,.1.5.3,1,.7,1.4,0,0,0,0,0,0-.9.5-.4-.9-.9-1.5h0ZM831.9,439.7c0,0-.1.2-.2.3-.3.3-.6.6-.9,1.1,0-1.4.3-2.1.9-2.5.2-.2.6-.2.6,0,0,.4-.2.8-.4,1.2h0ZM831.1,436.9c.3-.4.5-.7.7-1.1-.2,1.2-.7,2.4-1.4,3.4-.4.6-.7.7-.8.4-.2-.5-.3-1.1-.3-1.7h0c.4-.5.8-.9,1.2-1.3.2,0,.3.1.5.1h0ZM47.3,492.9c-.7-.3-.8-.9-1-2,.6.5.9,1.2,1,2ZM45.4,484.1c-.3-.3-.5-.6-.8-.9,0-.4,0-1,.2-1s.6.4.9.8c.3.6.5,1.2.7,1.8-.5-.4-.7-.5-1-.8h0ZM46.9,486.9s0,0,0,0c.2.3.4.7.6,1h-.1c-.2-.2-.4-.6-.5-1h0ZM41.1,469.7c-.7-1.4-.8-2.3-.3-2.6.4.8.6,1.7.3,2.6ZM94.2,167.7c-1.4.7-2.9,1.8-3.7,1.8-1.4.1-2.8-.1-4.1-.8-.6-.3-.4-1.4,1-3,2.6-3.1,5.3-4,8.3-5.4-.8.9-1.6,1.8-2.5,2.8.3,1.3.6,2.7,1.1,4.5h0ZM96.2,181c0,.1,0,.2.2.3-.8.7-1.7,1.5-2.5,2.2-.1-.2-.3-.3-.4-.5.9-.7,1.8-1.4,2.8-2h0ZM87.6,170.8c-.1.4-.2.9-.4,1.1-.6.4-1.2.7-1.9,1,0-.4.2-.9.3-1.3.7-.3,1.4-.6,2-.8h0ZM88,187.7c0,.3-.2.6-.3.8-.9.3-1.8.6-2.7.8,0-.3.2-.6.3-1,.9-.2,1.8-.5,2.7-.7h0ZM86.1,179.2c-1.9,2.5-3.1,3.6-4.9,3.8.7-2.5,2.2-2.9,4.9-3.8ZM78.8,178.3c1.5-2.6,2.4-4.3,4.4-3.9.4,0,.4.8.7,1.5-1.7.8-2.9,1.4-5,2.4h0ZM136.5,161.5c-2.8,3.5-5.4,2.9-8.8,4.4,3.5-3.9,1.6-6.1,3.8-9.5,1.9-.1,3.7-.3,6-.4-1.9,1.9-3.4,3.6-5.6,5.8,2.4-1.1,4.3-2.1,4.6-.3h0ZM75.7,186.5c.9-.4,1.8-1,2.5-1.6-.5.6-.9,1.2-1.3,1.7h0s-1.2,0-1.2,0h0ZM49.1,491.5c0,0-.2,0-.3-.1,0-.4,0-.7-.2-1.1,0,0,.1,0,.2.1,0,.4.1.7.2,1.1h0ZM49.6,498.4c-1.2-1.1-1.1-2.7-1.8-4.2,1.1,1.1,1.8,2.6,1.8,4.2ZM637,79.9c.2.4.4.8.4,1.3,0,0-.9.4-1,.3-.3-.4-.5-.9-.7-1.4.6,0,1.2-.3,1.3-.2ZM510.2,40.5c0,0,.3.2.5.3-.4.3-.8.5-1.3.8,0-.1-.2-.3-.3-.4.4-.2.7-.5,1.1-.6h0ZM437,5.6c.1.5.2,1,.3,1.4,0,0-.6.1-.8.2l-.3-1.4c.3,0,.5-.1.8-.2h0ZM399.6,44.5c0,.2-.1.3-.2.5-.2,0-.5.2-.6.2-.2-.2-.4-.5-.6-.7.4,0,.9,0,1.3,0h0ZM315.5,56.1c.4-.1.8-.2,1.1-.1-.2.3-.4.7-.8,1.2-.5,0-.8,0-1.2,0,.2-.4.5-.7.8-1h0ZM158.6,144.2c-1,1.9-1.7,3.4-2.6,4.8-.6.6-1.3,1.1-2.1,1.4-.5,0-1.1-.7-1-.9,1.9-2.3.6-3-.6-4.6,2.7-.3,4.3-.5,6.3-.7ZM144.2,157c-2.6,2.1-4.2,1.9-6.3,1.5,3.5-2.7,5.5-3.2,6.3-1.5h0ZM139.7,133.1c0,.1,0,.2,0,.4-.8.5-1.6,1.1-2.4,1.6v-.5c.7-.5,1.5-.9,2.3-1.4h0ZM127.9,146.6c.3-1.2,2.9-4.3,3.4-4.3,2.8-.4,4.3-3,6.9-5.1,0,2.2.1,3.8.2,5.8-2.5,1.5-4.7,3-6.9,4.2-1.8.9-4,1.4-3.5-.5h0ZM128.7,152.6s-2.4,3.8-5.8,4.9c2.5-2.1,5.8-4.9,5.8-4.9h0ZM123.2,159.8c1.2.4,1.9.7,2.8,1-1.6,1.3-2.8,2.3-4.6,3.9.7-1.8,1.1-2.9,1.8-4.9h0ZM117,169.2c1-.5,1.8-1,2.5-1.3.3,1.5.5,2.7.8,4.6-4,1.2-3.5-1-3.3-3.2h0ZM113.7,171.4c-.5-1.2-.8-1.9-1.2-3,2.5-.4,2.5.4,1.2,3h0ZM110.1,162.7c-1.1.7-2.1,1.4-3.6,2.4.6-2.5,1.7-3.3,3.6-2.4h0ZM102.9,175.5c.6-1,1.4-1.9,2.1-2.8.9.2,2.4,0,2.5.7.1.6-1,2.3-2,3.2-1,.9-2.4,1.4-4.4,2.6.9-1.9,1.2-2.8,1.8-3.6h0ZM97.1,148.8c-.7,2.3-1.5,3.2-3.1,3.5-.2,0-.3-.2-.6-.3,1-.9,2-1.7,3.7-3.2h0ZM83.2,158.9c.5-.1,1.1-.2,1.6-.1.1,0-.3.7-.4,1.1-.5.2-1,.3-1.4.3-.2,0,.1-.6.2-1.3ZM85.4,161.5c.2-.3.4-.7.6-.9,1-.6,2.5-1.6,2.9-1.5.5.2.5,1.4,0,2.2-1.1,2.1-2.7,3.1-6.2,3.6,1-1.4,1.8-2.4,2.5-3.5h0ZM83.7,169.8c-3.3,3.9-6,6.6-9.5,8.7,1-2.6,1.9-4.9,2.9-7.4,2.1-.4,4.1-.8,6.6-1.3h0ZM76.9,164.6c.5-.4,1.1-.6,1.7-.7.9.3,1.9.6,2.7,1.1-.8,1.7-1.9,2.7-3.1,2.4-.9-.2-1.7-.6-2.5-1.2.2-.6.6-1.2,1.1-1.6h0ZM73.9,169.5c0,0,.7-.1.7,0-.1.4-.3.7-.5,1.1-.2,0-.5,0-.9,0,.2-.4.5-.8.7-1.1h0ZM62.8,184.3c2.1-1.9,3.7-3.3,5.4-4.9,1.4,1.7-1,4.3-1.6,6.8h-3.8c-.3-.4-.4-.9,0-1.9h0ZM38.7,463.5c-.6-.8-.8-.3-1.3.2,0-1.1,0-1.8-.1-2.6.5.3.9.7,1.3,1.1.2.3.3.6.4.9,0,.2-.2.5-.3.4ZM39.3,473.4c.6.7,1.1,1.5,1.3,2.4-.6-1.1-1.3-2.4-1.3-2.4h0ZM41.9,481c.2.4.4.9.6,1.5-.5-.1-.9-.7-.7-1.3,0,0,0-.2,0-.2h0ZM41.3,475.7c.1-.5.2-.8.3-1.1.3.7.6,1.1,1,1.9-.5-.3-.8-.5-1.3-.8h0ZM40.4,472.3c0-.8,0-1.5,0-2.5.5.8,1,1.4,1.6,2.3-.3-1-.5-1.8,0-1.9.9,1.2.8,2.2,1.1,3.6-1-1.5-1.7-.7-2.6-1.6h0ZM44.7,477c.3,1.6-.3,1.4-.9,1.3-.1-.4-.3-.8-.3-1,.4,0,.8-.2,1.3-.3h0ZM43.5,480.1c0-1,.1-1,.8-.4-.3.2-.5.3-.9.4h0ZM44.5,491.2c-.2,0-.4-.1-.4-.1,0-.3-.1-.6-.2-.8,0,0,.3,0,.3.2.1.3.2.5.3.8h0ZM40.6,491.9c0-.2,0-.4,0-.7,0,0,.2.1.3.2,0,.2,0,.4,0,.6,0,0-.2,0-.4-.1h0ZM41.1,490.8c-.2-.4-.3-.8-.4-1.2,0-.2.4-.2.6,0,.6.5.8,1.1.9,2.5-.4-.4-.7-.8-.9-1.1,0,0-.2-.2-.2-.3ZM42.9,494c0,.3-.2.7-.4,1,0,0-.3-.3-.4-.5-.1-.2-.2-.5-.2-.7,0-.4.2-.7.3-1.1.4.3.7.8.6,1.3h0ZM42.5,490.3c-.7-1-1.2-2.2-1.4-3.4.2.3.5.7.7,1.1.4-.1.8-.2,1.3-.4.2.5.4,1,.5,1.5,0,.6,0,1.1-.3,1.7,0,.2-.4.1-.8-.4h0ZM43.4,495.8s0-.3,0-.3c.1,0,.2.1.3.2v.4c0-.1-.2-.2-.3-.3h0ZM43.9,494.5c0-.8-.2-1.7-.3-2.7,1,1.2,1.8,2.5,2.3,4-.7-.4-1.3-.8-2-1.3h0ZM44.9,492.1c0-.2.2-.1.4-.3.2.7.4,1.2.6,2.1-.7-.7-1.2-1-1-1.8h0ZM47.4,500.5c-.5-.9-.9-1.5-1.3-2.2.6-.6,1.4.8,2.2.8-.5.5,0,2-.9,1.5h0ZM48.3,502.2c.8.4,1.5,1.2,1.7,2.1-.6-.4-1.3-.4-1.7-2.1h0ZM49.9,509c0,0-.2-.1-.2-.2l-.2-1.2c.2.1.4.2.8.4-.2.4-.3.7-.4.9h0ZM51.7,502.6c0-.1,0-.3,0-.4.2,0,.3.1.4.3,0,.2,0,.4,0,.6-.2-.1-.3-.3-.5-.5h0ZM53.7,501.2l-.4-1.1c0,0,.1,0,.2,0l.4,1.1c0,0-.1,0-.2,0h0ZM489.5,568.7c-.2-.3-.4-.6-.5-.9,0,0,.6-.5.7-.4.3.2.4.5.7,1-.5.2-.9.5-1,.4h0ZM592.6,572.9s-.3,0-.4-.2c.3-.3.6-.6.9-.8l.3.3c-.3.3-.5.5-.8.7h0ZM653.9,584.6c-.2-.3-.3-.7-.5-1,.2-.1.4-.2.6-.3.1.3.3.7.4,1-.2.1-.4.2-.6.3h0ZM677.1,547.1c0-.1,0-.3,0-.4.1,0,.3-.3.4-.2.2.1.4.3.6.4-.3,0-.7.1-1,.2h0ZM740.2,520.8c-.2.2-.6.2-.9.3.1-.3.3-.6.4-1.1.4,0,.7-.1.9-.2-.1.3-.3.7-.5,1h0ZM831,456.6c-.9,1.5-2,2.9-3.1,4.2-.6.7-2.1,1.4-2.2,1.2-.8-1-2.5-.2-3.7-.3-.8,0-1.2-.7-1.8-1.1-.4-.2-.7-.7-1.3-.6-1.4.4-2.1,0-2.4-.8l8.7-1.5c0,0,.1,0,.1-.1.6-.5,1-1.2,1.2-2,0-.4.3-.9.4-1.3.7-.3,1.2-.5,1.8-.7,0,1.1,0,2.3,0,3.6.7-.3,1.5-.6,2.2-.9,0,0,.2.2.2.2h0ZM830.9,443.5c0,.2-.4.5-.4.5-.2-.3-.3-.6-.4-1v-.2c.1-.3.3-.6.5-1,0,0,.1-.1.2-.2.1.4.2.7.3,1.1,0,.2,0,.5-.2.7h0ZM833.9,434.9c0-.2.2-.4.2-.6l.4-.2c-.2.3-.4.6-.7.8h0ZM837.8,418.3h0s0,0,0,0c0,0,0,0,0,0h0ZM838.3,413.3c.2.1,0,1.1,0,2-.2,0-.3,0-.5,0v-2c.2,0,.4,0,.5,0h0ZM837.8,406.3v-1.3c.2-.2.4-.4.7-.7-.3.7-.5,1.3-.7,1.9h0ZM848.2,215.6c-.2-.1-.3-.1-.4-.3,0-.1,0-.3,0-.4.1,0,.3,0,.4.1,0,.2,0,.3,0,.5h0ZM858.4,345.4c0,.1-.2.3-.3.4,0-.1,0-.3,0-.5l.3-.3c0,.2,0,.3,0,.5h0ZM860.4,266.6s0,0-.1-.1c0-.2.1-.3.2-.5,0,0,0,.1,0,.2,0,.2-.1.3-.2.5h0ZM860.5,311.4v-.2c0,0,.1,0,.2,0,0,.2,0,.4,0,.6,0,0-.2-.1-.2-.2h0ZM871,295.8h-.4c0-.2,0-.4,0-.4.1,0,.3,0,.4.1,0,.1,0,.2,0,.3h0Z"/>
  </g>
  <g class="st6">
    <g>
      <path class="st1" d="M184.3,278.6c18,0,27.6,14.2,27.6,36.7,0,2.8.2,5.5.7,8.2v1.5h-22.5c-.6-2.2-.8-4.5-.7-6.7v-14.8c0-4.2-1.8-6.9-5.4-6.9s-5.8,2.7-5.8,7.6v70.8c0,4.9,2.2,7.6,5.8,7.6s5.4-2.7,5.4-6.9v-14.8c0-2.3.2-4.5.7-6.7h22.5v1.5c-.6,2.9-.9,6-.7,9,0,22.5-9.6,36.7-27.6,36.7s-30.8-15.7-30.8-56.9v-9c0-41.2,11.4-56.9,30.8-56.9"/>
      <path class="st1" d="M251.6,280.1v49.4h9.7v-49.4h21.7v119.8h-21.7v-50.9h-9.7v50.9h-21.7v-119.8h21.7Z"/>
      <path class="st1" d="M344.2,280.1l11.2,118.3v1.5h-21l-2.5-28.5h-8.4l-2.5,28.5h-21v-1.5l11.2-118.3h32.9ZM331.7,352l-3.3-41.2h-1.5l-3.3,41.2h8.1Z"/>
      <path class="st1" d="M394.8,280.1v100.3h18.7v19.5h-41.2v-119.8h22.5Z"/>
      <path class="st1" d="M453.3,280.1v100.3h18.7v19.5h-41.2v-119.8h22.5Z"/>
      <path class="st1" d="M529.9,280.1v19.5h-18v29.9h15.7v19.5h-15.7v31.4h18v19.5h-40.4v-119.8h40.4Z"/>
      <path class="st1" d="M567.3,280.1l12.7,59.9h1.5l-2.2-59.9h21v119.8h-19.5l-12.7-59.9h-1.5l2.2,59.9h-21v-119.8h19.5Z"/>
      <path class="st1" d="M649.7,278.6c18,0,27.3,15,27.3,37.4,0,2.8.2,5.5.7,8.2v1.5h-22.5c-.6-2.2-.8-4.5-.7-6.7v-15.6c0-4.2-1.8-6.9-5.4-6.9s-5.8,2.7-5.8,7.6v70.8c0,4.9,2.2,7.6,5.8,7.6s5.4-2.7,5.4-6.9v-24.6h21.7v48.7h-10.5l-3.7-15.4h-1.5c-1.1,9.1-5.7,16.9-16.9,16.9s-25-10.5-25-47.2v-18.7c0-41.2,12.1-56.9,31.1-56.9"/>
      <path class="st1" d="M735.8,280.1v19.5h-18v29.9h15.7v19.5h-15.7v31.4h18v19.5h-40.4v-119.8h40.4Z"/>
      <path class="st1" d="M255.4,148.4v19.5h-18v30h15.7v19.5h-15.7v31.5h18v19.5h-40.4v-119.8h40.4Z"/>
      <path class="st1" d="M327.3,148.4v1.5l-8.2,56.9v1.5l9,58.4v1.5h-21.7l-6-40.7h-1.5l-6,40.7h-21.7v-1.5l9-58.4v-1.5l-8.2-56.9v-1.5h21l6,40h1.5l6-40h21Z"/>
      <path class="st1" d="M395.6,148.4v19.5h-15v100.3h-22.5v-100.3h-15v-19.5h52.4Z"/>
      <path class="st1" d="M435.2,148.4c18.9,0,33.2,13.2,33.2,36.4s-4.5,23.4-12.7,31.4l11.2,50.5v1.5h-21.7l-8.5-45.5h-2.2l1,45.5h-22.5v-119.8h22.2ZM435.5,206.8h.7c5.2,0,9.7-4,9.7-12v-16.5c0-7.9-4.5-12-9.7-12h-.7v40.4Z"/>
      <path class="st1" d="M526.2,148.4v19.5h-18v30h15.7v19.5h-15.7v31.5h18v19.5h-40.4v-119.8h40.4Z"/>
      <path class="st1" d="M568.9,148.4l9.7,64.4h1.5l9.7-64.4h24.7v119.8h-19.5l1.5-55.4h-1.5l-8.2,55.4h-15l-8.2-55.4h-1.5l1.5,55.4h-19.5v-119.8h24.7Z"/>
      <path class="st1" d="M674.2,148.4v19.5h-18v30h15.7v19.5h-15.7v31.5h18v19.5h-40.4v-119.8h40.4Z"/>
      <path class="st5" d="M218.4,423.3c-1.1-2.9-3.2-5.1-7.2-5.1s-8.3,3.2-8.3,9.9,3.8,9.9,8.3,9.9,6.1-2.1,7.2-5.1l4.9,1.3c-1.4,5.6-5.7,8.8-12.1,8.8s-13.8-5.2-13.8-14.9,6.5-14.9,13.8-14.9,10.7,3.2,12.1,8.8l-4.9,1.3h0Z"/>
      <path class="st5" d="M242.7,435.9h-9.2l-2.1,6.9h-5.8l9.9-29.1h5.4l9.9,29.1h-5.8l-2.1-6.9ZM235,430.9h6.2l-3.1-10.1-3.1,10.1h0Z"/>
      <path class="st5" d="M277.2,413.6v29.1h-5.7l-10.7-19.2v19.2h-5.4v-29.1h5.7l10.7,19.2v-19.2h5.4Z"/>
      <path class="st5" d="M298.8,435.9h-9.2l-2.1,6.9h-5.8l9.9-29.1h5.4l9.9,29.1h-5.8l-2.1-6.9ZM291.1,430.9h6.2l-3.1-10.1-3.1,10.1h0Z"/>
      <path class="st5" d="M311.6,442.7v-29.1h9.1c6.9,0,13.6,4.4,13.6,14.6s-6.7,14.6-13.6,14.6h-9.1ZM319,437.7c4.7,0,9.8-1.8,9.8-9.6s-5.1-9.6-9.8-9.6h-2v19.1h2Z"/>
      <path class="st5" d="M353.8,435.9h-9.2l-2.1,6.9h-5.8l9.9-29.1h5.4l9.9,29.1h-5.8l-2.1-6.9ZM346.1,430.9h6.2l-3.1-10.1-3.1,10.1h0Z"/>
      <path class="st5" d="M369.7,421.4c1.9,0,3.5,1.6,3.5,3.5s-1.6,3.5-3.5,3.5-3.5-1.6-3.5-3.5c0-1.9,1.5-3.5,3.3-3.5,0,0,.1,0,.2,0M369.7,436c1.9,0,3.5,1.6,3.5,3.5s-1.6,3.5-3.5,3.5-3.5-1.6-3.5-3.5c0-1.9,1.5-3.5,3.3-3.5,0,0,.1,0,.2,0"/>
      <path class="st5" d="M404,421.3c-1.1-2.2-2.3-3.1-4-3.1-1.5,0-2.7,1.1-2.8,2.5,0,0,0,0,0,.1,0,5.1,12.4,4.4,12.4,13.1s-3.8,9.1-9.3,9.1c-4.9,0-9.1-3.4-10-8.2l4.4-2.8c.9,3.1,2.6,5.9,5.8,5.9s3.8-1.1,3.8-3.8c0-4.8-12.2-3.9-12.2-13.1,0-4.3,3.4-7.8,7.7-7.9,0,0,.2,0,.3,0,3.6-.1,7,2,8.4,5.3l-4.4,2.8h0Z"/>
      <path class="st5" d="M433.2,413.6v5h-12.6v6.1h10.1v5h-10.1v8h13v5h-18.4v-29.1h18Z"/>
      <path class="st5" d="M454.3,435.9h-9.2l-2.1,6.9h-5.8l9.9-29.1h5.4l9.9,29.1h-5.8l-2.1-6.9h0ZM446.6,430.9h6.2l-3.1-10.1-3.1,10.1Z"/>
      <path class="st5" d="M474.7,413.6h21.6v5h-8.1v24.1h-5.4v-24.1h-8.1v-5Z"/>
      <path class="st5" d="M526.7,428.2c0,10.1-6.4,14.9-13.7,14.9s-13.7-4.8-13.7-14.9,6.4-14.9,13.7-14.9,13.7,4.8,13.7,14.9M504.8,428.2c0,6.9,3.9,9.9,8.2,9.9s8.2-3,8.2-9.9-3.9-9.9-8.2-9.9-8.2,3-8.2,9.9"/>
      <path class="st5" d="M555.9,421.3c-1.1-2.2-2.3-3.1-4-3.1-1.5,0-2.7,1.1-2.8,2.5,0,0,0,0,0,.1,0,5.1,12.4,4.4,12.4,13.1s-3.8,9.1-9.3,9.1c-4.9,0-9.1-3.4-10-8.2l4.4-2.8c.9,3.1,2.6,5.9,5.8,5.9s3.8-1.1,3.8-3.8c0-4.8-12.2-3.9-12.2-13.1,0-4.3,3.4-7.8,7.7-7.9,0,0,.2,0,.3,0,3.6-.1,7,2,8.4,5.3l-4.4,2.8h0Z"/>
      <path class="st5" d="M588.4,431.7c0,7.8-4.5,11.4-10.9,11.4s-10.9-3.6-10.9-11.4v-18.1h5.4v18.2c0,4.2,1.8,6.3,5.4,6.3s5.4-2.1,5.4-6.3v-18.2h5.4v18.1h0Z"/>
      <path class="st5" d="M595.2,413.6h6.1l6.9,18.2,6.9-18.2h6.1v29.1h-5.4v-18l-5.6,15.3h-3.9l-5.6-15.3v18h-5.4v-29.1Z"/>
      <path class="st5" d="M628.3,413.6h6.1l6.9,18.2,6.9-18.2h6.1v29.1h-5.4v-18l-5.6,15.3h-3.9l-5.6-15.3v18h-5.4v-29.1Z"/>
      <rect class="st5" x="661" y="413.6" width="5.4" height="29.1"/>
      <path class="st5" d="M671.9,413.6h21.6v5h-8.1v24.1h-5.4v-24.1h-8.1v-5Z"/>
      <path class="st5" d="M413.2,118.2l7.1-9.2c.9-1,1.5-2.3,1.5-3.6.2-1.3-.7-2.4-1.9-2.6-.2,0-.3,0-.5,0-1.4,0-2.4.9-2.6,2.6l-3.3-.6c.2-3.1,2.9-5.5,6-5.3,3.8,0,6,2.4,6,5.8,0,1.7-.6,3.4-1.7,4.7l-4.9,6.4h7v3.3h-12.7v-1.4h0Z"/>
      <path class="st5" d="M444.2,109.6c0,6.4-2.6,10.2-7.4,10.2s-7.4-3.8-7.4-10.2,2.6-10.2,7.4-10.2,7.4,3.8,7.4,10.2M433,109.6c0,4.5,1.2,6.9,3.8,6.9s3.8-2.5,3.8-6.9-1.2-6.9-3.8-6.9-3.8,2.5-3.8,6.9"/>
      <path class="st5" d="M447.3,118.2l7.1-9.2c.9-1,1.5-2.3,1.5-3.6.2-1.3-.7-2.4-1.9-2.6-.2,0-.3,0-.5,0-1.4,0-2.4.9-2.6,2.6l-3.3-.6c.2-3.1,2.9-5.5,6-5.3,3.8,0,6,2.4,6,5.8,0,1.7-.6,3.4-1.7,4.7l-4.9,6.4h7v3.3h-12.7v-1.4h0Z"/>
      <path class="st5" d="M469.8,106.8c3.4-.1,6.3,2.6,6.4,6,0,.2,0,.3,0,.5,0,3.5-2.7,6.4-6.1,6.5-.2,0-.3,0-.5,0-3.5.1-6.5-2.6-6.7-6.1,0-.1,0-.2,0-.3,0-1.2.4-2.4,1-3.5l5.8-10.4h4l-4.3,7.4h.5ZM466.5,113.3c0,1.7,1.3,3.1,3,3.2,1.7,0,3.1-1.3,3.2-3,0,0,0-.1,0-.2,0-1.7-1.3-3.1-3-3.2-1.7,0-3.1,1.3-3.2,3,0,0,0,.1,0,.2"/>
      <path class="st1" d="M473.6,89.9c10.9,0,19.8,8.9,19.8,19.8s-8.9,19.8-19.8,19.8h-58c-10.9,0-19.8-8.9-19.8-19.8s8.9-19.8,19.8-19.8h58ZM473.6,85.9h-58c-13.1,0-23.8,10.7-23.8,23.8,0,13.1,10.7,23.8,23.8,23.8h58c13.1,0,23.8-10.7,23.8-23.8s-10.7-23.8-23.8-23.8"/>
    </g>
  </g>
  <g class="st4">
    <g class="st4">
      <path class="st2" d="M261.1,470.2c3.1,0,5.1,1.7,5.1,4.7s-.9,2.9-2.1,3.6c1.7.7,2.9,2.3,2.9,4.5,0,3.4-2.1,5.4-5.7,5.4h-6.5v-18.2h6.1ZM257.3,472.3v5.2h3.7c1.7,0,2.9-.8,2.9-2.6s-1.2-2.6-2.9-2.6h-3.7ZM257.3,486.2h3.8c2.4,0,3.6-1,3.6-3.2s-1.2-3.2-3.6-3.2h-3.8v6.4Z"/>
    </g>
    <g class="st4">
      <path class="st2" d="M277.1,479.8h-2.7v8.6h-2.3v-18.2h6.1c3.2,0,5.4,1.7,5.4,4.8s-1.4,4.2-3.8,4.7l5.4,8.7h-2.7l-5.3-8.6ZM274.4,472.3v5.3h3.8c1.9,0,2.9-.8,2.9-2.6s-1-2.6-2.9-2.6h-3.8Z"/>
    </g>
    <g class="st4">
      <path class="st2" d="M291.1,470.2v18.2h-2.3v-18.2h2.3Z"/>
      <path class="st2" d="M295.7,470.2h12.8v2.2h-5.3v16h-2.3v-16h-5.3v-2.2Z"/>
    </g>
    <g class="st4">
      <path class="st2" d="M315.2,470.2v18.2h-2.3v-18.2h2.3Z"/>
      <path class="st2" d="M328,474.1c-.9-1.6-1.8-1.9-2.9-1.9s-2.2,1.1-2.2,2.3c0,1.8,1.6,2.5,3.5,3.5,2.1,1,4.3,2.3,4.3,5.2s-.5,2.8-1.4,3.7c-1,1.1-2.4,1.7-4.1,1.7-3,0-5.3-2.1-5.9-4.9l2-1.2c.6,2.2,1.6,3.9,3.9,3.9s1.9-.4,2.5-1c.4-.5.7-1.3.7-2.2,0-1.8-1.7-2.7-3.4-3.5-2.4-1.1-4.4-2.3-4.4-5.1s2.1-4.6,4.5-4.6,3.8,1.2,4.7,2.9l-1.8,1.2Z"/>
    </g>
    <g class="st4">
      <path class="st2" d="M348.5,470.2v18.2h-2.3v-8.6h-8.3v8.6h-2.3v-18.2h2.3v7.4h8.3v-7.4h2.3Z"/>
    </g>
    <g class="st4">
      <path class="st2" d="M377.4,483c-.8,3.2-3.3,5.5-7.1,5.5s-8.2-3.1-8.2-9.3,4-9.3,8.2-9.3,6.3,2.3,7.1,5.5l-2.2.7c-.8-2.5-2.5-4-4.9-4s-5.9,2.4-5.9,7.1,2.5,7.1,5.9,7.1,4.1-1.4,4.9-4l2.2.6Z"/>
    </g>
    <g class="st4">
      <path class="st2" d="M398.1,479.3c0,6.1-3.8,9.3-8.2,9.3s-8.2-3.2-8.2-9.3,3.8-9.3,8.2-9.3,8.2,3.2,8.2,9.3ZM384.1,479.3c0,4.8,2.6,7.1,5.8,7.1s5.8-2.4,5.8-7.1-2.6-7.1-5.8-7.1-5.8,2.4-5.8,7.1Z"/>
    </g>
    <g class="st4">
      <path class="st2" d="M405.1,470.2v16h8.3v2.2h-10.6v-18.2h2.3Z"/>
    </g>
    <g class="st4">
      <path class="st2" d="M417,470.2h2.3v12.2c0,2.3,1.4,4.1,4.1,4.1s4.1-1.7,4.1-4.1v-12.2h2.3v12c0,4.2-2.9,6.4-6.4,6.4s-6.4-2.2-6.4-6.4v-12Z"/>
    </g>
    <g class="st4">
      <path class="st2" d="M438.5,470.2l4.9,12.8,4.9-12.8h2.8v18.2h-2.3v-13.3l-4.6,11.6h-1.6l-4.6-11.6v13.3h-2.3v-18.2h2.8Z"/>
    </g>
    <g class="st4">
      <path class="st2" d="M463,470.2c3.1,0,5.1,1.7,5.1,4.7s-.9,2.9-2.1,3.6c1.7.7,2.9,2.3,2.9,4.5,0,3.4-2.1,5.4-5.7,5.4h-6.5v-18.2h6.1ZM459.1,472.3v5.2h3.7c1.7,0,2.9-.8,2.9-2.6s-1.2-2.6-2.9-2.6h-3.7ZM459.1,486.2h3.8c2.4,0,3.6-1,3.6-3.2s-1.2-3.2-3.6-3.2h-3.8v6.4Z"/>
      <path class="st2" d="M475.8,470.2v18.2h-2.3v-18.2h2.3Z"/>
    </g>
    <g class="st4">
      <path class="st2" d="M486,470.2h2.2l6.3,18.2h-2.3l-1.6-4.9h-7l-1.6,4.9h-2.3l6.3-18.2ZM489.9,481.3l-2.8-8.2-2.8,8.2h5.5Z"/>
    </g>
    <g class="st4">
      <path class="st2" d="M499.6,485.5h3l-3,5.6h-1.7l1.7-5.6Z"/>
    </g>
    <g class="st4">
      <path class="st2" d="M530.2,483c-.8,3.2-3.3,5.5-7.1,5.5s-8.2-3.1-8.2-9.3,4-9.3,8.2-9.3,6.3,2.3,7.1,5.5l-2.2.7c-.8-2.5-2.5-4-4.9-4s-5.9,2.4-5.9,7.1,2.5,7.1,5.9,7.1,4.1-1.4,4.9-4l2.2.6Z"/>
    </g>
    <g class="st4">
      <path class="st2" d="M539.5,470.2h2.2l6.3,18.2h-2.3l-1.6-4.9h-7l-1.6,4.9h-2.3l6.3-18.2ZM543.3,481.3l-2.8-8.2-2.8,8.2h5.5Z"/>
    </g>
    <g class="st4">
      <path class="st2" d="M565.3,470.2v18.2h-2.7l-8.2-14.2v14.2h-2.3v-18.2h2.7l8.2,14.2v-14.2h2.3Z"/>
    </g>
    <g class="st4">
      <path class="st2" d="M575.4,470.2h2.2l6.3,18.2h-2.3l-1.6-4.9h-7l-1.6,4.9h-2.3l6.3-18.2ZM579.3,481.3l-2.8-8.2-2.8,8.2h5.5Z"/>
    </g>
    <g class="st4">
      <path class="st2" d="M593,470.2c4.5,0,8.4,3.2,8.4,9.1s-3.9,9.1-8.4,9.1h-5v-18.2h5ZM590.3,472.3v13.8h2.3c3.4,0,6.3-1.8,6.3-6.9s-3-6.9-6.3-6.9h-2.3Z"/>
    </g>
    <g class="st4">
      <path class="st2" d="M610.2,470.2h2.2l6.3,18.2h-2.3l-1.6-4.9h-7l-1.6,4.9h-2.3l6.3-18.2ZM614.1,481.3l-2.8-8.2-2.8,8.2h5.5Z"/>
    </g>
  </g>
  <g class="st4">
    <g class="st4">
      <path class="st2" d="M236,509.8c-.9-1.6-1.8-1.9-2.9-1.9s-2.2,1.1-2.2,2.3c0,1.8,1.6,2.5,3.5,3.5,2.1,1,4.3,2.3,4.3,5.2s-.5,2.8-1.4,3.7c-1,1.1-2.4,1.7-4.1,1.7-3,0-5.3-2.1-5.9-4.9l2-1.2c.6,2.2,1.6,3.9,3.9,3.9s1.9-.4,2.5-1c.4-.5.7-1.3.7-2.2,0-1.8-1.7-2.7-3.4-3.5-2.4-1.1-4.4-2.3-4.4-5.1s2.1-4.6,4.5-4.6,3.8,1.2,4.7,2.9l-1.8,1.2Z"/>
    </g>
    <g class="st4">
      <path class="st2" d="M254,505.9v2.2h-8.2v5.2h6.6v2.2h-6.6v6.4h8.4v2.2h-10.7v-18.2h10.5Z"/>
    </g>
    <g class="st4">
      <path class="st2" d="M261.3,516.3v7.8h-2.3v-18.2h6.3c3.4,0,5.4,2,5.4,5.2s-2,5.2-5.4,5.2h-4.1ZM268.4,511.1c0-1.9-1-3-2.9-3h-4.2v6h4.2c1.9,0,2.9-1.1,2.9-3Z"/>
      <path class="st2" d="M273.9,505.9h12.8v2.2h-5.3v16h-2.3v-16h-5.3v-2.2Z"/>
    </g>
    <g class="st4">
      <path class="st2" d="M301.7,505.9v2.2h-8.2v5.2h6.6v2.2h-6.6v6.4h8.4v2.2h-10.7v-18.2h10.5Z"/>
    </g>
    <g class="st4">
      <path class="st2" d="M309.8,505.9l4.9,12.8,4.9-12.8h2.8v18.2h-2.3v-13.3l-4.6,11.6h-1.6l-4.6-11.6v13.3h-2.3v-18.2h2.8Z"/>
    </g>
    <g class="st4">
      <path class="st2" d="M334.3,505.9c3.1,0,5.1,1.7,5.1,4.7s-.9,2.9-2.1,3.6c1.7.7,2.9,2.3,2.9,4.5,0,3.4-2.1,5.4-5.7,5.4h-6.5v-18.2h6.1ZM330.4,508v5.2h3.7c1.7,0,2.9-.8,2.9-2.6s-1.2-2.6-2.9-2.6h-3.7ZM330.4,521.9h3.8c2.4,0,3.6-1,3.6-3.2s-1.2-3.2-3.6-3.2h-3.8v6.4Z"/>
    </g>
    <g class="st4">
      <path class="st2" d="M355.7,505.9v2.2h-8.2v5.2h6.6v2.2h-6.6v6.4h8.4v2.2h-10.7v-18.2h10.5Z"/>
    </g>
    <g class="st4">
      <path class="st2" d="M365.8,515.5h-2.7v8.6h-2.3v-18.2h6.1c3.2,0,5.4,1.7,5.4,4.8s-1.4,4.2-3.8,4.7l5.4,8.7h-2.7l-5.3-8.6ZM363,508v5.3h3.8c1.9,0,2.9-.8,2.9-2.6s-1-2.6-2.9-2.6h-3.8Z"/>
    </g>
    <g class="st4">
      <path class="st2" d="M391.9,505.9v18.2h-2.1v-14.9l-3.4,2v-2.4l4.7-2.8h.8Z"/>
    </g>
    <g class="st4">
      <path class="st2" d="M396.9,523l6.9-8.9c1.1-1.5,1.5-2.3,1.5-3.5s-.2-1.6-.7-2.1c-.5-.5-1.2-.9-2.2-.9-1.7,0-2.8,1.3-3,3.1l-2.2-.4c.2-2.7,2.3-4.8,5.2-4.8s3.1.6,4,1.6c.8.9,1.1,2,1.1,3.5s-.5,2.7-1.5,4l-5.7,7.3h7.5v2.1h-11v-1Z"/>
    </g>
    <g class="st4">
      <path class="st2" d="M411.5,505.9h12.8v2.2h-5.3v16h-2.3v-16h-5.3v-2.2Z"/>
    </g>
    <g class="st4">
      <path class="st2" d="M441.7,505.9v18.2h-2.3v-8.6h-8.3v8.6h-2.3v-18.2h2.3v7.4h8.3v-7.4h2.3Z"/>
    </g>
    <g class="st4">
      <path class="st2" d="M454.2,505.9h12.8v2.2h-5.3v16h-2.3v-16h-5.3v-2.2Z"/>
    </g>
    <g class="st4">
      <path class="st2" d="M486.1,515c0,6.1-3.8,9.3-8.2,9.3s-8.2-3.2-8.2-9.3,3.8-9.3,8.2-9.3,8.2,3.2,8.2,9.3ZM472.2,515c0,4.8,2.6,7.1,5.8,7.1s5.8-2.4,5.8-7.1-2.6-7.1-5.8-7.1-5.8,2.4-5.8,7.1Z"/>
    </g>
    <g class="st4">
      <path class="st2" d="M499,523l6.9-8.9c1.1-1.5,1.5-2.3,1.5-3.5s-.2-1.6-.7-2.1c-.5-.5-1.2-.9-2.2-.9-1.7,0-2.8,1.3-3,3.1l-2.2-.4c.2-2.7,2.3-4.8,5.2-4.8s3.1.6,4,1.6c.8.9,1.1,2,1.1,3.5s-.5,2.7-1.5,4l-5.7,7.3h7.5v2.1h-11v-1Z"/>
    </g>
    <g class="st4">
      <path class="st2" d="M527.2,515c0,5.7-2.2,9.3-6.4,9.3s-6.4-3.6-6.4-9.3,2.2-9.3,6.4-9.3,6.4,3.6,6.4,9.3ZM516.7,515c0,4.4,1.3,7.2,4.1,7.2s4.1-2.8,4.1-7.2-1.3-7.2-4.1-7.2-4.1,2.8-4.1,7.2Z"/>
      <path class="st2" d="M530.6,505.9h12.8v2.2h-5.3v16h-2.3v-16h-5.3v-2.2Z"/>
      <path class="st2" d="M560.6,505.9v18.2h-2.3v-8.6h-8.3v8.6h-2.3v-18.2h2.3v7.4h8.3v-7.4h2.3Z"/>
    </g>
    <g class="st4">
      <path class="st2" d="M567.9,521.2h3l-3,5.6h-1.7l1.7-5.6Z"/>
    </g>
    <g class="st4">
      <path class="st2" d="M583.6,523l6.9-8.9c1.1-1.5,1.5-2.3,1.5-3.5s-.2-1.6-.7-2.1c-.5-.5-1.2-.9-2.2-.9-1.7,0-2.8,1.3-3,3.1l-2.2-.4c.2-2.7,2.3-4.8,5.2-4.8s3.1.6,4,1.6c.8.9,1.1,2,1.1,3.5s-.5,2.7-1.5,4l-5.7,7.3h7.5v2.1h-11v-1Z"/>
      <path class="st2" d="M611.5,515c0,5.7-2.2,9.3-6.4,9.3s-6.4-3.6-6.4-9.3,2.2-9.3,6.4-9.3,6.4,3.6,6.4,9.3ZM601,515c0,4.4,1.3,7.2,4.1,7.2s4.1-2.8,4.1-7.2-1.3-7.2-4.1-7.2-4.1,2.8-4.1,7.2Z"/>
    </g>
    <g class="st4">
      <path class="st2" d="M615.8,523l6.9-8.9c1.1-1.5,1.5-2.3,1.5-3.5s-.2-1.6-.7-2.1c-.5-.5-1.2-.9-2.2-.9-1.7,0-2.8,1.3-3,3.1l-2.2-.4c.2-2.7,2.3-4.8,5.2-4.8s3.1.6,4,1.6c.8.9,1.1,2,1.1,3.5s-.5,2.7-1.5,4l-5.7,7.3h7.5v2.1h-11v-1Z"/>
    </g>
    <g class="st4">
      <path class="st2" d="M643.3,518.3c0,3.3-2.4,5.9-5.7,5.9s-5.7-2.6-5.7-5.9.3-2.3.9-3.4l5.4-9.3h2.5l-4,6.9c.3-.1.6-.2.9-.2,3.4,0,5.7,2.6,5.7,5.9ZM634.1,518.3c0,2.2,1.5,3.8,3.5,3.8s3.5-1.6,3.5-3.8-1.5-3.8-3.5-3.8-3.5,1.5-3.5,3.8Z"/>
    </g>
  </g>
</svg>