<svg xmlns="http://www.w3.org/2000/svg" xmlns:xlink="http://www.w3.org/1999/xlink" width="309.55" height="96.961" viewBox="0 0 309.55 96.961">
  <defs>
    <clipPath id="clip-path">
      <path id="Path_881" data-name="Path 881" d="M0,51.651H309.55V-45.31H0Z" transform="translate(0 45.31)" fill="#1c2122"/>
    </clipPath>
  </defs>
  <g id="Group_1147" data-name="Group 1147" transform="translate(-1070.38 -1384)">
    <g id="Group_1145" data-name="Group 1145" transform="translate(1070.38 1429.31)">
      <g id="Group_1002" data-name="Group 1002" transform="translate(0 -45.31)" clip-path="url(#clip-path)">
        <g id="Group_1001" data-name="Group 1001" transform="translate(0 0)">
          <path id="Path_880" data-name="Path 880" d="M.009,20.245c-.559,6.734.577.873.712,5.891-.312.927-.792-1.192-.85,2.185-.2,1.308.52,6.5.569,10.912C.281,36.705-.012,38,.063,42.293c.122-1.316.206-2.953.369-1.676a21.073,21.073,0,0,1-.148,2.11c.24-1.016.48-2.024.66.308C.97,44.157.891,45.526.793,46.977l-.306-3.03.285,3.328C.56,50.369.29,53.776.793,55.92c-.065.456-.129.627-.188.646.187,2.613.313,8.346.683,10.274-.037.231-.071.428-.1.578-.023.064-.046.128-.067.2-.015.03-.028.06-.042.09,0,.019.006.024.011.028A12.609,12.609,0,0,0,.8,70.474c-.009.389-.012.8-.008,1.222C.8,72.3.8,72.931.813,73.57c.025,1.288.066,2.6.112,3.856,1.333-.058,2.655-.118,3.888-.173,1.325-.049,1.929-.088,2.655-.09,1.364-.006,2.259.122,2.246.546l7.429-.086-.169.141c-.467.1-.717.223.926.33-1.078.075-2.049.1-2.965.118.988.053,1.941.122,2.839.2-.051-.011-.085-.017-.127-.028l-.025,0,.005-.006c-.237-.056-.315-.09-.048-.058a.614.614,0,0,1,.115-.009.588.588,0,0,1,.248-.169c1.59.092.251.116-.248.169-.018.021-.061.043-.066.066a.084.084,0,0,1,.02,0l5.5-.244c-1.164-.062-2.621-.049-5.2,0a6.169,6.169,0,0,1,1.141-.345,24.06,24.06,0,0,0,5.963-.67c1.1.109.3.257.206.34,1.177.054,2.17.1,3.043.126a11.113,11.113,0,0,0,1.379.539c.074-.156.088-.3,1.906-.494a57.644,57.644,0,0,0,7.118-.71l.039.034c-.021,0-.043,0-.064,0-.086.092,0,.12.2.116l.431.368a53.135,53.135,0,0,1,6.337.21,35.313,35.313,0,0,1-6.447.353c1.6.629.812-.071,3.311.663-2.154-.909,8.862.028,5.573-.907h0c2.534.828,4.408.353,7.736,1.074-.1-.21-1.188-.4,1.766-.3a4.346,4.346,0,0,1,.647-.184l.2.015c-.059-.009-.1-.015-.162-.026.128-.03.139-.036-.061-.009a6.114,6.114,0,0,1-1.5-.319,7.6,7.6,0,0,1,1.325-.248c3.729-.045,7.83.3,11.284.432a5.5,5.5,0,0,1-1.733.24l3.716.021a37.092,37.092,0,0,0,7.053.169c1.752.1,4.427-.518,2.9-.152l5.828-.289.054.118c5.751.058,11.838-.773,18.412.068a61.631,61.631,0,0,1,7.175-.128l.631.4c2.485-.141,7.464.4,8.532-.017,2.681,1.087,12.063.238,16.435.43l.164-.526c3.009.03,5.894-.12,9.63-.332L148,77.994l2.563.032-1.342-.381c3.191-.111,7.595.422,12.028.381a7.349,7.349,0,0,1-2.553.024c6.085,1.053,12.84-.764,18.359,0a12.942,12.942,0,0,1,3.335,0,2.582,2.582,0,0,0-.341.026c.141,0,.35,0,.565,0,.607.081,1.232.173,1.91.248a16.013,16.013,0,0,0-1.608-.248c1.061-.011,2.669-.068,4.246-.186l.672.5.365-.013c1.547.184,1.244-.238.419-.614a20.764,20.764,0,0,0,2.085-.3c1.257.807,4.137-.272,5.852.588.81-.319,4.982-.336,7.3-.715-.007.126.117.263.951.387,1.884-.148,3.881-.184,5.95-.167l.073.062.258-.058c1.719.017,3.487.064,5.3.124-.194.058-.438.116-.739.18.46-.062.871-.116,1.247-.163,3.739.128,7.638.274,11.591.19.133-.184-1.292-.462.532-.734l4.493.914c1.68-.09,1.548-1.055,4.619-.422a2.672,2.672,0,0,1-.521-.223c6.255.073,14.784-.045,21.108.426-.372-.238-.418-.36-.256-.413.251,0,.5,0,.752-.009,1.424.118,4.179.631,4.428.026.568.287,1.928.447.348.7,4.98-.282,7.483.454,10.922-.338.57.289-1.066.419-.559.591a6.233,6.233,0,0,1,2.1-.079c.507.171-.728.242-1.517.366,3.8-.036,5.048-.537,5.591-1.134,2.892.122,5.777.306,8.649.591-2.293-.355-.765-.389.986-.4-.538-.041-.56-.143-.459-.267,1.592.032,3.357.049,4.743,0l2.606.253c1.206-.64,6.782-.126,8.119-.588l.742,0,3.2-.026-1.51-.109a4.645,4.645,0,0,1,1.972-.411c-.018-.824.026-1.671.068-2.716.016-.529.033-1.1.052-1.708,0-.276.006-.565.009-.862,0-.268-.005-.546-.008-.832l.072.1c.511-8.192-.245-3.535.338-11.618l-.44.441c-.948-.753.559-7.16.2-11.851l-.252,1.693a13.8,13.8,0,0,1,.363-4l.456,1.378c-.019-.991-.053-2.052-.091-3.131a27.248,27.248,0,0,0,.678-3.982c.083-.561.133.886.194,1.669.559-6.734-.578-.873-.712-5.891.311-.927.792,1.192.85-2.185.2-1.308-.52-6.5-.57-10.912.16,2.527.453,1.228.379-3.06-.122,1.316-.206,2.953-.369,1.676a21.08,21.08,0,0,1,.148-2.11c-.24,1.016-.48,2.024-.66-.308-.027-1.121.053-2.491.151-3.942l.306,3.03-.286-3.328c.213-3.094.483-6.5-.02-8.645.065-.456.129-.627.188-.646-.187-2.613-.313-8.346-.683-10.274.036-.231.071-.428.1-.578.024-.064.047-.128.069-.2.015-.03.027-.06.042-.09,0-.019-.006-.024-.011-.028a12.683,12.683,0,0,0,.291-2.741c.01-.387.012-.8.008-1.22-.007-.608-.016-1.235-.024-1.875-.025-1.288-.066-2.6-.112-3.856l-3.888.173c-1.325.049-1.929.088-2.655.09-1.364.006-2.259-.122-2.246-.546l-7.429.086.169-.141c.467-.1.717-.223-.926-.33,1.078-.075,2.049-.1,2.965-.118-.988-.053-1.941-.122-2.839-.2l.126.028.025,0-.005.006c.236.056.314.09.047.058a.6.6,0,0,1-.114.009.588.588,0,0,1-.248.169c-1.59-.092-.251-.116.248-.169.018-.021.061-.043.066-.066a.084.084,0,0,1-.02,0l-5.5.244c1.164.062,2.621.049,5.2,0a6.168,6.168,0,0,1-1.141.345,24.053,24.053,0,0,0-5.963.67c-1.1-.109-.3-.257-.206-.34-1.177-.053-2.17-.1-3.043-.126a10.8,10.8,0,0,0-1.379-.537c-.074.154-.088.3-1.906.492a57.623,57.623,0,0,0-7.118.71l-.039-.034c.021,0,.043,0,.064,0,.086-.092,0-.12-.2-.116L269.923-16a53.135,53.135,0,0,1-6.337-.21,35.307,35.307,0,0,1,6.447-.353c-1.6-.629-.812.071-3.311-.663,2.154.909-8.862-.028-5.574.907h0c-2.535-.828-4.409-.353-7.736-1.074.1.21,1.188.4-1.766.3a4.326,4.326,0,0,1-.648.184l-.2-.015c.059.009.1.015.163.026-.129.03-.139.039.061.009a6.114,6.114,0,0,1,1.5.319,7.6,7.6,0,0,1-1.326.248c-3.728.045-7.83-.3-11.283-.432a5.5,5.5,0,0,1,1.733-.24l-3.716-.021a37.091,37.091,0,0,0-7.053-.169c-1.753-.1-4.428.518-2.9.152l-5.829.289-.054-.116c-5.75-.06-11.837.77-18.411-.071a61.631,61.631,0,0,1-7.175.128l-.632-.4c-2.485.141-7.464-.4-8.532.017-2.681-1.087-12.064-.238-16.435-.43l-.164.526c-3.009-.03-5.894.12-9.629.332l.105.214-2.563-.032L160-16.2c-3.191.111-7.6-.422-12.028-.381a7.344,7.344,0,0,1,2.552-.024c-6.085-1.053-12.839.764-18.358,0a12.951,12.951,0,0,1-3.336,0,2.582,2.582,0,0,0,.342-.026c-.141,0-.35,0-.565,0-.607-.081-1.232-.173-1.91-.248a15.967,15.967,0,0,0,1.608.248c-1.061.011-2.669.068-4.247.186l-.672-.5-.365.013c-1.547-.184-1.244.238-.419.614a20.716,20.716,0,0,0-2.085.3c-1.257-.807-4.137.272-5.852-.588-.81.319-4.982.336-7.3.715.006-.126-.117-.263-.951-.387-1.884.148-3.881.184-5.95.167l-.073-.062-.258.058c-1.721-.017-3.489-.064-5.3-.124.2-.058.439-.116.74-.18-.46.062-.871.116-1.248.163-3.738-.128-7.637-.274-11.59-.19-.133.184,1.293.462-.532.734l-4.493-.914c-1.682.09-1.548,1.055-4.619.422a2.672,2.672,0,0,1,.521.223c-6.255-.073-14.784.045-21.109-.426.373.238.42.36.257.413-.251,0-.5,0-.752.009-1.424-.118-4.179-.631-4.428-.026-.569-.287-1.929-.447-.348-.7-4.981.282-7.483-.454-10.922.338-.57-.289,1.066-.419.559-.591a6.238,6.238,0,0,1-2.1.079c-.507-.171.73-.242,1.518-.366-3.8.036-5.048.537-5.591,1.134-2.892-.122-5.777-.306-8.649-.591,2.293.355.764.389-.987.4.539.041.561.143.46.267-1.592-.032-3.357-.047-4.743,0L14.171-16.3c-1.206.64-6.782.126-8.119.588l-.742,0-3.2.026,1.51.109a4.645,4.645,0,0,1-1.972.411c.017.824-.026,1.671-.067,2.716-.016.529-.034,1.1-.052,1.708,0,.276-.006.565-.009.862q0,.4.008.835l-.073-.1C.941-.962,1.7-5.619,1.114,2.464l.44-.441c.948.753-.559,7.16-.2,11.851l.252-1.693a13.8,13.8,0,0,1-.363,4L.79,14.8c.019.991.053,2.052.091,3.131A27.412,27.412,0,0,0,.2,21.914c-.082.561-.132-.886-.193-1.669M74.161,78.169a.887.887,0,0,0,.1-.024c2.056.195,1.327.118-.1.024m2.026-.546a2.554,2.554,0,0,0,.338-.188l5.053-.46c-4.347-.1-2.485-.426-1.537-.725.6.047,1.193.077,1.822.071l-1.629-.137c.269-.1.357-.2-.027-.28.291-.021.592-.041.9-.054,2.4.081,4.92.58,2.241.661l-.494-.094c-.241.205-.025.338.462.428-2.651.347-3.657.918-7.13.779m225.027-.481.239,0-.306.015.066-.019M235.063-16.727l-.1.024c-2.056-.195-1.327-.118.1-.024m-2.026.546a2.551,2.551,0,0,0-.338.188l-5.053.46c4.346.1,2.485.426,1.537.725-.6-.047-1.193-.077-1.822-.071l1.628.137c-.268.1-.356.2.028.28-.292.021-.592.041-.9.053-2.4-.081-4.921-.58-2.241-.661l.493.094c.242-.205.026-.338-.461-.428,2.651-.347,3.657-.918,7.13-.779M8.01-15.7l-.239,0,.3-.015L8.01-15.7" transform="translate(0.163 17.759)" fill="#1c2122"/>
        </g>
      </g>
    </g>
    <path id="Path_1565" data-name="Path 1565" d="M.916-28.145a51.127,51.127,0,0,1,1.669-14.5q1.669-5.465,4.745-7.92a11.2,11.2,0,0,1,7.2-2.455,10.029,10.029,0,0,1,8.9,4.484q3.011,4.484,3.011,11.88,0,.851.065,1.833a10.079,10.079,0,0,0,.262,1.767v.655H16.953a10.758,10.758,0,0,1-.327-2.945v-6.807a3.678,3.678,0,0,0-.589-2.193,2.035,2.035,0,0,0-1.767-.818q-2.553,0-2.553,3.338v30.96q0,3.338,2.553,3.338a2.035,2.035,0,0,0,1.767-.818,3.678,3.678,0,0,0,.589-2.193V-21.273h9.491V0H21.535L19.9-6.742h-.655a10.077,10.077,0,0,1-2.029,5.2Q15.513.655,11.847.655A8.276,8.276,0,0,1,8.084-.327,10.083,10.083,0,0,1,4.516-3.633,18.785,18.785,0,0,1,1.9-9.949,42.839,42.839,0,0,1,.916-19.964ZM28.735-52.364H46.407v8.509H38.553v13.091h6.873v8.509H38.553V-8.509h7.855V0H28.735Zm18.982,0H70.625v8.509H64.08V0H54.262V-43.855H47.716Zm33.905,0H91.44V0H81.622Zm12.436,0h8.509l5.564,26.182h.655L107.8-52.364h9.164V0h-8.509l-5.564-26.182h-.655L103.222,0H94.058Zm33.905,0h22.909v8.509h-6.545V0h-9.818V-43.855h-6.545Zm22.385,28.145v-3.927a54.158,54.158,0,0,1,1.571-14.5q1.571-5.465,4.582-7.92a11.131,11.131,0,0,1,7.265-2.455,11.131,11.131,0,0,1,7.265,2.455q3.011,2.455,4.582,7.92a54.158,54.158,0,0,1,1.571,14.5v3.927a54.158,54.158,0,0,1-1.571,14.5q-1.571,5.465-4.582,7.92A11.131,11.131,0,0,1,163.767.655,11.131,11.131,0,0,1,156.5-1.8q-3.011-2.455-4.582-7.92A54.158,54.158,0,0,1,150.349-24.218Zm10.8-17.607v30.96a3.758,3.758,0,0,0,.72,2.487,2.365,2.365,0,0,0,1.9.851,2.365,2.365,0,0,0,1.9-.851,3.758,3.758,0,0,0,.72-2.487v-30.96a3.758,3.758,0,0,0-.72-2.487,2.365,2.365,0,0,0-1.9-.851,2.365,2.365,0,0,0-1.9.851A3.758,3.758,0,0,0,161.149-41.825Zm18.262-10.538h9.818v41.825q0,3.338,2.291,3.338t2.291-3.338V-52.364h9.818v39.273q0,6.349-3.24,10.047a11.181,11.181,0,0,1-8.869,3.7,11.181,11.181,0,0,1-8.869-3.7q-3.24-3.7-3.24-10.047Zm26.444,24.218a53.1,53.1,0,0,1,1.6-14.5q1.6-5.465,4.615-7.92a11.131,11.131,0,0,1,7.265-2.455,10.317,10.317,0,0,1,8.967,4.32q3.076,4.32,3.076,11.716,0,.851.065,1.833a10.078,10.078,0,0,0,.262,1.767v.655h-9.818a10.758,10.758,0,0,1-.327-2.945v-6.48a3.678,3.678,0,0,0-.589-2.193,2.035,2.035,0,0,0-1.767-.818q-2.553,0-2.553,3.338v30.96q0,3.338,2.553,3.338a2.035,2.035,0,0,0,1.767-.818,3.678,3.678,0,0,0,.589-2.193v-6.48a10.758,10.758,0,0,1,.327-2.945h9.818v.655a7,7,0,0,0-.295,1.833q-.033.982-.033,2.095,0,7.331-3.076,11.684A10.291,10.291,0,0,1,219.338.655,11.131,11.131,0,0,1,212.073-1.8q-3.011-2.455-4.615-7.92a53.1,53.1,0,0,1-1.6-14.5Zm27.687-24.218h9.491v21.6h4.255v-21.6h9.491V0h-9.491V-22.255h-4.255V0h-9.491Z" transform="translate(1098.88 1458.981)" fill="#fff"/>
  </g>
</svg>
