<svg xmlns="http://www.w3.org/2000/svg" xmlns:xlink="http://www.w3.org/1999/xlink" width="283.168" height="84.853" viewBox="0 0 283.168 84.853"><defs><clipPath id="a"><path d="M0,29.166H283.168V-55.687H0Z" transform="translate(0 55.687)" fill="none"/></clipPath></defs><g transform="translate(0 55.687)"><g transform="translate(86.834 -27.465)"><path d="M2.571,0V11.754H.255V0H-4.909V28.492H.255V16.38H2.571V28.492H7.735V0Z" transform="translate(4.909)" fill="#f4f4f4"/></g><g transform="translate(0 -55.687)" clip-path="url(#a)"><g transform="translate(101.325 27.865)"><path d="M2.021,7.883c0,1.192.568,1.815,1.422,1.815S4.868,9.06,4.868,7.883V-8.962c0-1.193-.568-1.816-1.426-1.816s-1.422.64-1.422,1.816Zm-5.879-9.4c0-9.792,2.67-13.534,7.3-13.534s7.3,3.742,7.3,13.534V.618c0,9.8-2.67,13.534-7.3,13.534s-7.3-3.738-7.3-13.534Z" transform="translate(3.858 15.052)" fill="#f4f4f4"/></g><g transform="translate(117.777 28.222)"><path d="M1.836,4.9h.358c1.422,0,2.315-.818,2.315-2.848V-2.22c0-2.03-.893-2.848-2.315-2.848H1.851ZM1.765-9.351C6.11-9.351,9.853-6.5,9.853-.445v.71c0,6.058-3.742,8.906-8.016,8.906v9.97H-3.506V-9.351Z" transform="translate(3.506 9.351)" fill="#f4f4f4"/></g><g transform="translate(132.441 28.226)"><path d="M3.307,0V4.632H-.972v7.122H2.771V16.38H-.972v7.48H3.307v4.632H-6.314V0Z" transform="translate(6.314)" fill="#f4f4f4"/></g><g transform="translate(150.3 28.139)"><path d="M0,0H9.616V4.628H5.342v7.127H8.917V16.38H5.342V28.492H0Z" fill="#f4f4f4"/></g><g transform="translate(160.517 27.777)"><path d="M2.021,7.883c0,1.192.571,1.815,1.426,1.815S4.868,9.06,4.868,7.883V-8.962c0-1.192-.568-1.816-1.422-1.816s-1.426.64-1.426,1.816Zm-5.879-9.4c0-9.8,2.673-13.534,7.3-13.534s7.3,3.738,7.3,13.534V.618c0,9.8-2.673,13.534-7.3,13.534s-7.3-3.738-7.3-13.534Z" transform="translate(3.858 15.052)" fill="#f4f4f4"/></g><g transform="translate(176.81 28.135)"><path d="M1.835,4.779h.171c1.248,0,2.316-.965,2.316-2.852V-2c0-1.886-1.068-2.848-2.316-2.848H1.828Zm-.072-13.9c4.489,0,7.908,3.134,7.908,8.655A9.3,9.3,0,0,1,6.646,7.006l2.673,12v.358H4.154L2.125,8.541H1.608L1.86,19.368H-3.5V-9.124Z" transform="translate(3.504 9.124)" fill="#f4f4f4"/></g><g transform="translate(197.298 28.139)"><path d="M3.305,0V22.614c0,3.575-1.589,6.052-5.342,6.052a25.589,25.589,0,0,1-4.274-.357l.358-4.454H-3.32c1.033,0,1.461-.46,1.461-1.457V4.628h-4.1V0Z" transform="translate(6.311)" fill="#f4f4f4"/></g><g transform="translate(208.655 28.139)"><path d="M4.53,0V21.37c0,4.628-2.49,7.475-6.59,7.475S-8.649,26-8.649,21.37V0h5.342V22.756c0,1.192.4,1.816,1.246,1.816s1.248-.645,1.248-1.816V0Z" transform="translate(8.649)" fill="#f4f4f4"/></g><g transform="translate(223.169 27.762)"><path d="M1.677,6.555a4.226,4.226,0,0,1,.215,1.589v2.633c0,1.1.5,1.815,1.315,1.815s1.355-.71,1.355-1.958c0-2.28-1.495-4.369-3.063-6.447L.465,2.837C-1.958-.34-2.956-2.434-2.956-5.568c0-4.1,2.459-6.947,6.484-6.947,4.1,0,6.356,2.851,6.356,7.372A6.933,6.933,0,0,0,10.1-3.078v.358H5.291A4.879,4.879,0,0,1,5.076-4.31V-6.693C5.076-7.833,4.544-8.4,3.8-8.4s-1.39.573-1.39,1.987c0,2.1,1.1,3.6,2.668,5.592L6.146.533C8.6,3.631,9.923,6.094,9.923,9.578c0,4.346-2.459,7.122-6.356,7.122-4.346,0-6.554-2.813-6.554-7.8A6.379,6.379,0,0,0-3.2,6.916V6.559Z" transform="translate(3.201 12.515)" fill="#f4f4f4"/></g><g transform="translate(237.019 28.139)"><path d="M4.29,0V4.628H.715v23.86h-5.33V4.628H-8.191V0Z" transform="translate(8.191)" fill="#f4f4f4"/></g><path d="M164.761-37.223H170.1V-8.731h-5.342Z" transform="translate(86.292 65.357)" fill="#f4f4f4"/><g transform="translate(258.019 27.778)"><path d="M2.515,0C6.789,0,9.069,3.384,9.069,8.739a8.71,8.71,0,0,0,.18,1.958v.358H3.909a5.884,5.884,0,0,1-.178-1.589V5.915c0-1-.425-1.641-1.283-1.641s-1.387.643-1.387,1.819V22.935c0,1.192.532,1.819,1.387,1.819s1.283-.645,1.283-1.641V19.591A5.878,5.878,0,0,1,3.909,18H9.268v.358a8.054,8.054,0,0,0-.18,2.136c0,5.342-2.28,8.739-6.554,8.739C-2.093,29.235-4.8,25.492-4.8,15.7v-2.17C-4.8,3.738-2.093,0,2.535,0" transform="translate(4.802)" fill="#f4f4f4"/></g><g transform="translate(273.546 28.139)"><path d="M3.307,0V4.628H-.967v7.127H2.775V16.38H-.967v7.48H3.307v4.628H-6.314V0Z" transform="translate(6.314)" fill="#f4f4f4"/></g><g transform="translate(0.001 0)"><path d="M23.551,9.582a1.51,1.51,0,1,1,.369-2.106,1.51,1.51,0,0,1-.369,2.106l0,0m6.86-4.714a.06.06,0,0,0-.064-.029c-1.649.2-3.575.4-3.575.4a9.078,9.078,0,0,0-7.149-.421,9.668,9.668,0,0,0-5.2,4.314l-.865-.294.611-5.065a8.951,8.951,0,0,0-4.044-8.4L-11.367-18.3c-.457,1.033-3.179,13.939,9.028,19.956C3.73,4.645,5.109,5.312,5.367,5.577a1.073,1.073,0,0,1,.43.664S-5.513,2.492-8.6,1.424c-10.156-3.5-27.947-9.577-36.372-12.382,0,0,2.935,22.717,29.878,32.055C-6.573,24.115.342,26.555.342,26.555a3.846,3.846,0,0,1,2.193,1.632A3.572,3.572,0,0,1,2.594,31.5c-3.971,7.511-17.759,33.64-18.509,35.054a15.146,15.146,0,0,0,5.684-3.972c1.859-2.136,3.293-3.892,6.613-7.753C.442,50.113,4.8,45.056,4.8,45.056L5.915,56.115a9.7,9.7,0,0,0,2.593-5.693C8.85,47.531,9.871,39.19,9.871,39.19s7.376-8.647,13.636-15.928c6.049-7,4.462-14.177,4.286-14.768,0,0,2.094-2.82,2.613-3.54a.067.067,0,0,0,0-.087" transform="translate(44.967 18.295)" fill="#f4f4f4"/></g></g></g></svg>