<svg xmlns="http://www.w3.org/2000/svg" width="422.902" height="53.673" viewBox="0 0 422.902 53.673">
  <path id="Path_1564" data-name="Path 1564" d="M1.309-52.364h9.164q7.135,0,11.095,5.04t3.96,16.56V-21.6q0,11.52-3.96,16.56T10.473,0H1.309ZM10.8-44.509V-8.182h.982a3.5,3.5,0,0,0,2.913-1.276,5.26,5.26,0,0,0,1.015-3.371V-39.862a5.26,5.26,0,0,0-1.015-3.371,3.5,3.5,0,0,0-2.913-1.276ZM27.36-24.218v-3.927a54.158,54.158,0,0,1,1.571-14.5q1.571-5.465,4.582-7.92a11.131,11.131,0,0,1,7.265-2.455,11.131,11.131,0,0,1,7.265,2.455q3.011,2.455,4.582,7.92a54.158,54.158,0,0,1,1.571,14.5v3.927a54.158,54.158,0,0,1-1.571,14.5Q51.055-4.255,48.044-1.8A11.131,11.131,0,0,1,40.778.655,11.131,11.131,0,0,1,33.513-1.8Q30.5-4.255,28.931-9.72A54.158,54.158,0,0,1,27.36-24.218Zm10.8-17.607v30.96a3.758,3.758,0,0,0,.72,2.487,2.365,2.365,0,0,0,1.9.851,2.365,2.365,0,0,0,1.9-.851,3.758,3.758,0,0,0,.72-2.487v-30.96a3.758,3.758,0,0,0-.72-2.487,2.365,2.365,0,0,0-1.9-.851,2.365,2.365,0,0,0-1.9.851A3.758,3.758,0,0,0,38.16-41.825ZM67.091-52.364h6.545L75.6-22.909h.655l1.309-29.455h8.182v.655L82.8,0H72.655L70.691-22.909h-.655L68.073,0H57.927L54.982-51.709v-.655h8.182l1.309,29.455h.655Zm20.618,0h8.509l5.564,26.182h.655l-.982-26.182h9.164V0h-8.509L96.545-26.182h-.655L96.873,0H87.709Zm25.527,0h9.818V-8.509h8.182V0h-18Zm17.476,28.145v-3.927a54.158,54.158,0,0,1,1.571-14.5q1.571-5.465,4.582-7.92a11.131,11.131,0,0,1,7.265-2.455,11.131,11.131,0,0,1,7.265,2.455q3.011,2.455,4.582,7.92a54.158,54.158,0,0,1,1.571,14.5v3.927a54.158,54.158,0,0,1-1.571,14.5Q154.407-4.255,151.4-1.8A11.131,11.131,0,0,1,144.131.655,11.131,11.131,0,0,1,136.865-1.8q-3.011-2.455-4.582-7.92A54.158,54.158,0,0,1,130.713-24.218Zm10.8-17.607v30.96a3.758,3.758,0,0,0,.72,2.487,2.365,2.365,0,0,0,1.9.851,2.365,2.365,0,0,0,1.9-.851,3.758,3.758,0,0,0,.72-2.487v-30.96a3.758,3.758,0,0,0-.72-2.487,2.365,2.365,0,0,0-1.9-.851,2.365,2.365,0,0,0-1.9.851A3.758,3.758,0,0,0,141.513-41.825Zm21.011-10.538h14.4L181.833-.655V0h-9.164l-1.113-12.436h-3.665L166.778,0h-9.164V-.655Zm5.433,31.418h3.535l-1.44-18H169.4Zm15.513-31.418h9.164q7.135,0,11.095,5.04t3.96,16.56V-21.6q0,11.52-3.96,16.56T192.633,0h-9.164Zm9.491,7.855V-8.182h.982a3.5,3.5,0,0,0,2.913-1.276,5.26,5.26,0,0,0,1.015-3.371V-39.862a5.26,5.26,0,0,0-1.015-3.371,3.5,3.5,0,0,0-2.913-1.276Zm26.116-7.855h9.36a18.9,18.9,0,0,1,7.462,1.473,12.948,12.948,0,0,1,5.6,4.451,12.573,12.573,0,0,1,2.127,7.495,13.5,13.5,0,0,1-1.178,5.989,11.079,11.079,0,0,1-2.978,3.829,17.184,17.184,0,0,1-3.7,2.291v.655a13.65,13.65,0,0,1,3.895,2.193,11.3,11.3,0,0,1,3.076,3.895,13.732,13.732,0,0,1,1.211,6.153,14.264,14.264,0,0,1-1.964,7.756,12.206,12.206,0,0,1-5.269,4.647A17.086,17.086,0,0,1,229.418,0H219.076Zm9.818,7.855v14.4h.655a3.573,3.573,0,0,0,2.815-1.276,5.918,5.918,0,0,0,1.113-3.96v-3.927a5.918,5.918,0,0,0-1.113-3.96,3.573,3.573,0,0,0-2.815-1.276Zm0,22.255v14.4h.655a4.033,4.033,0,0,0,2.978-1.309,5.941,5.941,0,0,0,1.276-4.255v-3.273a5.941,5.941,0,0,0-1.276-4.255,4.033,4.033,0,0,0-2.978-1.309Zm16.887-30.109h9.687A14.85,14.85,0,0,1,262.9-50.5a13.218,13.218,0,0,1,5.2,5.4,18.061,18.061,0,0,1,1.9,8.64,18.944,18.944,0,0,1-1.44,7.985,20.376,20.376,0,0,1-4.124,5.76L269.345-.655V0h-9.491l-3.731-19.9h-.982L255.6,0h-9.818Zm9.818,7.855v17.673h.327a4.033,4.033,0,0,0,2.978-1.309,5.419,5.419,0,0,0,1.276-3.927v-7.2a5.419,5.419,0,0,0-1.276-3.927,4.033,4.033,0,0,0-2.978-1.309Zm15.84,20.291v-3.927a54.158,54.158,0,0,1,1.571-14.5q1.571-5.465,4.582-7.92a11.131,11.131,0,0,1,7.265-2.455,11.131,11.131,0,0,1,7.265,2.455q3.011,2.455,4.582,7.92a54.158,54.158,0,0,1,1.571,14.5v3.927a54.158,54.158,0,0,1-1.571,14.5q-1.571,5.465-4.582,7.92A11.131,11.131,0,0,1,284.858.655,11.131,11.131,0,0,1,277.593-1.8q-3.011-2.455-4.582-7.92A54.158,54.158,0,0,1,271.44-24.218Zm10.8-17.607v30.96a3.758,3.758,0,0,0,.72,2.487,2.365,2.365,0,0,0,1.9.851,2.365,2.365,0,0,0,1.9-.851,3.758,3.758,0,0,0,.72-2.487v-30.96a3.758,3.758,0,0,0-.72-2.487,2.365,2.365,0,0,0-1.9-.851,2.365,2.365,0,0,0-1.9.851A3.758,3.758,0,0,0,282.24-41.825Zm17.869,13.68a53.1,53.1,0,0,1,1.6-14.5q1.6-5.465,4.615-7.92a11.131,11.131,0,0,1,7.265-2.455,10.317,10.317,0,0,1,8.967,4.32q3.076,4.32,3.076,11.716,0,.851.065,1.833a10.081,10.081,0,0,0,.262,1.767v.655h-9.818a10.759,10.759,0,0,1-.327-2.945v-6.48a3.678,3.678,0,0,0-.589-2.193,2.035,2.035,0,0,0-1.767-.818q-2.553,0-2.553,3.338v30.96q0,3.338,2.553,3.338a2.035,2.035,0,0,0,1.767-.818,3.678,3.678,0,0,0,.589-2.193v-6.48a10.759,10.759,0,0,1,.327-2.945h9.818v.655a7,7,0,0,0-.295,1.833q-.033.982-.033,2.095,0,7.331-3.076,11.684A10.291,10.291,0,0,1,313.593.655,11.131,11.131,0,0,1,306.327-1.8q-3.011-2.455-4.615-7.92a53.1,53.1,0,0,1-1.6-14.5ZM327.8-52.364h9.491v21.6h4.255v-21.6h9.491V0h-9.491V-22.255h-4.255V0H327.8Zm25.855,0h9.818v41.825q0,3.338,2.291,3.338t2.291-3.338V-52.364h9.818v39.273q0,6.349-3.24,10.047a11.181,11.181,0,0,1-8.869,3.7,11.181,11.181,0,0,1-8.869-3.7q-3.24-3.7-3.24-10.047Zm26.836,0h9.687A14.849,14.849,0,0,1,397.6-50.5a13.218,13.218,0,0,1,5.2,5.4,18.061,18.061,0,0,1,1.9,8.64,18.944,18.944,0,0,1-1.44,7.985,20.376,20.376,0,0,1-4.124,5.76L404.051-.655V0H394.56l-3.731-19.9h-.982L390.305,0h-9.818Zm9.818,7.855v17.673h.327a4.033,4.033,0,0,0,2.978-1.309,5.419,5.419,0,0,0,1.276-3.927v-7.2a5.419,5.419,0,0,0-1.276-3.927,4.033,4.033,0,0,0-2.978-1.309Zm16.233-7.855h17.673v8.509h-7.855v13.091h6.873v8.509h-6.873V-8.509h7.855V0H406.538Z" transform="translate(-1.309 53.018)" fill="#fff"/>
</svg>
